<?xml version="1.0" encoding="utf-8"?>
<!-- Generator: Adobe Illustrator 19.2.1, SVG Export Plug-In . SVG Version: 6.00 Build 0)  -->
<svg version="1.1" id="Layer_1" xmlns="http://www.w3.org/2000/svg" xmlns:xlink="http://www.w3.org/1999/xlink" x="0px" y="0px"
	 viewBox="0 0 200 200" style="enable-background:new 0 0 200 200;" xml:space="preserve">
<style type="text/css">
	.st0{fill:#85C443;}
	.st1{fill:#FFFFFF;}
	.st2{fill-rule:evenodd;clip-rule:evenodd;fill:#FFFFFF;}
	.st3{fill:none;stroke:#FFFFFF;stroke-linejoin:bevel;stroke-miterlimit:10;}
</style>
<g>
	<circle class="st0" cx="100" cy="100" r="100"/>
	<g>
		<g>
			<polygon class="st1" points="116.4,94.2 105.9,94.2 114.4,62.5 83.6,105.8 94.1,105.8 85.6,137.5 			"/>
		</g>
		<g>
			<g>
				<g>
					<path class="st1" d="M99.9,158.3c-15.3,0-30.1-6-41.2-17.1c-8.7-8.7-14.3-19.6-16.3-31.7c-1.9-11.8-0.3-23.7,4.8-34.5l2.2,1
						c-10.1,21.3-5.7,46.8,11,63.5c13.4,13.4,32.4,19.1,51,15.2l0.5,2.4C107.9,157.9,103.9,158.3,99.9,158.3z"/>
				</g>
				<g>
					<g>
						<polygon class="st1" points="103.1,149.6 109,156.5 108.1,165.5 124.5,151.6 						"/>
					</g>
				</g>
			</g>
			<g>
				<g>
					<path class="st1" d="M152.7,125l-2.2-1c10.1-21.3,5.7-46.8-11-63.5c-13.4-13.4-32.4-19.1-51-15.2l-0.5-2.4
						c19.3-4,39.2,1.9,53.2,15.9c8.7,8.7,14.3,19.6,16.3,31.7C159.5,102.3,157.8,114.2,152.7,125z"/>
				</g>
				<g>
					<g>
						<polygon class="st1" points="91.9,34.5 91,43.5 96.9,50.4 75.5,48.4 						"/>
					</g>
				</g>
			</g>
		</g>
	</g>
</g>
</svg>
