<?xml version="1.0" encoding="utf-8"?>
<!-- Generator: Adobe Illustrator 19.1.0, SVG Export Plug-In . SVG Version: 6.00 Build 0)  -->
<svg version="1.1" id="Account_Settings" xmlns="http://www.w3.org/2000/svg" xmlns:xlink="http://www.w3.org/1999/xlink" x="0px"
	 y="0px" viewBox="0 0 67.2 63.4" style="enable-background:new 0 0 67.2 63.4;" xml:space="preserve">
<style type="text/css">
	.st0{fill:#676767;}
</style>
<g>
	<path class="st0" d="M54.4,34.5l6,4.6c0.6,0.4,0.7,1.1,0.3,1.9l-5.7,9.8c-0.4,0.6-0.9,0.8-1.7,0.5l-7-2.8c-1.9,1.3-3.4,2.2-4.8,2.8
		l-1.1,7.4c-0.2,0.8-0.6,1.2-1.3,1.2H27.7c-0.7,0-1.1-0.4-1.3-1.2l-1.1-7.4c-1.7-0.7-3.3-1.6-4.8-2.8l-7,2.8
		c-0.8,0.3-1.4,0.1-1.7-0.5L6.1,41c-0.4-0.8-0.4-1.4,0.3-1.9l6-4.6c-0.1-0.6-0.1-1.5-0.1-2.8c0-1.2,0-2.2,0.1-2.8l-6-4.6
		c-0.6-0.4-0.7-1.1-0.3-1.9l5.7-9.8c0.4-0.6,0.9-0.8,1.7-0.5l7,2.8c1.9-1.3,3.4-2.2,4.8-2.8l1.1-7.4c0.2-0.8,0.6-1.2,1.3-1.2H39
		c0.7,0,1.1,0.4,1.3,1.2l1.1,7.4c1.7,0.7,3.3,1.6,4.8,2.8l7-2.8c0.8-0.3,1.4-0.1,1.7,0.5l5.7,9.8c0.4,0.8,0.4,1.4-0.3,1.9l-6,4.6
		c0.1,0.6,0.1,1.5,0.1,2.8C54.5,32.9,54.5,33.9,54.4,34.5z M26.3,38.7c1.9,1.9,4.3,2.9,7,2.9s5.1-1,7-2.9c1.9-1.9,2.9-4.3,2.9-7
		s-1-5.1-2.9-7c-1.9-1.9-4.3-2.9-7-2.9s-5.1,1-7,2.9c-1.9,1.9-2.9,4.3-2.9,7S24.4,36.8,26.3,38.7z"/>
</g>
</svg>
