<?xml version="1.0" encoding="utf-8"?>
<!-- Generator: Adobe Illustrator 19.2.1, SVG Export Plug-In . SVG Version: 6.00 Build 0)  -->
<svg version="1.1" id="Layer_1" xmlns="http://www.w3.org/2000/svg" xmlns:xlink="http://www.w3.org/1999/xlink" x="0px" y="0px"
	 viewBox="0 0 200 200" style="enable-background:new 0 0 200 200;" xml:space="preserve">
<style type="text/css">
	.st0{fill:url(#SVGID_1_);}
	.st1{fill:#85C443;}
</style>
<linearGradient id="SVGID_1_" gradientUnits="userSpaceOnUse" x1="100" y1="191.9156" x2="100" y2="8.0844">
	<stop  offset="0" style="stop-color:#85C446"/>
	<stop  offset="1" style="stop-color:#85C446;stop-opacity:0.5"/>
</linearGradient>
<path class="st0" d="M76.8,161c-0.1-0.1-0.2-0.2-0.2-0.2S76.7,160.9,76.8,161c0.1,0.1,0.3,0.3,0.5,0.6c0.2,0.2,0.4,0.6,0.7,0.9
	c0.3,0.3,0.5,0.8,0.8,1.2c0.6,0.9,1.2,2,1.7,3.2c0.3,0.6,0.6,1.2,0.9,1.9c0.3,0.6,0.6,1.3,0.8,2c0.2,0.5,0.4,1,0.5,1.5
	c-4.8,0-9.6-2.7-11.6-6.9c-1.1-2.2-1.4-4.5-1-6.6c0.4-2.1,1.3-4.1,2.6-5.8c4,0.6,7.5,2.8,9.8,6.8c2.2,3.7,2.8,8.1,1.1,11.9l-0.5-1.1
	c-0.3-0.7-0.7-1.3-1-2c-0.3-0.6-0.7-1.3-1-1.8c-0.7-1.2-1.4-2.3-2-3.1c-0.3-0.4-0.6-0.8-0.9-1.2c-0.3-0.3-0.5-0.6-0.7-0.9
	C77.1,161.3,76.9,161.1,76.8,161z M61.3,154.3c0.1,0.3,0.3,0.6,0.5,1c0.2,0.4,0.4,0.8,0.6,1.3c0.4,1,0.8,2.2,1.1,3.5
	c0.2,0.6,0.4,1.3,0.5,2c0.2,0.7,0.3,1.4,0.5,2.1l0.2,1.2c2.5-3.1,3.1-7.5,1.9-11.4c-1.2-4.3-4-7.3-7.6-8.8
	c-3.3,2.5-5.5,6.6-4.5,11.3c0.9,4.5,4.7,8.2,9.2,9.4c0-0.5-0.1-1-0.1-1.5c-0.1-0.7-0.2-1.4-0.3-2.1c-0.1-0.7-0.2-1.3-0.3-2
	c-0.2-1.3-0.5-2.5-0.8-3.5c-0.2-0.5-0.3-0.9-0.5-1.3C61.5,154.9,61.4,154.6,61.3,154.3c-0.2-0.2-0.3-0.5-0.4-0.6
	c-0.1-0.1-0.1-0.2-0.1-0.2s0,0.1,0.1,0.2C61,153.8,61.2,154,61.3,154.3z M48.4,154.8c3.1-2.3,4.7-6.2,4.6-10.3
	c-0.2-4.3-2.1-7.9-5.1-10.2c-3.7,1.6-6.7,4.9-6.9,9.6c-0.2,4.4,2.5,8.8,6.5,11c0.1-0.5,0.1-1,0.2-1.5c0.1-0.7,0.2-1.3,0.2-2
	c0.1-0.7,0.1-1.3,0.2-2c0.1-1.3,0.1-2.4,0-3.4c0-0.5,0-1-0.1-1.4c0-0.4-0.1-0.8-0.2-1.1c-0.1-0.3-0.1-0.5-0.2-0.7
	c0-0.2-0.1-0.2-0.1-0.2s0,0.1,0.1,0.2c0.1,0.1,0.1,0.4,0.2,0.7c0.1,0.3,0.2,0.6,0.2,1c0.1,0.4,0.1,0.9,0.2,1.4
	c0.1,1,0.2,2.2,0.3,3.5c0,0.7,0,1.3,0,2c0,0.7,0,1.4-0.1,2.1L48.4,154.8z M37.5,132.7c-0.1,1-0.3,2.1-0.6,3.4
	c-0.1,0.6-0.3,1.3-0.5,1.9c-0.2,0.6-0.3,1.3-0.5,1.9l-0.3,1.1c3.5-1.4,5.9-4.7,6.7-8.6c0.8-4.1-0.2-7.9-2.5-10.8
	c-3.9,0.6-7.4,3.1-8.7,7.4c-1.2,4.1,0.4,8.8,3.5,11.8c0.2-0.4,0.4-0.9,0.5-1.3c0.2-0.6,0.5-1.2,0.7-1.8c0.2-0.6,0.4-1.2,0.6-1.8
	c0.4-1.2,0.6-2.3,0.8-3.2c0.1-0.5,0.2-0.9,0.2-1.3c0.1-0.4,0.1-0.7,0.1-1c0-0.3,0-0.5,0-0.7c0-0.2,0-0.2,0-0.2s0,0.1,0,0.2
	c0,0.2,0,0.4,0,0.7c0,0.3,0,0.6,0,1C37.6,131.7,37.6,132.2,37.5,132.7z M31,115.4c-0.1,0.3-0.1,0.6-0.3,1c-0.1,0.4-0.3,0.8-0.4,1.2
	c-0.3,0.9-0.8,1.9-1.3,3c-0.3,0.5-0.6,1.1-0.8,1.7c-0.3,0.6-0.6,1.1-0.9,1.7l-0.6,0.9c3.6-0.6,6.6-3.1,8.2-6.6
	c1.7-3.7,1.7-7.5,0-10.8c-1.9-0.1-3.8,0.2-5.5,1c-1.7,0.8-3.3,2.2-4.3,4.1c-1,1.8-1.4,3.9-1.3,6c0.2,2.1,0.8,4.2,2,5.9
	c0.3-0.4,0.5-0.7,0.8-1.1c0.4-0.5,0.7-1,1-1.6c0.3-0.5,0.7-1.1,1-1.6c0.6-1,1.1-2,1.5-2.9c0.2-0.4,0.3-0.8,0.5-1.2
	C30.8,116,30.9,115.6,31,115.4c0-0.3,0.1-0.5,0.1-0.6c0-0.1,0-0.2,0-0.2s0,0.1,0,0.2C31.1,114.9,31.1,115.1,31,115.4z M28.1,99.8
	c-0.1,0.2-0.3,0.5-0.4,0.9c-0.2,0.3-0.4,0.7-0.7,1.1c-0.5,0.8-1.2,1.7-1.9,2.6c-0.4,0.5-0.8,0.9-1.2,1.4c-0.4,0.5-0.8,0.9-1.3,1.4
	l-0.7,0.8c3.5,0.3,6.9-1.5,9.2-4.4c2.5-3.1,3.1-6.8,2.4-10.2c-3.5-1.1-7.5-0.4-10.3,2.7c-2.6,3-3.4,7.6-2,11.4
	c0.3-0.3,0.7-0.6,1-0.9c0.5-0.4,0.9-0.8,1.3-1.2c0.4-0.4,0.8-0.8,1.2-1.3c0.8-0.8,1.5-1.7,2.1-2.4c0.3-0.4,0.5-0.7,0.7-1
	C27.7,100.3,27.9,100,28.1,99.8c0.1-0.3,0.2-0.5,0.2-0.6c0.1-0.1,0.1-0.2,0.1-0.2s0,0.1-0.1,0.2C28.3,99.3,28.2,99.5,28.1,99.8z
	 M20.5,90c0.4-0.2,0.8-0.4,1.1-0.6c0.5-0.3,1-0.6,1.5-0.9c0.5-0.3,1-0.6,1.4-0.9c0.9-0.6,1.8-1.2,2.4-1.8c0.3-0.3,0.6-0.6,0.9-0.8
	c0.3-0.3,0.5-0.5,0.7-0.7c0.2-0.2,0.3-0.4,0.4-0.5c0.1-0.1,0.1-0.2,0.1-0.2s0,0.1-0.1,0.2c-0.1,0.1-0.2,0.3-0.4,0.5
	c-0.2,0.2-0.4,0.5-0.6,0.7c-0.2,0.3-0.5,0.6-0.8,0.9c-0.6,0.6-1.4,1.3-2.3,2c-0.4,0.3-0.9,0.7-1.4,1.1c-0.5,0.4-1,0.7-1.5,1
	l-0.9,0.6c3.2,1,6.8,0.1,9.6-2.2c3-2.4,4.4-5.7,4.4-9.2c-3.1-1.7-7-2-10.3,0.4c-1.6,1.1-2.7,2.7-3.5,4.5C20.5,86,20.2,88.1,20.5,90z
	 M23.5,73.5c0.4-0.1,0.8-0.2,1.2-0.3c0.5-0.2,1.1-0.3,1.6-0.5c0.5-0.2,1.1-0.4,1.6-0.6c1-0.4,1.9-0.8,2.6-1.2c0.4-0.2,0.7-0.4,1-0.6
	c0.3-0.2,0.6-0.4,0.8-0.5c0.2-0.1,0.4-0.3,0.5-0.4c0.1-0.1,0.2-0.1,0.2-0.1s-0.1,0.1-0.1,0.1c-0.1,0.1-0.2,0.2-0.4,0.4
	c-0.2,0.2-0.4,0.4-0.7,0.6c-0.3,0.2-0.6,0.4-1,0.7c-0.7,0.5-1.6,1-2.6,1.5c-0.5,0.2-1,0.5-1.6,0.7c-0.5,0.2-1.1,0.5-1.6,0.7
	l-0.9,0.4c1.4,0.8,3,1.2,4.6,1.1c1.6,0,3.3-0.5,4.8-1.2c3.2-1.7,5.4-4.5,6-7.8c-1.3-1.1-2.8-1.9-4.5-2.3c-1.7-0.3-3.5-0.2-5.3,0.6
	C26.1,66.1,23.9,69.7,23.5,73.5z M38.7,56.8c-0.2,0.1-0.5,0.3-0.8,0.4c-0.3,0.1-0.7,0.3-1.1,0.4c-0.8,0.3-1.7,0.6-2.7,0.9
	c-0.5,0.1-1,0.3-1.6,0.4c-0.5,0.1-1.1,0.2-1.7,0.3l-0.9,0.2c2.4,2.1,5.7,2.7,9,1.8c1.7-0.5,3.2-1.3,4.4-2.4c1.3-1,2.2-2.4,2.8-3.9
	c-2-2.6-5.2-4.3-8.9-3.5c-3.5,0.7-6.4,3.7-7.5,7.1c0.4,0,0.8,0,1.2-0.1c0.5,0,1.1-0.1,1.6-0.2c0.5-0.1,1.1-0.1,1.6-0.2
	c1-0.2,1.9-0.4,2.8-0.6c0.4-0.1,0.8-0.2,1.1-0.3C38.2,56.9,38.5,56.8,38.7,56.8c0.2-0.2,0.4-0.2,0.5-0.3c0.1-0.1,0.2-0.1,0.2-0.1
	s-0.1,0-0.2,0.1C39.1,56.5,39,56.6,38.7,56.8z M54.7,45.1c-1.4-2.8-4.1-5-7.8-4.9c-3.5,0.1-6.8,2.2-8.5,5.3c0.4,0.1,0.8,0.1,1.1,0.2
	c0.5,0.1,1.1,0.1,1.6,0.1c0.5,0,1,0.1,1.5,0.1c1,0,1.9,0,2.7-0.1c0.4,0,0.8-0.1,1.1-0.1c0.3-0.1,0.6-0.1,0.8-0.2
	c0.2-0.1,0.4-0.1,0.5-0.2c0.1,0,0.2-0.1,0.2-0.1s-0.1,0-0.2,0.1c-0.1,0.1-0.3,0.1-0.5,0.2c-0.2,0.1-0.5,0.2-0.8,0.2
	c-0.3,0.1-0.7,0.2-1.1,0.2c-0.8,0.1-1.8,0.2-2.8,0.3c-0.5,0-1,0-1.6,0.1c-0.5,0-1.1,0-1.6,0l-0.9-0.1c1.8,2.4,4.9,3.6,8.1,3.4
	C50.2,49.5,53,47.7,54.7,45.1z M57.7,36.6c-0.2,0-0.5,0.1-0.8,0.1c-0.3,0-0.7,0-1.1,0c-0.8,0-1.7-0.1-2.7-0.2
	c-0.5-0.1-1-0.1-1.5-0.2c-0.5-0.1-1-0.2-1.5-0.3l-0.9-0.2c1.2,2.6,3.9,4.3,7,4.7c1.6,0.2,3.2,0,4.6-0.5c1.5-0.5,2.7-1.3,3.8-2.4
	c-0.8-2.9-3-5.5-6.4-6c-3.3-0.6-6.8,0.9-8.9,3.5c0.3,0.1,0.7,0.2,1,0.4c0.5,0.2,1,0.3,1.4,0.4c0.5,0.1,1,0.2,1.4,0.3
	c0.9,0.2,1.8,0.4,2.6,0.4c0.4,0,0.7,0.1,1,0.1C57.2,36.6,57.4,36.6,57.7,36.6c0.2-0.1,0.4-0.1,0.5-0.1c0.1,0,0.2,0,0.2,0
	s-0.1,0-0.2,0C58.1,36.5,57.9,36.6,57.7,36.6z M75.5,31.9c-0.2-2.9-1.9-5.7-5-6.8c-3-1.1-6.5-0.3-9,1.7c0.3,0.2,0.6,0.4,0.9,0.5
	c0.4,0.2,0.9,0.5,1.3,0.7c0.4,0.2,0.9,0.4,1.3,0.6c0.8,0.3,1.6,0.6,2.3,0.9c0.4,0.1,0.7,0.2,1,0.3c0.3,0.1,0.5,0.1,0.8,0.1
	c0.2,0,0.4,0,0.5,0c0.1,0,0.2,0,0.2,0s-0.1,0-0.2,0c-0.1,0-0.3,0-0.5,0c-0.2,0-0.5,0-0.8-0.1c-0.3,0-0.6-0.1-1-0.2
	c-0.7-0.2-1.6-0.4-2.5-0.7c-0.4-0.1-0.9-0.3-1.4-0.5c-0.5-0.2-0.9-0.4-1.4-0.6l-0.8-0.4c0.7,2.7,2.9,4.8,5.8,5.7
	C70.1,34.1,73.1,33.6,75.5,31.9z M86.8,28.5c0.3-2.8-0.9-5.6-3.6-7.2c-1.3-0.7-2.8-1.1-4.4-1.1c-1.5,0.1-3.1,0.4-4.4,1.2
	c0.3,0.2,0.5,0.4,0.8,0.6l1.1,0.8c0.4,0.3,0.7,0.5,1.1,0.8c0.7,0.5,1.4,0.9,2.1,1.2c0.3,0.2,0.6,0.3,0.9,0.4
	c0.3,0.1,0.5,0.2,0.7,0.3c0.2,0.1,0.4,0.1,0.5,0.1c0.1,0,0.2,0,0.2,0s-0.1,0-0.2,0c-0.1,0-0.3-0.1-0.5-0.1c-0.2-0.1-0.4-0.1-0.7-0.2
	c-0.3-0.1-0.6-0.2-0.9-0.3c-0.7-0.3-1.4-0.6-2.2-1.1c-0.4-0.2-0.8-0.5-1.2-0.7c-0.4-0.3-0.8-0.5-1.2-0.8L74.1,22
	c0.2,2.7,1.9,4.9,4.5,6.3c1.4,0.7,2.8,1,4.2,1.1c0.7,0,1.4-0.1,2.1-0.2C85.5,29,86.1,28.8,86.8,28.5z M73.2,179.2
	c-0.5,0.3-1.1,0.5-1.6,0.8c-1.1,0.4-2.1,0.8-3.1,1c-0.5,0.1-0.9,0.2-1.3,0.2c-0.4,0-0.8,0.1-1.1,0.1c-0.3,0-0.5,0-0.7,0
	c-0.2,0-0.2,0-0.2,0s0.1,0,0.2,0c0.2,0,0.4,0,0.7,0c0.3,0,0.6-0.1,1-0.1c0.4-0.1,0.8-0.2,1.3-0.3c0.9-0.3,1.9-0.7,2.9-1.2
	c0.5-0.3,1-0.5,1.5-0.8c0.5-0.3,1-0.6,1.4-1c0.3-0.3,0.6-0.5,1-0.8c-1.8-0.8-3.7-1.5-5.6-1.7c-1.9-0.3-3.9-0.2-5.8,0.3
	c-3.9,1-6.6,3.6-6.9,7c3.7,2.7,8.9,3.8,13,2.5c3.9-1.3,5.8-4.2,5.8-7.4c-0.3,0.2-0.5,0.4-0.8,0.6C74.2,178.6,73.7,178.9,73.2,179.2z
	 M60,171.4c-0.3,0.1-0.6,0.3-0.9,0.4c-0.5,0.2-1.1,0.4-1.7,0.6c-0.6,0.2-1.1,0.3-1.7,0.4c-1.1,0.2-2.2,0.3-3.1,0.4
	c-0.5,0-0.9,0-1.3,0c-0.4,0-0.7-0.1-1-0.1c-0.3-0.1-0.5-0.1-0.7-0.1c-0.2,0-0.2-0.1-0.2-0.1s0.1,0,0.2,0c0.2,0,0.4,0.1,0.7,0.1
	c0.3,0,0.6,0.1,1,0.1c0.4,0,0.8,0,1.3-0.1c0.9-0.1,2-0.3,3-0.6c0.5-0.1,1-0.3,1.6-0.5c0.5-0.2,1-0.4,1.5-0.7
	c0.4-0.2,0.7-0.4,1.1-0.6c-1.5-1.1-3.2-2.1-5-2.7c-1.8-0.7-3.7-0.9-5.6-0.8c-3.9,0.2-7,2.2-7.9,5.4c3.1,3.3,7.8,5.3,11.9,4.8
	C57,176.9,59.4,174.4,60,171.4z M46.3,162.4l-0.9,0.2c-0.6,0.1-1.1,0.2-1.7,0.2c-0.6,0.1-1.1,0.1-1.7,0.1c-1.1,0-2.1-0.1-3.1-0.2
	c-0.5-0.1-0.9-0.2-1.3-0.3c-0.4-0.1-0.7-0.2-1-0.3c-0.3-0.1-0.5-0.2-0.6-0.3c-0.1-0.1-0.2-0.1-0.2-0.1s0.1,0,0.2,0.1
	c0.1,0.1,0.3,0.1,0.6,0.2c0.3,0.1,0.6,0.2,0.9,0.2c0.4,0.1,0.8,0.1,1.2,0.2c0.9,0.1,1.9,0.1,3,0c0.5,0,1.1-0.1,1.6-0.2
	c0.5-0.1,1.1-0.2,1.6-0.4c0.4-0.1,0.8-0.2,1.1-0.3c-1.3-1.4-2.7-2.6-4.3-3.5c-1.6-0.9-3.4-1.5-5.2-1.8c-3.8-0.5-7.1,0.9-8.5,3.7
	c2.3,3.7,6.4,6.5,10.4,6.8C42.4,167.1,45.2,165.2,46.3,162.4z M34.9,151.3l-0.9,0c-0.5,0-1.1,0-1.7-0.1c-0.5,0-1.1-0.1-1.6-0.2
	c-1-0.2-2-0.5-2.9-0.8c-0.4-0.2-0.8-0.3-1.2-0.5c-0.3-0.2-0.6-0.3-0.9-0.5c-0.2-0.1-0.4-0.3-0.5-0.4c-0.1-0.1-0.2-0.1-0.2-0.1
	s0.1,0,0.2,0.1c0.1,0.1,0.3,0.2,0.5,0.3c0.2,0.1,0.5,0.3,0.9,0.4c0.3,0.1,0.7,0.3,1.1,0.4c0.8,0.2,1.8,0.4,2.8,0.5
	c0.5,0.1,1,0.1,1.6,0.1c0.5,0,1.1,0,1.6-0.1c0.4,0,0.8-0.1,1.1-0.1c-1.9-3.1-4.7-5.6-8.2-6.8c-3.5-1.2-6.9-0.4-8.8,2.1
	c1.5,4,5,7.3,8.8,8.3C30.4,155.1,33.3,153.7,34.9,151.3z M26,138.6l-0.9-0.1c-0.5-0.1-1-0.2-1.6-0.4c-0.5-0.1-1-0.3-1.5-0.5
	c-1-0.3-1.9-0.8-2.6-1.3c-0.4-0.2-0.7-0.4-1-0.7c-0.3-0.2-0.6-0.4-0.8-0.6c-0.2-0.2-0.4-0.3-0.5-0.4c-0.1-0.1-0.2-0.2-0.2-0.2
	s0.1,0.1,0.2,0.1c0.1,0.1,0.3,0.2,0.5,0.4c0.2,0.2,0.5,0.3,0.8,0.5c0.3,0.2,0.6,0.4,1,0.6c0.8,0.4,1.6,0.7,2.6,1
	c0.5,0.1,1,0.3,1.5,0.3c0.5,0.1,1,0.2,1.5,0.2c0.4,0,0.7,0.1,1.1,0.1c-0.3-0.8-0.7-1.6-1.1-2.4c-0.4-0.8-0.9-1.5-1.5-2.2
	c-1.2-1.3-2.4-2.5-4-3.3c-3.2-1.7-6.5-1.6-8.8,0.4c0.3,2,1.3,4,2.4,5.7c1.2,1.7,2.8,3,4.5,3.8C21,141.4,24,140.6,26,138.6z
	 M19.7,124.9c-0.3-0.1-0.6-0.2-0.8-0.3c-0.5-0.2-1-0.4-1.4-0.6c-0.5-0.2-0.9-0.5-1.4-0.7c-0.9-0.5-1.7-1.1-2.3-1.6
	c-0.3-0.3-0.6-0.6-0.8-0.8c-0.2-0.3-0.4-0.5-0.6-0.7c-0.2-0.2-0.3-0.4-0.4-0.5c-0.1-0.1-0.1-0.2-0.1-0.2s0,0.1,0.1,0.2
	c0.1,0.1,0.2,0.3,0.4,0.5c0.2,0.2,0.4,0.4,0.6,0.6c0.3,0.2,0.5,0.5,0.9,0.7c0.6,0.5,1.5,1,2.3,1.4c0.4,0.2,0.9,0.4,1.4,0.6
	c0.5,0.2,0.9,0.3,1.4,0.5c0.3,0.1,0.7,0.2,1,0.3c-0.5-3.4-2.3-6.5-4.9-8.7c-2.8-2.2-6-2.7-8.5-1.1c0.1,4,1.9,8.1,5,10.2
	C14.4,126.7,17.5,126.5,19.7,124.9z M16.1,110.6l-0.7-0.4c-0.4-0.3-0.9-0.5-1.3-0.8c-0.4-0.3-0.8-0.6-1.2-0.9
	c-0.7-0.6-1.4-1.3-1.9-2c-0.3-0.3-0.5-0.6-0.7-0.9c-0.2-0.3-0.4-0.5-0.5-0.8c-0.1-0.2-0.2-0.4-0.3-0.5c-0.1-0.1-0.1-0.2-0.1-0.2
	s0,0.1,0.1,0.2c0.1,0.1,0.2,0.3,0.3,0.5c0.1,0.2,0.3,0.4,0.5,0.7c0.2,0.3,0.5,0.5,0.7,0.8c0.5,0.6,1.2,1.2,2,1.7
	c0.4,0.3,0.8,0.5,1.2,0.8c0.4,0.3,0.9,0.5,1.3,0.7c0.3,0.2,0.6,0.3,1,0.4c0-3.3-1.1-6.6-3.3-9.1c-2.3-2.6-5.3-3.5-8-2.4
	c-0.7,3.8,0.5,8,3,10.5C10.7,111.4,13.6,111.8,16.1,110.6z M6.6,91.2c0.3,0.8,0.7,1.6,1.2,2.3c1.9,2.7,4.7,3.5,7.2,2.8l-0.6-0.5
	c-0.4-0.3-0.7-0.7-1.1-1c-0.3-0.3-0.7-0.7-1-1.1c-0.6-0.7-1.1-1.5-1.5-2.2c-0.2-0.3-0.4-0.7-0.5-1c-0.1-0.3-0.2-0.6-0.3-0.8
	c-0.1-0.2-0.1-0.4-0.2-0.5c0-0.1-0.1-0.2-0.1-0.2s0,0.1,0.1,0.2c0,0.1,0.1,0.3,0.2,0.5c0.1,0.2,0.2,0.5,0.4,0.8
	c0.2,0.3,0.3,0.6,0.5,0.9c0.4,0.6,1,1.3,1.6,2c0.3,0.3,0.7,0.6,1,1c0.4,0.3,0.7,0.6,1.1,0.9c0.3,0.2,0.5,0.4,0.8,0.6
	c0.3-1.6,0.3-3.2,0-4.8c-0.2-1.6-0.8-3.1-1.7-4.5c-1.7-2.8-4.5-4.2-7.3-3.6C6,84.8,5.8,86.7,6,88.6C6.1,89.5,6.3,90.4,6.6,91.2z
	 M16.3,82.6L15.8,82c-0.3-0.4-0.6-0.7-0.9-1.1c-0.3-0.4-0.5-0.8-0.8-1.2c-0.5-0.8-0.9-1.6-1.1-2.3c-0.1-0.4-0.2-0.7-0.3-1
	c-0.1-0.3-0.1-0.6-0.2-0.8c0-0.2-0.1-0.4-0.1-0.5c0-0.1,0-0.2,0-0.2s0,0.1,0,0.2c0,0.1,0.1,0.3,0.1,0.5c0.1,0.2,0.1,0.5,0.2,0.8
	c0.1,0.3,0.2,0.6,0.4,1c0.3,0.7,0.7,1.4,1.2,2.2c0.3,0.4,0.5,0.7,0.8,1.1c0.3,0.4,0.6,0.7,0.9,1c0.2,0.2,0.5,0.5,0.7,0.7
	c1-2.9,1.1-6.2-0.1-9.1c-1.3-3-3.7-4.7-6.4-4.6c-1.7,3.2-2,7.2-0.5,10.3C11.3,81.6,13.8,82.8,16.3,82.6z M19.7,69.5l-0.4-0.7
	c-0.2-0.4-0.5-0.8-0.7-1.2c-0.2-0.4-0.4-0.8-0.6-1.3c-0.3-0.8-0.5-1.6-0.7-2.4c-0.1-0.4-0.1-0.7-0.2-1c0-0.3-0.1-0.6-0.1-0.8
	c0-0.2,0-0.4,0-0.5c0-0.1,0-0.2,0-0.2s0,0.1,0,0.2c0,0.1,0,0.3,0,0.5c0,0.2,0.1,0.5,0.1,0.8c0.1,0.3,0.1,0.6,0.2,1
	c0.2,0.7,0.5,1.5,0.8,2.2c0.2,0.4,0.4,0.8,0.6,1.2c0.2,0.4,0.5,0.8,0.7,1.1c0.2,0.3,0.4,0.5,0.6,0.8c0.7-1.3,1.2-2.8,1.5-4.2
	c0.2-1.5,0.2-3-0.2-4.5c-0.8-3.1-2.8-5.1-5.4-5.4c-1.1,1.4-1.8,3-2.2,4.7c-0.4,1.7-0.3,3.4,0.1,5C15.1,67.8,17.3,69.4,19.7,69.5z
	 M25,57.6l-0.3-0.7c-0.2-0.4-0.3-0.8-0.5-1.3c-0.1-0.4-0.2-0.8-0.3-1.3c-0.2-0.8-0.3-1.7-0.3-2.4c0-0.4,0-0.7,0-1
	c0-0.3,0-0.6,0.1-0.8c0-0.2,0.1-0.4,0.1-0.5c0-0.1,0-0.2,0-0.2s0,0.1,0,0.2c0,0.1,0,0.3-0.1,0.5c0,0.2,0,0.5,0,0.8
	c0,0.3,0,0.6,0.1,1c0.1,0.7,0.2,1.5,0.5,2.3c0.1,0.4,0.3,0.8,0.4,1.2c0.1,0.4,0.3,0.8,0.5,1.2c0.1,0.3,0.3,0.6,0.4,0.8
	c0.9-1.2,1.6-2.4,2-3.8c0.4-1.4,0.7-2.8,0.5-4.3c-0.3-3-1.9-5.3-4.4-6c-2.4,2.3-3.8,5.8-3.4,8.9C20.8,55.2,22.7,57.1,25,57.6z
	 M31.9,46.9l-0.2-0.7c-0.1-0.4-0.2-0.8-0.2-1.3c-0.1-0.4-0.1-0.8-0.1-1.3c-0.1-0.8,0-1.6,0-2.3c0-0.3,0.1-0.7,0.1-1
	c0.1-0.3,0.1-0.5,0.2-0.7c0.1-0.2,0.1-0.4,0.2-0.5c0-0.1,0.1-0.2,0.1-0.2s0,0.1-0.1,0.2c0,0.1-0.1,0.3-0.1,0.5
	c0,0.2-0.1,0.4-0.1,0.7c0,0.3-0.1,0.6-0.1,0.9c0,0.7,0,1.5,0.1,2.3c0.1,0.4,0.1,0.8,0.2,1.2c0.1,0.4,0.2,0.8,0.3,1.2
	c0.1,0.3,0.2,0.6,0.3,0.8c1-0.9,1.9-2.1,2.5-3.3c0.7-1.2,1-2.6,1.1-4c0.2-2.9-1.1-5.3-3.3-6.3c-0.7,0.5-1.3,1-1.8,1.6
	c-0.5,0.6-1,1.3-1.4,2c-0.8,1.4-1.3,2.9-1.3,4.5C28.2,44,29.8,46.1,31.9,46.9z M40,37.7c0-0.2-0.1-0.5-0.1-0.7c0-0.4,0-0.8,0-1.2
	c0-0.4,0-0.8,0.1-1.2c0.1-0.8,0.2-1.6,0.4-2.2c0.1-0.3,0.2-0.6,0.3-0.9c0.1-0.3,0.2-0.5,0.3-0.7c0.1-0.2,0.2-0.3,0.2-0.4
	c0.1-0.1,0.1-0.1,0.1-0.1s0,0.1-0.1,0.2c0,0.1-0.1,0.2-0.2,0.4c-0.1,0.2-0.2,0.4-0.2,0.7c-0.1,0.3-0.2,0.5-0.2,0.9
	c-0.1,0.6-0.2,1.4-0.2,2.2c0,0.4,0,0.8,0,1.2c0,0.4,0.1,0.8,0.1,1.2c0,0.3,0.1,0.6,0.2,0.8c1.1-0.7,2.1-1.7,2.9-2.8
	c0.8-1.1,1.4-2.3,1.6-3.7c0.6-2.7-0.3-5.2-2.3-6.5c-0.7,0.3-1.4,0.8-2,1.3c-0.6,0.5-1.1,1.1-1.6,1.7c-0.5,0.6-0.9,1.3-1.2,1.9
	c-0.3,0.7-0.5,1.4-0.6,2.1C36.9,34.4,38.1,36.6,40,37.7z M49.1,30c0-0.2,0-0.4,0-0.7c0-0.4,0.1-0.8,0.1-1.2c0.1-0.4,0.1-0.8,0.2-1.2
	c0.2-0.8,0.4-1.5,0.6-2.1c0.1-0.3,0.3-0.6,0.4-0.8c0.1-0.2,0.3-0.4,0.4-0.6c0.1-0.2,0.2-0.3,0.3-0.4c0.1-0.1,0.1-0.1,0.1-0.1
	s0,0-0.1,0.1c-0.1,0.1-0.1,0.2-0.2,0.4c-0.1,0.2-0.2,0.4-0.3,0.6c-0.1,0.2-0.2,0.5-0.3,0.8c-0.2,0.6-0.4,1.3-0.5,2
	c-0.1,0.4-0.1,0.8-0.1,1.1c0,0.4,0,0.8,0,1.2c0,0.3,0,0.6,0,0.8c1.2-0.6,2.2-1.4,3.1-2.3c0.9-0.9,1.6-2,2-3.3c0.9-2.5,0.4-5-1.3-6.5
	c-0.7,0.2-1.4,0.5-2,0.9c-0.6,0.4-1.2,0.9-1.8,1.4c-1.1,1-1.9,2.3-2.3,3.6C46.6,26.4,47.5,28.7,49.1,30z M59.1,23.4
	c0.1-0.4,0.2-0.7,0.3-1.1c0.1-0.4,0.2-0.7,0.4-1.1c0.3-0.7,0.6-1.3,0.9-1.9c0.2-0.3,0.3-0.5,0.5-0.7c0.1-0.2,0.3-0.4,0.4-0.5
	c0.1-0.1,0.2-0.2,0.3-0.3c0.1-0.1,0.1-0.1,0.1-0.1s0,0-0.1,0.1c-0.1,0.1-0.2,0.2-0.3,0.3c-0.1,0.1-0.2,0.3-0.4,0.5
	c-0.1,0.2-0.3,0.5-0.4,0.7c-0.3,0.5-0.5,1.2-0.7,1.9c-0.1,0.3-0.2,0.7-0.3,1.1c-0.1,0.4-0.1,0.7-0.2,1.1c0,0.3-0.1,0.5-0.1,0.8
	c1.2-0.4,2.3-1,3.3-1.8c1-0.8,1.8-1.7,2.4-2.9c1.2-2.3,1.1-4.7-0.4-6.4c-2.8,0.5-5.5,2.4-6.6,4.8C57,20.2,57.5,22.5,59,24L59.1,23.4
	z M69.3,18.8c0.1-0.4,0.3-0.7,0.4-1.1c0.1-0.3,0.3-0.7,0.5-1c0.3-0.6,0.7-1.2,1.1-1.7c0.2-0.2,0.4-0.4,0.5-0.6
	c0.2-0.2,0.3-0.3,0.5-0.5c0.1-0.1,0.2-0.2,0.3-0.3c0.1-0.1,0.1-0.1,0.1-0.1s0,0-0.1,0.1c-0.1,0.1-0.2,0.2-0.3,0.3
	c-0.1,0.1-0.3,0.3-0.4,0.5c-0.2,0.2-0.3,0.4-0.5,0.6c-0.3,0.5-0.7,1.1-0.9,1.7c-0.1,0.3-0.3,0.6-0.4,1c-0.1,0.3-0.2,0.7-0.3,1
	c-0.1,0.3-0.1,0.5-0.2,0.8c2.4-0.4,4.6-1.7,6-3.7c1.4-2.1,1.6-4.4,0.4-6.2c-1.4,0.1-2.7,0.5-4,1.1c-1.2,0.7-2.2,1.6-3,2.7
	c-1.3,2.1-1.2,4.3,0,5.9L69.3,18.8z M79.7,16c0.2-0.3,0.3-0.6,0.5-0.9c0.2-0.3,0.4-0.6,0.6-0.9c0.4-0.6,0.8-1.1,1.3-1.5
	c0.2-0.2,0.4-0.4,0.6-0.5c0.2-0.1,0.4-0.3,0.5-0.4c0.1-0.1,0.3-0.2,0.3-0.2c0.1,0,0.1-0.1,0.1-0.1s0,0-0.1,0.1
	c-0.1,0.1-0.2,0.1-0.3,0.2c-0.1,0.1-0.3,0.2-0.5,0.4c-0.2,0.2-0.4,0.3-0.5,0.5c-0.4,0.4-0.8,0.9-1.1,1.5c-0.2,0.3-0.3,0.6-0.5,0.9
	c-0.2,0.3-0.3,0.6-0.4,0.9c-0.1,0.2-0.2,0.5-0.3,0.7c2.3-0.1,4.6-1,6.2-2.8c1.6-1.8,2.1-4,1.1-5.9c-2.6-0.2-5.4,0.8-7,2.7
	c-1.5,1.8-1.7,4-0.8,5.7L79.7,16z M122.7,161.5c-0.2,0.2-0.4,0.6-0.7,0.9c-0.3,0.3-0.5,0.8-0.8,1.2c-0.6,0.9-1.2,2-1.7,3.2
	c-0.3,0.6-0.6,1.2-0.9,1.9c-0.3,0.6-0.6,1.3-0.8,2c-0.2,0.5-0.4,1-0.5,1.5c4.8,0,9.6-2.7,11.6-6.9c1.1-2.2,1.4-4.5,1-6.6
	c-0.4-2.1-1.3-4.1-2.6-5.8c-4,0.6-7.5,2.8-9.8,6.8c-2.2,3.7-2.8,8.1-1.1,11.9l0.5-1.1c0.3-0.7,0.7-1.3,1-2c0.3-0.6,0.7-1.3,1-1.8
	c0.7-1.2,1.4-2.3,2-3.1c0.3-0.4,0.6-0.8,0.9-1.2C122.2,162,122.5,161.7,122.7,161.5c0.2-0.3,0.3-0.5,0.5-0.6
	c0.1-0.1,0.2-0.2,0.2-0.2s-0.1,0.1-0.2,0.2C123.1,161.1,122.9,161.3,122.7,161.5z M138.8,154.3c-0.1,0.3-0.3,0.6-0.4,1
	c-0.1,0.4-0.3,0.9-0.5,1.3c-0.3,1-0.6,2.2-0.8,3.5c-0.1,0.6-0.2,1.3-0.3,2c-0.1,0.7-0.2,1.4-0.3,2.1c0,0.5-0.1,1-0.1,1.5
	c4.5-1.2,8.3-4.9,9.2-9.4c1-4.7-1.2-8.8-4.5-11.3c-3.6,1.5-6.4,4.6-7.6,8.8c-1.2,4-0.6,8.4,1.9,11.4l0.2-1.2
	c0.1-0.7,0.3-1.4,0.5-2.1c0.2-0.7,0.3-1.3,0.5-2c0.3-1.3,0.7-2.5,1.1-3.5c0.2-0.5,0.4-0.9,0.6-1.3
	C138.4,154.9,138.6,154.6,138.8,154.3c0.1-0.3,0.2-0.5,0.3-0.6c0.1-0.1,0.1-0.2,0.1-0.2s0,0.1-0.1,0.2
	C139,153.8,138.9,154,138.8,154.3z M152.2,143.6c-0.1,0.3-0.1,0.6-0.2,1.1c0,0.4-0.1,0.9-0.1,1.4c-0.1,1-0.1,2.2,0,3.4
	c0,0.6,0.1,1.3,0.2,2c0.1,0.7,0.1,1.3,0.2,2c0.1,0.5,0.2,1,0.2,1.5c3.9-2.2,6.6-6.6,6.5-11c-0.2-4.7-3.2-8-6.9-9.6
	c-3.1,2.3-5,5.9-5.1,10.2c-0.1,4.1,1.5,8,4.6,10.3l-0.1-1.2c0-0.7,0-1.4-0.1-2.1c0-0.7,0-1.4,0-2c0-1.3,0.1-2.5,0.3-3.5
	c0.1-0.5,0.1-1,0.2-1.4C152,144.2,152.1,143.9,152.2,143.6c0-0.3,0.1-0.5,0.1-0.7c0.1-0.1,0.1-0.2,0.1-0.2s0,0.1-0.1,0.2
	C152.3,143.1,152.3,143.3,152.2,143.6z M162.4,130.3c0,0.3,0,0.6,0.1,1c0.1,0.4,0.1,0.8,0.2,1.3c0.2,1,0.4,2.1,0.8,3.2
	c0.2,0.6,0.4,1.2,0.6,1.8c0.2,0.6,0.4,1.2,0.7,1.8c0.2,0.4,0.4,0.9,0.5,1.3c3.1-3,4.7-7.7,3.5-11.8c-1.2-4.3-4.8-6.8-8.7-7.4
	c-2.4,2.9-3.3,6.7-2.5,10.8c0.8,3.9,3.2,7.2,6.7,8.6l-0.3-1.1c-0.2-0.6-0.4-1.3-0.5-1.9c-0.2-0.6-0.3-1.3-0.5-1.9
	c-0.3-1.2-0.5-2.4-0.6-3.4c-0.1-0.5-0.1-1-0.1-1.4C162.3,130.9,162.3,130.6,162.4,130.3c-0.1-0.3,0-0.5,0-0.7c0-0.2,0-0.2,0-0.2
	s0,0.1,0,0.2C162.4,129.8,162.4,130,162.4,130.3z M169,115.4c0.1,0.3,0.2,0.6,0.3,0.9c0.1,0.4,0.3,0.8,0.5,1.2
	c0.4,0.9,0.9,1.8,1.5,2.9c0.3,0.5,0.6,1,1,1.6c0.3,0.5,0.7,1,1,1.6c0.3,0.4,0.5,0.7,0.8,1.1c1.2-1.8,1.8-3.9,2-5.9
	c0.1-2.1-0.3-4.2-1.3-6c-1-1.9-2.6-3.2-4.3-4.1c-1.7-0.8-3.6-1.1-5.5-1c-1.6,3.3-1.7,7.1,0,10.8c1.6,3.5,4.7,6,8.2,6.6l-0.6-0.9
	c-0.3-0.6-0.6-1.1-0.9-1.7c-0.3-0.6-0.6-1.1-0.8-1.7c-0.5-1.1-1-2.1-1.3-3c-0.1-0.5-0.3-0.9-0.4-1.2C169.1,116,169,115.7,169,115.4
	c-0.1-0.3-0.2-0.5-0.2-0.6c0-0.1,0-0.2,0-0.2s0,0.1,0,0.2C168.9,114.9,169,115.1,169,115.4z M172,99.8c0.1,0.2,0.3,0.5,0.5,0.8
	c0.2,0.3,0.4,0.7,0.7,1c0.6,0.7,1.3,1.6,2.1,2.4c0.4,0.4,0.8,0.8,1.2,1.3c0.4,0.4,0.9,0.8,1.3,1.2c0.3,0.3,0.7,0.6,1,0.9
	c1.4-3.8,0.6-8.4-2-11.4c-2.8-3.1-6.8-3.8-10.3-2.7c-0.8,3.5-0.1,7.1,2.4,10.2c2.3,2.9,5.7,4.7,9.2,4.4l-0.7-0.8
	c-0.4-0.5-0.9-0.9-1.3-1.4c-0.4-0.5-0.8-0.9-1.2-1.4c-0.7-0.9-1.4-1.8-1.9-2.6c-0.3-0.4-0.5-0.8-0.7-1.1
	C172.2,100.3,172,100,172,99.8c-0.2-0.2-0.2-0.4-0.3-0.5c-0.1-0.1-0.1-0.2-0.1-0.2s0,0.1,0.1,0.2C171.8,99.3,171.9,99.5,172,99.8z
	 M178.8,84.2c-0.8-1.8-1.9-3.4-3.5-4.5c-3.3-2.4-7.2-2.1-10.3-0.4c-0.1,3.4,1.4,6.8,4.4,9.2c2.8,2.3,6.4,3.2,9.6,2.2l-0.9-0.6
	c-0.5-0.3-1-0.7-1.5-1c-0.5-0.4-0.9-0.7-1.4-1.1c-0.9-0.7-1.7-1.4-2.3-2c-0.3-0.3-0.6-0.6-0.8-0.9c-0.2-0.3-0.5-0.5-0.6-0.7
	c-0.2-0.2-0.3-0.4-0.4-0.5c-0.1-0.1-0.1-0.2-0.1-0.2s0,0.1,0.1,0.2c0.1,0.1,0.2,0.3,0.4,0.5c0.2,0.2,0.4,0.4,0.7,0.7
	c0.3,0.3,0.5,0.5,0.9,0.8c0.7,0.6,1.5,1.2,2.4,1.8c0.5,0.3,1,0.6,1.4,0.9c0.5,0.3,1,0.6,1.5,0.9c0.4,0.2,0.8,0.4,1.1,0.6
	C179.8,88.1,179.5,86,178.8,84.2z M170.4,64.6c-1.8-0.8-3.6-0.9-5.3-0.6c-1.7,0.3-3.2,1.2-4.5,2.3c0.6,3.3,2.8,6.1,6,7.8
	c1.6,0.8,3.2,1.2,4.8,1.2c1.6,0,3.2-0.3,4.6-1.1l-0.9-0.4c-0.5-0.2-1.1-0.5-1.6-0.7c-0.5-0.2-1.1-0.5-1.6-0.7c-1-0.5-1.9-1-2.6-1.5
	c-0.4-0.2-0.7-0.5-1-0.7c-0.3-0.2-0.5-0.4-0.7-0.6c-0.2-0.2-0.3-0.3-0.4-0.4c-0.1-0.1-0.1-0.1-0.1-0.1s0.1,0,0.2,0.1
	c0.1,0.1,0.3,0.2,0.5,0.4c0.2,0.1,0.5,0.3,0.8,0.5c0.3,0.2,0.6,0.4,1,0.6c0.7,0.4,1.6,0.8,2.6,1.2c0.5,0.2,1,0.4,1.6,0.6
	c0.5,0.2,1.1,0.3,1.6,0.5c0.4,0.1,0.8,0.2,1.2,0.3C176.1,69.7,173.9,66.1,170.4,64.6z M161.3,56.7c0.2,0.1,0.5,0.2,0.8,0.3
	c0.3,0.1,0.7,0.2,1.1,0.3c0.8,0.2,1.7,0.4,2.8,0.6c0.5,0.1,1,0.2,1.6,0.2c0.5,0.1,1.1,0.1,1.6,0.2c0.4,0,0.8,0,1.2,0.1
	c-1.1-3.5-4-6.4-7.5-7.1c-3.7-0.8-7,0.9-8.9,3.5c0.7,1.5,1.6,2.8,2.8,3.9c1.2,1.1,2.7,1.9,4.4,2.4c3.3,0.9,6.6,0.3,9-1.8l-0.9-0.2
	c-0.6-0.1-1.1-0.2-1.7-0.3c-0.5-0.1-1.1-0.2-1.6-0.4c-1-0.3-1.9-0.6-2.7-0.9c-0.4-0.1-0.8-0.3-1.1-0.4
	C161.7,57,161.5,56.9,161.3,56.7c-0.2-0.1-0.4-0.2-0.5-0.2c-0.1-0.1-0.2-0.1-0.2-0.1s0.1,0,0.2,0.1
	C160.9,56.5,161.1,56.6,161.3,56.7z M153,40.2c-3.6-0.1-6.4,2.1-7.8,4.9c1.8,2.6,4.6,4.3,8,4.6c3.2,0.2,6.3-1,8.1-3.4l-0.9,0.1
	c-0.5,0-1.1,0-1.6,0c-0.5,0-1.1,0-1.6-0.1c-1-0.1-2-0.2-2.8-0.3c-0.4-0.1-0.8-0.1-1.1-0.2c-0.3-0.1-0.6-0.2-0.8-0.2
	c-0.2-0.1-0.4-0.1-0.5-0.2c-0.1-0.1-0.2-0.1-0.2-0.1s0.1,0,0.2,0.1c0.1,0,0.3,0.1,0.5,0.2c0.2,0.1,0.5,0.1,0.8,0.2
	c0.3,0.1,0.7,0.1,1.1,0.1c0.8,0.1,1.8,0.1,2.7,0.1c0.5,0,1,0,1.5-0.1c0.5,0,1-0.1,1.6-0.1c0.4-0.1,0.8-0.1,1.1-0.2
	C159.8,42.4,156.5,40.3,153,40.2z M142.3,36.5c0.2,0,0.5,0,0.8,0c0.3,0,0.7,0,1-0.1c0.8-0.1,1.7-0.2,2.6-0.4
	c0.5-0.1,0.9-0.2,1.4-0.3c0.5-0.1,1-0.3,1.4-0.4c0.4-0.1,0.7-0.2,1-0.4c-2.2-2.6-5.7-4-8.9-3.5c-3.4,0.6-5.7,3.1-6.4,6
	c1.1,1,2.3,1.9,3.8,2.4c1.4,0.5,3,0.7,4.6,0.5c3.1-0.3,5.8-2.1,7-4.7l-0.9,0.2c-0.5,0.1-1,0.2-1.5,0.3c-0.5,0.1-1,0.2-1.5,0.2
	c-1,0.1-1.9,0.2-2.7,0.2c-0.4,0-0.7,0-1.1,0C142.8,36.7,142.6,36.6,142.3,36.5c-0.2,0-0.4,0-0.5,0c-0.1,0-0.2,0-0.2,0s0.1,0,0.2,0
	C141.9,36.5,142.1,36.5,142.3,36.5z M131,29.9c0.2,0,0.5-0.1,0.8-0.1c0.3-0.1,0.6-0.1,1-0.3c0.7-0.2,1.5-0.5,2.3-0.9
	c0.4-0.2,0.8-0.4,1.3-0.6c0.4-0.2,0.9-0.4,1.3-0.7c0.3-0.2,0.6-0.4,0.9-0.5c-2.5-2-6-2.8-9-1.7c-3.1,1.1-4.8,3.9-5,6.8
	c2.4,1.7,5.5,2.2,8.5,1.3c2.9-0.9,5.1-3,5.8-5.7l-0.8,0.4c-0.5,0.2-0.9,0.4-1.4,0.6c-0.5,0.2-0.9,0.3-1.4,0.5
	c-0.9,0.3-1.7,0.5-2.5,0.7c-0.4,0.1-0.7,0.1-1,0.2C131.4,29.9,131.2,29.9,131,29.9c-0.2,0.1-0.4,0.1-0.5,0.1c-0.1,0-0.2,0-0.2,0
	s0.1,0,0.2,0C130.6,29.9,130.7,29.9,131,29.9z M119,25.5c0.2-0.1,0.4-0.2,0.7-0.3c0.3-0.1,0.6-0.2,0.9-0.4c0.6-0.3,1.3-0.7,2.1-1.2
	c0.4-0.2,0.7-0.5,1.1-0.8l1.1-0.8c0.3-0.2,0.5-0.4,0.8-0.6c-1.3-0.8-2.9-1.1-4.4-1.2c-1.5,0-3.1,0.4-4.4,1.1
	c-2.8,1.6-3.9,4.5-3.6,7.2c0.6,0.3,1.3,0.5,2,0.6c0.7,0.1,1.4,0.2,2.1,0.2c1.4-0.1,2.8-0.4,4.2-1.1c2.6-1.4,4.2-3.6,4.5-6.3
	l-0.7,0.5c-0.4,0.3-0.8,0.5-1.2,0.8c-0.4,0.3-0.8,0.5-1.2,0.7c-0.8,0.4-1.5,0.8-2.2,1.1c-0.3,0.1-0.6,0.2-0.9,0.3
	C119.5,25.4,119.2,25.5,119,25.5c-0.2,0.1-0.3,0.1-0.5,0.1c-0.1,0-0.2,0-0.2,0s0.1,0,0.2,0C118.6,25.6,118.8,25.5,119,25.5z
	 M136.3,175.6c-1.9-0.5-3.9-0.6-5.8-0.3c-2,0.2-3.8,0.9-5.6,1.7c0.3,0.3,0.6,0.5,1,0.8c0.5,0.3,0.9,0.7,1.4,1c0.5,0.3,1,0.6,1.5,0.8
	c1,0.5,2,0.9,2.9,1.2c0.5,0.1,0.9,0.2,1.3,0.3c0.4,0.1,0.7,0.1,1,0.1c0.3,0,0.5,0,0.7,0c0.2,0,0.2,0,0.2,0s-0.1,0-0.2,0
	c-0.2,0-0.4,0-0.7,0c-0.3,0-0.7,0-1.1-0.1c-0.4-0.1-0.9-0.1-1.3-0.2c-1-0.2-2-0.5-3.1-1c-0.5-0.2-1.1-0.5-1.6-0.8
	c-0.5-0.3-1-0.6-1.5-0.9c-0.3-0.2-0.6-0.4-0.8-0.6c0,3.1,1.9,6.1,5.8,7.4c4.1,1.3,9.2,0.2,13-2.5
	C142.9,179.2,140.3,176.6,136.3,175.6z M150.9,167.1c-1.9-0.1-3.8,0.2-5.6,0.8c-1.8,0.6-3.5,1.5-5,2.7c0.3,0.2,0.7,0.4,1.1,0.6
	c0.5,0.2,1,0.5,1.5,0.7c0.5,0.2,1,0.4,1.6,0.5c1,0.3,2.1,0.5,3,0.6c0.5,0,0.9,0.1,1.3,0.1c0.4,0,0.7,0,1-0.1c0.3,0,0.5-0.1,0.7-0.1
	c0.2,0,0.2,0,0.2,0s-0.1,0-0.2,0.1c-0.2,0-0.4,0.1-0.7,0.1c-0.3,0.1-0.6,0.1-1,0.1c-0.4,0-0.8,0-1.3,0c-1,0-2-0.1-3.1-0.4
	c-0.5-0.1-1.1-0.2-1.7-0.4c-0.6-0.2-1.1-0.4-1.7-0.6c-0.3-0.1-0.6-0.2-0.9-0.4c0.6,3,3,5.5,6.9,5.9c4.1,0.5,8.8-1.5,11.9-4.8
	C157.9,169.3,154.9,167.3,150.9,167.1z M163.3,156.3c-1.8,0.3-3.6,0.9-5.2,1.8c-1.6,0.9-3.1,2.1-4.3,3.5c0.4,0.1,0.7,0.2,1.1,0.3
	c0.5,0.1,1.1,0.3,1.6,0.4c0.5,0.1,1.1,0.2,1.6,0.2c1,0.1,2.1,0.1,3,0c0.4,0,0.9-0.1,1.2-0.2c0.4-0.1,0.7-0.2,0.9-0.2
	c0.3-0.1,0.5-0.2,0.6-0.2c0.1-0.1,0.2-0.1,0.2-0.1s-0.1,0-0.2,0.1c-0.1,0.1-0.3,0.2-0.6,0.3c-0.3,0.1-0.6,0.2-1,0.3
	c-0.4,0.1-0.8,0.2-1.3,0.3c-0.9,0.2-2,0.2-3.1,0.2c-0.5,0-1.1,0-1.7-0.1c-0.6-0.1-1.1-0.1-1.7-0.2l-0.9-0.2c1.2,2.7,3.9,4.7,7.7,4.4
	c4-0.3,8.1-3.1,10.4-6.8C170.4,157.2,167.1,155.8,163.3,156.3z M173.2,143.8c-3.5,1.1-6.3,3.7-8.2,6.8c0.4,0.1,0.7,0.1,1.1,0.1
	c0.5,0,1.1,0.1,1.6,0.1c0.5,0,1.1,0,1.6-0.1c1-0.1,2-0.3,2.8-0.5c0.4-0.1,0.8-0.3,1.1-0.4c0.3-0.1,0.6-0.3,0.9-0.4
	c0.2-0.1,0.4-0.2,0.5-0.3c0.1-0.1,0.2-0.1,0.2-0.1s-0.1,0-0.2,0.1c-0.1,0.1-0.3,0.2-0.5,0.4c-0.2,0.1-0.5,0.3-0.9,0.5
	c-0.3,0.2-0.7,0.3-1.2,0.5c-0.8,0.3-1.8,0.6-2.9,0.8c-0.5,0.1-1.1,0.2-1.6,0.2c-0.6,0-1.1,0.1-1.7,0.1l-0.9,0
	c1.6,2.4,4.6,3.7,8.2,2.8c3.8-1,7.3-4.3,8.8-8.3C180.1,143.3,176.7,142.6,173.2,143.8z M180.4,130c-1.6,0.8-2.8,2-4,3.3
	c-0.6,0.7-1.1,1.4-1.5,2.2c-0.5,0.8-0.8,1.5-1.1,2.4c0.4,0,0.7,0,1.1-0.1c0.5-0.1,1-0.1,1.5-0.2c0.5-0.1,1-0.2,1.5-0.3
	c1-0.3,1.8-0.6,2.6-1c0.4-0.2,0.7-0.4,1-0.6c0.3-0.2,0.6-0.4,0.8-0.5c0.2-0.2,0.4-0.3,0.5-0.4c0.1-0.1,0.2-0.1,0.2-0.1
	s-0.1,0.1-0.2,0.2c-0.1,0.1-0.3,0.2-0.5,0.4c-0.2,0.2-0.5,0.4-0.8,0.6c-0.3,0.2-0.6,0.4-1,0.7c-0.8,0.4-1.6,0.9-2.6,1.3
	c-0.5,0.2-1,0.3-1.5,0.5c-0.5,0.1-1,0.3-1.6,0.4l-0.9,0.1c2,2,5,2.8,8.3,1.2c1.7-0.8,3.3-2.2,4.5-3.8c1.2-1.7,2.1-3.6,2.4-5.7
	C186.9,128.3,183.6,128.2,180.4,130z M184.9,115.5c-2.6,2.1-4.4,5.3-4.9,8.7c0.3-0.1,0.7-0.2,1-0.3c0.5-0.1,0.9-0.3,1.4-0.5
	c0.5-0.2,0.9-0.4,1.4-0.6c0.9-0.4,1.7-0.9,2.3-1.4c0.3-0.2,0.6-0.5,0.9-0.7c0.3-0.2,0.5-0.4,0.6-0.6c0.2-0.2,0.3-0.3,0.4-0.5
	c0.1-0.1,0.1-0.2,0.1-0.2s0,0.1-0.1,0.2c-0.1,0.1-0.2,0.3-0.4,0.5c-0.2,0.2-0.4,0.4-0.6,0.7c-0.2,0.3-0.5,0.5-0.8,0.8
	c-0.6,0.6-1.4,1.1-2.3,1.6c-0.4,0.3-0.9,0.5-1.4,0.7c-0.5,0.2-0.9,0.4-1.4,0.6c-0.3,0.1-0.5,0.2-0.8,0.3c2.3,1.6,5.3,1.8,8.2-0.3
	c3.1-2.1,4.9-6.2,5-10.2C190.9,112.9,187.7,113.3,184.9,115.5z M186.8,100.9c-2.2,2.5-3.3,5.8-3.3,9.1c0.3-0.1,0.6-0.3,1-0.4
	c0.4-0.2,0.9-0.5,1.3-0.7c0.4-0.3,0.8-0.5,1.2-0.8c0.8-0.6,1.4-1.2,2-1.7c0.3-0.3,0.5-0.6,0.7-0.8c0.2-0.3,0.4-0.5,0.5-0.7
	c0.1-0.2,0.2-0.4,0.3-0.5c0.1-0.1,0.1-0.2,0.1-0.2s0,0.1-0.1,0.2c-0.1,0.1-0.1,0.3-0.3,0.5c-0.1,0.2-0.3,0.5-0.5,0.8
	c-0.2,0.3-0.4,0.6-0.7,0.9c-0.5,0.6-1.2,1.3-1.9,2c-0.4,0.3-0.8,0.6-1.2,0.9c-0.4,0.3-0.8,0.6-1.3,0.8l-0.7,0.4
	c2.4,1.1,5.4,0.8,7.8-1.6c2.5-2.5,3.7-6.8,3-10.5C192,97.4,189.1,98.4,186.8,100.9z M186.1,86.6c-0.9,1.4-1.4,2.9-1.7,4.5
	c-0.3,1.6-0.3,3.2,0,4.8c0.3-0.2,0.6-0.4,0.8-0.6c0.4-0.3,0.7-0.6,1.1-0.9c0.4-0.3,0.7-0.6,1-1c0.6-0.7,1.2-1.3,1.6-2
	c0.2-0.3,0.4-0.6,0.5-0.9c0.1-0.3,0.3-0.5,0.4-0.8c0.1-0.2,0.2-0.4,0.2-0.5c0-0.1,0.1-0.2,0.1-0.2s0,0.1-0.1,0.2
	c0,0.1-0.1,0.3-0.2,0.5c-0.1,0.2-0.2,0.5-0.3,0.8c-0.1,0.3-0.3,0.6-0.5,1c-0.4,0.7-0.9,1.4-1.5,2.2c-0.3,0.4-0.6,0.7-1,1.1
	c-0.3,0.3-0.7,0.7-1.1,1l-0.6,0.5c2.5,0.7,5.3-0.1,7.2-2.8c0.5-0.7,0.9-1.5,1.2-2.3c0.3-0.8,0.5-1.7,0.6-2.7c0.2-1.8,0-3.8-0.6-5.5
	C190.7,82.4,187.9,83.8,186.1,86.6z M183.2,73.1c-1.2,2.9-1.1,6.2-0.1,9.1c0.2-0.2,0.5-0.4,0.7-0.7c0.3-0.3,0.6-0.7,0.9-1
	c0.3-0.4,0.6-0.7,0.8-1.1c0.5-0.7,0.9-1.5,1.2-2.2c0.2-0.3,0.3-0.7,0.4-1c0.1-0.3,0.2-0.6,0.2-0.8c0.1-0.2,0.1-0.4,0.1-0.5
	c0-0.1,0-0.2,0-0.2s0,0.1,0,0.2c0,0.1,0,0.3-0.1,0.5c0,0.2-0.1,0.5-0.2,0.8c-0.1,0.3-0.2,0.7-0.3,1c-0.2,0.7-0.6,1.5-1.1,2.3
	c-0.2,0.4-0.5,0.8-0.8,1.2c-0.3,0.4-0.6,0.8-0.9,1.1l-0.5,0.6c2.5,0.2,5-1,6.4-3.9c1.5-3,1.2-7.1-0.5-10.3
	C186.9,68.3,184.5,70.1,183.2,73.1z M178.2,65c0.2,1.5,0.8,2.9,1.5,4.2c0.2-0.2,0.4-0.5,0.6-0.8c0.3-0.4,0.5-0.7,0.7-1.1
	c0.2-0.4,0.4-0.8,0.6-1.2c0.4-0.8,0.6-1.5,0.8-2.2c0.1-0.3,0.2-0.7,0.2-1c0.1-0.3,0.1-0.6,0.1-0.8c0-0.2,0-0.4,0-0.5
	c0-0.1,0-0.2,0-0.2s0,0.1,0,0.2c0,0.1,0,0.3,0,0.5c0,0.2,0,0.5-0.1,0.8c0,0.3-0.1,0.7-0.2,1c-0.1,0.7-0.4,1.6-0.7,2.4
	c-0.2,0.4-0.4,0.8-0.6,1.3c-0.2,0.4-0.4,0.8-0.7,1.2l-0.4,0.7c2.5-0.2,4.7-1.7,5.6-4.7c0.4-1.5,0.5-3.3,0.1-5
	c-0.4-1.7-1.1-3.3-2.2-4.7c-2.7,0.3-4.6,2.3-5.4,5.4C178,62,178,63.5,178.2,65z M174.4,57.4c0.2-0.3,0.3-0.5,0.4-0.8
	c0.2-0.4,0.4-0.8,0.5-1.2c0.2-0.4,0.3-0.8,0.4-1.2c0.2-0.8,0.4-1.6,0.5-2.3c0-0.3,0.1-0.7,0.1-1c0-0.3,0-0.6,0-0.8
	c0-0.2,0-0.4-0.1-0.5c0-0.1,0-0.2,0-0.2s0,0.1,0,0.2c0,0.1,0.1,0.3,0.1,0.5c0,0.2,0.1,0.5,0.1,0.8c0,0.3,0,0.6,0,1
	c0,0.7-0.1,1.5-0.3,2.4c-0.1,0.4-0.2,0.8-0.3,1.3c-0.1,0.4-0.3,0.9-0.5,1.3l-0.3,0.7c2.3-0.5,4.2-2.4,4.6-5.3c0.4-3.1-1-6.6-3.4-8.9
	c-2.5,0.7-4.1,2.9-4.4,6c-0.2,1.5,0.1,2.9,0.5,4.3C172.7,55,173.5,56.2,174.4,57.4z M165,43.5c0.6,1.3,1.5,2.4,2.5,3.3
	c0.1-0.3,0.2-0.6,0.3-0.8c0.1-0.4,0.2-0.8,0.3-1.2c0.1-0.4,0.2-0.8,0.2-1.2c0.1-0.8,0.1-1.6,0.1-2.3c0-0.3,0-0.7-0.1-0.9
	c0-0.3-0.1-0.5-0.1-0.7c0-0.2-0.1-0.4-0.1-0.5c0-0.1-0.1-0.2-0.1-0.2s0,0.1,0.1,0.2c0,0.1,0.1,0.3,0.2,0.5c0.1,0.2,0.1,0.4,0.2,0.7
	c0.1,0.3,0.1,0.6,0.1,1c0.1,0.7,0.1,1.5,0,2.3c0,0.4-0.1,0.8-0.1,1.3c-0.1,0.4-0.1,0.8-0.2,1.3l-0.2,0.7c2.1-0.8,3.7-2.9,3.6-5.8
	c0-1.5-0.5-3.1-1.3-4.5c-0.4-0.7-0.9-1.4-1.4-2c-0.6-0.6-1.2-1.1-1.8-1.6c-2.3,1-3.5,3.4-3.3,6.3C163.9,40.9,164.3,42.3,165,43.5z
	 M156.5,34.9c0.8,1.1,1.7,2.1,2.9,2.8c0.1-0.3,0.1-0.6,0.2-0.8c0.1-0.4,0.1-0.8,0.1-1.2c0-0.4,0-0.8,0-1.2c0-0.8-0.1-1.5-0.2-2.2
	c-0.1-0.3-0.1-0.6-0.2-0.9c-0.1-0.3-0.2-0.5-0.2-0.7c-0.1-0.2-0.1-0.3-0.2-0.4c0-0.1-0.1-0.2-0.1-0.2s0,0.1,0.1,0.1
	c0.1,0.1,0.1,0.2,0.2,0.4c0.1,0.2,0.2,0.4,0.3,0.7c0.1,0.3,0.2,0.5,0.3,0.9c0.2,0.7,0.3,1.4,0.4,2.2c0,0.4,0.1,0.8,0.1,1.2
	c0,0.4,0,0.8,0,1.2c0,0.2,0,0.5-0.1,0.7c1.9-1.1,3.1-3.3,2.6-6c-0.1-0.7-0.3-1.4-0.6-2.1c-0.3-0.7-0.7-1.3-1.2-1.9
	c-0.5-0.6-1-1.2-1.6-1.7c-0.6-0.5-1.3-0.9-2-1.3c-2,1.3-2.9,3.8-2.3,6.5C155.1,32.5,155.7,33.8,156.5,34.9z M147.1,27.8
	c0.9,1,1.9,1.8,3.1,2.3c0-0.3,0-0.5,0-0.8c0-0.4,0-0.8,0-1.2c0-0.4-0.1-0.8-0.1-1.1c-0.1-0.7-0.3-1.4-0.5-2
	c-0.1-0.3-0.2-0.6-0.3-0.8c-0.1-0.2-0.2-0.4-0.3-0.6c-0.1-0.2-0.2-0.3-0.2-0.4c-0.1-0.1-0.1-0.1-0.1-0.1s0,0,0.1,0.1
	c0.1,0.1,0.2,0.2,0.3,0.4c0.1,0.2,0.2,0.4,0.4,0.6c0.1,0.2,0.3,0.5,0.4,0.8c0.2,0.6,0.5,1.3,0.6,2.1c0.1,0.4,0.2,0.8,0.2,1.2
	c0.1,0.4,0.1,0.8,0.1,1.2c0,0.2,0,0.4,0,0.7c1.7-1.3,2.5-3.6,1.7-6.1c-0.4-1.4-1.2-2.6-2.3-3.6c-0.5-0.5-1.1-1-1.8-1.4
	c-0.6-0.4-1.3-0.7-2-0.9c-1.8,1.5-2.3,4-1.3,6.5C145.5,25.8,146.2,26.9,147.1,27.8z M137.2,22.4c1,0.8,2.1,1.4,3.3,1.8
	c0-0.3,0-0.5-0.1-0.8c0-0.4-0.1-0.7-0.2-1.1c-0.1-0.4-0.2-0.7-0.3-1.1c-0.2-0.7-0.5-1.3-0.7-1.9c-0.1-0.3-0.3-0.5-0.4-0.7
	c-0.1-0.2-0.3-0.4-0.4-0.5c-0.1-0.1-0.2-0.3-0.3-0.3c-0.1-0.1-0.1-0.1-0.1-0.1s0,0,0.1,0.1c0.1,0.1,0.2,0.2,0.3,0.3
	c0.1,0.1,0.3,0.3,0.4,0.5c0.1,0.2,0.3,0.5,0.5,0.7c0.3,0.5,0.6,1.2,0.9,1.9c0.1,0.3,0.3,0.7,0.4,1.1c0.1,0.4,0.2,0.7,0.3,1.1L141,24
	c1.4-1.5,1.9-3.8,0.8-6.1c-1.1-2.5-3.8-4.3-6.6-4.8c-1.5,1.7-1.6,4.1-0.4,6.4C135.4,20.6,136.2,21.6,137.2,22.4z M130.4,19.7
	c-0.1-0.3-0.1-0.5-0.2-0.8c-0.1-0.3-0.2-0.7-0.3-1c-0.1-0.3-0.3-0.7-0.4-1c-0.3-0.6-0.6-1.2-0.9-1.7c-0.2-0.2-0.3-0.5-0.5-0.6
	c-0.2-0.2-0.3-0.3-0.4-0.5c-0.1-0.1-0.2-0.2-0.3-0.3c-0.1-0.1-0.1-0.1-0.1-0.1s0,0,0.1,0.1c0.1,0.1,0.2,0.2,0.3,0.3
	c0.1,0.1,0.3,0.3,0.5,0.5c0.2,0.2,0.4,0.4,0.5,0.6c0.4,0.5,0.8,1,1.1,1.7c0.2,0.3,0.3,0.6,0.5,1c0.1,0.3,0.3,0.7,0.4,1.1l0.2,0.6
	c1.2-1.6,1.3-3.9,0-5.9c-0.7-1.1-1.7-2-3-2.7c-1.2-0.6-2.6-1-4-1.1c-1.2,1.8-1.1,4.2,0.4,6.2C125.8,17.9,128,19.2,130.4,19.7z
	 M120.1,16.8c-0.1-0.2-0.2-0.5-0.3-0.7c-0.1-0.3-0.3-0.6-0.4-0.9c-0.2-0.3-0.3-0.6-0.5-0.9c-0.3-0.6-0.7-1.1-1.1-1.5
	c-0.2-0.2-0.4-0.4-0.5-0.5c-0.2-0.2-0.3-0.3-0.5-0.4c-0.1-0.1-0.2-0.2-0.3-0.2c-0.1-0.1-0.1-0.1-0.1-0.1s0,0,0.1,0.1
	c0.1,0,0.2,0.1,0.3,0.2c0.1,0.1,0.3,0.2,0.5,0.4c0.2,0.1,0.4,0.3,0.6,0.5c0.4,0.4,0.9,0.9,1.3,1.5c0.2,0.3,0.4,0.6,0.6,0.9
	c0.2,0.3,0.4,0.6,0.5,0.9l0.3,0.5c0.9-1.7,0.8-3.8-0.8-5.7c-1.6-1.9-4.4-3-7-2.7c-0.9,1.9-0.5,4.1,1.1,5.9
	C115.5,15.7,117.8,16.6,120.1,16.8z M117.7,190.1c-0.1-0.4-0.2-0.8-0.2-1.3c-0.4-2-1.6-4.9-4.4-7.7c-0.8-0.8-1.8-1.7-3-2.4
	c-2.5-1.6-5.7-2.9-9.4-3.3c-0.2,0-0.5,0-0.7,0c-2.5-0.2-5.1-0.1-7.8-0.3c-0.7-0.1-1.5-0.1-2.2-0.2c-0.8-0.1-1.5-0.2-2.3-0.3
	c-1.6-0.2-3.1-0.5-4.7-0.8c-6.4-1.2-13.2-3.4-19.9-6.7c-6.7-3.3-13.3-7.8-19.2-13.3c-3-2.8-5.8-5.8-8.3-9.1c-2.6-3.3-4.9-6.8-7-10.6
	c-4.1-7.5-7.1-15.8-8.5-24.3c-1.5-8.5-1.6-17.3-0.3-25.8c1.3-8.4,3.9-16.6,7.6-23.8c1.8-3.6,3.9-7.1,6.2-10.3
	c1.1-1.6,2.3-3.1,3.5-4.6c1.3-1.4,2.5-2.9,3.8-4.2c5.1-5.4,10.8-9.7,16.3-13.2c5.6-3.4,11.1-5.8,16.1-7.4c4.4-1.5,8.5-2.4,12-3
	l0.3-0.3c-3.6,0.5-7.7,1.4-12.4,2.9c-5.1,1.6-10.6,3.9-16.3,7.2c-5.6,3.4-11.4,7.6-16.7,13.1c-1.4,1.3-2.6,2.8-3.9,4.2
	c-1.2,1.5-2.5,3-3.6,4.6c-2.4,3.2-4.5,6.6-6.4,10.3c-3.9,7.3-6.6,15.6-8.1,24.2c-1.4,8.6-1.5,17.6-0.1,26.4
	c1.4,8.8,4.3,17.4,8.4,25.2c2.1,3.9,4.5,7.6,7.1,11.1c2.6,3.5,5.4,6.7,8.5,9.6c6.1,5.9,12.8,10.6,19.8,14.2c6.9,3.5,14,5.9,20.6,7.3
	c1.7,0.3,3.3,0.7,4.9,0.9c0.8,0.1,1.6,0.2,2.4,0.3c0.1,0,0.2,0,0.3,0c0.7,0.1,1.4,0.1,2,0.2c0.8,0.1,1.5,0.1,2.3,0.2
	c0.8,0,1.5,0.1,2.2,0.1c0.7,0,1.4,0.1,2.1,0.1c0.5,0,1,0.1,1.4,0.1c0.1,0,0.2,0,0.3,0c4.4,0.5,7.8,2.5,9.8,4.7
	c1.4,1.5,2.5,4.1,3,5.7c1.5,0.7,3,1.5,4.4,2.2c0.2,0,0.3,0,0.3,0s0-0.3,0-0.8C117.7,190.8,117.7,190.5,117.7,190.1z M91.2,179.7
	c-0.4,0-0.9-0.1-1.4-0.1l-0.3,0l-0.6-0.1c-0.7,0.5-1.4,1.1-1.9,1.6c-2.7,2.7-3.9,5.7-4.4,7.7c-0.1,0.5-0.2,1-0.2,1.3
	c0,0.4-0.1,0.7-0.1,1c0,0.5,0,0.8,0,0.8s0.1,0,0.3,0c1.4-0.7,2.9-1.5,4.4-2.2c0.5-1.6,1.6-4.2,3-5.7c1.5-1.6,3.8-3.1,6.7-4l-2.4-0.1
	L91.2,179.7z M111.4,178.5c0.5-0.1,0.9-0.1,1.4-0.2c1.6-0.2,3.3-0.6,4.9-0.9c6.7-1.4,13.7-3.8,20.6-7.3c6.9-3.6,13.7-8.3,19.8-14.2
	c3.1-2.9,5.9-6.1,8.5-9.6c2.6-3.5,5-7.2,7.1-11.1c4.1-7.8,7.1-16.4,8.4-25.2c1.4-8.8,1.3-17.8-0.1-26.4c-1.5-8.6-4.2-16.8-8.1-24.2
	c-1.9-3.7-4.1-7.1-6.4-10.3c-1.1-1.6-2.4-3.1-3.6-4.6c-1.3-1.4-2.5-2.9-3.9-4.2c-5.3-5.4-11.1-9.7-16.7-13.1
	c-5.7-3.3-11.3-5.6-16.3-7.2c-4.7-1.5-8.9-2.3-12.5-2.9l0.2,0.2c3.5,0.6,7.6,1.5,12.2,3c5,1.7,10.5,4.1,16.1,7.4
	c5.5,3.4,11.2,7.7,16.3,13.2c1.3,1.3,2.5,2.8,3.8,4.2c1.2,1.5,2.4,3,3.5,4.6c2.3,3.2,4.4,6.6,6.2,10.3c3.7,7.3,6.3,15.4,7.6,23.8
	c1.2,8.5,1.2,17.2-0.3,25.8c-1.5,8.6-4.5,16.8-8.5,24.3c-2,3.8-4.4,7.3-7,10.6c-2.6,3.3-5.4,6.4-8.3,9.1c-5.9,5.6-12.5,10-19.2,13.3
	c-6.7,3.3-13.5,5.5-19.9,6.7c-1.6,0.3-3.2,0.6-4.7,0.8c-0.8,0.1-1.5,0.2-2.3,0.3c-0.8,0.1-1.5,0.1-2.2,0.2c-1.1,0.1-2.3,0.2-3.4,0.2
	c2.2,0.6,4.3,1.5,6.2,2.7C110.9,178.1,111.1,178.3,111.4,178.5z"/>
<g>
	<g>
		<path class="st1" d="M50.8,116.9V79.2h11.9c4.9,0,8.9,1.5,11.9,4.5c3,3,4.5,6.9,4.5,11.7v5.2c0,4.8-1.5,8.7-4.5,11.7
			c-3,3-7,4.5-11.9,4.5H50.8z M55.9,83.2v29.7h6.8c3.5,0,6.2-1.1,8.3-3.4c2-2.3,3-5.2,3-8.8v-5.2c0-3.6-1-6.5-3-8.8
			c-2-2.3-4.8-3.4-8.3-3.4H55.9z"/>
		<path class="st1" d="M100.1,109.8h0.2l12-30.6h6.3v37.7h-5.1V88.6l-0.2,0L102,116.9h-3.5L86.7,87.7l-0.2,0v29.2h-5.1V79.2h6.7
			L100.1,109.8z"/>
		<path class="st1" d="M149.1,104.8l0.1,0.2c0.1,3.5-1.2,6.5-3.7,8.9c-2.6,2.4-5.9,3.6-10.1,3.6c-4.3,0-7.7-1.5-10.4-4.5
			c-2.7-3-4-6.9-4-11.5v-6.7c0-4.6,1.3-8.5,4-11.5c2.7-3,6.2-4.5,10.4-4.5c4.3,0,7.7,1.1,10.2,3.4c2.5,2.3,3.7,5.3,3.7,9l-0.1,0.2
			h-4.9c0-2.6-0.8-4.7-2.3-6.3c-1.6-1.5-3.7-2.3-6.6-2.3c-2.8,0-5.1,1.1-6.8,3.4c-1.7,2.3-2.5,5.1-2.5,8.5v6.8
			c0,3.4,0.8,6.3,2.5,8.6c1.7,2.3,4,3.4,6.8,3.4c2.8,0,5-0.8,6.6-2.3c1.6-1.5,2.3-3.6,2.3-6.3H149.1z"/>
	</g>
</g>
</svg>
