<svg id="Layer_1" data-name="Layer 1" xmlns="http://www.w3.org/2000/svg" viewBox="0 0 108.88 93.45"><defs><style>.cls-1{fill:#fff;}</style></defs><title>explore</title><g id="Hsn7vs.tif"><path class="cls-1" d="M46.31,86.42l0.26-.09c0.94,1.54,1.89,3.07,2.83,4.62a5.29,5.29,0,0,0,4.69,2.73c7.79,0.05,15.58.07,23.38,0a5.74,5.74,0,0,0,.36-11.47q-9.33-.72-18.66-1.38a1.89,1.89,0,0,1-1.87-1.25c-3.78-8.44-7.64-16.85-11.43-25.29a8.74,8.74,0,0,0-3.09-3.83A25.55,25.55,0,0,0,38.56,48c-11.15-4.66-22.22-4.21-33.22.6A8,8,0,0,0,.57,54.45a17.72,17.72,0,0,0-.48,4c0,10.33,0,20.65,0,31,0,2.87,1.37,4.24,4.24,4.24h42V86.42ZM20.86,0.27a17.21,17.21,0,0,0-8.64,2.38C7.29,5.71,4.66,10,5.13,16A46.54,46.54,0,0,0,8.25,28.92a23.11,23.11,0,0,0,6.14,9.39c4.15,3.65,8.95,3.63,13.08,0a21,21,0,0,0,4.94-6.71,47.23,47.23,0,0,0,3.84-12.28c0.54-3.06.87-6.13-.29-9.17C33.72,4.23,27.64.25,20.86,0.27Zm38,73.55c0.48,1.05.87,2,1.33,2.88a1,1,0,0,0,.68.43,29.76,29.76,0,0,0,3.17.23q21.28,0,42.56,0c1.78,0,2.39-.61,2.39-2.38q0-19.35,0-38.7c0-1.84-.59-2.42-2.46-2.42h-54c-1.87,0-2.46.58-2.46,2.42q0,8.62,0,17.25a2.35,2.35,0,0,0,.05.9c1.09,2.47,2.21,4.93,3.32,7.38l0.25-.05V37.51h51.69V73.82H58.83Zm42.79-21.74H66.41v10.7h35.21V52.08Zm0-3.82V41.19H57.33v7.07h44.25ZM64.39,62.78V52.09H57.32v10.7h7.07Zm25,16.55h-8c4.46,2.56,6,6.29,5.05,11.2H96.67q2.76,0,2.73-1.81c0-1.16-.89-1.74-2.66-1.74h-7.3V79.33Zm-13.64-11a1.77,1.77,0,1,0-1.72,1.76A1.83,1.83,0,0,0,75.79,68.34Zm5.45,0a1.77,1.77,0,1,0-1.74,1.74A1.85,1.85,0,0,0,81.24,68.36Zm3.67-1.8a1.82,1.82,0,0,0-1.76,1.72A1.77,1.77,0,1,0,84.91,66.56Z" transform="translate(-0.06 -0.27)"/><path class="cls-1" d="M46.31,86.42v7.29H4.3c-2.87,0-4.24-1.37-4.24-4.24,0-10.33,0-20.65,0-31a17.72,17.72,0,0,1,.48-4,8,8,0,0,1,4.78-5.81c11-4.81,22.07-5.26,33.22-.6a25.55,25.55,0,0,1,4.21,2.42,8.74,8.74,0,0,1,3.09,3.83c3.8,8.44,7.65,16.85,11.43,25.29a1.89,1.89,0,0,0,1.87,1.25q9.33,0.65,18.66,1.38a5.74,5.74,0,0,1-.36,11.47c-7.79.07-15.58,0.05-23.38,0A5.29,5.29,0,0,1,49.4,91c-0.93-1.55-1.88-3.08-2.83-4.62Z" transform="translate(-0.06 -0.27)"/><path class="cls-1" d="M20.86,0.27c6.78,0,12.86,4,15.1,9.83,1.16,3,.83,6.11.29,9.17a47.23,47.23,0,0,1-3.84,12.28,21,21,0,0,1-4.94,6.71c-4.13,3.68-8.93,3.7-13.08,0a23.11,23.11,0,0,1-6.14-9.39A46.54,46.54,0,0,1,5.13,16C4.66,10,7.29,5.71,12.23,2.65A17.21,17.21,0,0,1,20.86.27Z" transform="translate(-0.06 -0.27)"/><path class="cls-1" d="M58.83,73.82h46.48V37.51H53.62V61.77l-0.25.05c-1.11-2.46-2.23-4.92-3.32-7.38a2.35,2.35,0,0,1-.05-0.9q0-8.62,0-17.25c0-1.84.59-2.42,2.46-2.42h54c1.87,0,2.46.58,2.46,2.42q0,19.35,0,38.7c0,1.78-.61,2.38-2.39,2.38q-21.28,0-42.56,0a29.76,29.76,0,0,1-3.17-.23,1,1,0,0,1-.68-0.43C59.7,75.81,59.3,74.87,58.83,73.82Z" transform="translate(-0.06 -0.27)"/><path class="cls-1" d="M101.62,52.08v10.7H66.41V52.08h35.21Z" transform="translate(-0.06 -0.27)"/><path class="cls-1" d="M101.58,48.26H57.33V41.19h44.25v7.07Z" transform="translate(-0.06 -0.27)"/><path class="cls-1" d="M64.39,62.78H57.32V52.09h7.07v10.7Z" transform="translate(-0.06 -0.27)"/><path class="cls-1" d="M89.43,79.33V87h7.3c1.77,0,2.65.58,2.66,1.74s-0.89,1.81-2.73,1.81H86.53c0.93-4.92-.59-8.65-5.05-11.2h8Z" transform="translate(-0.06 -0.27)"/><path class="cls-1" d="M75.79,68.34a1.85,1.85,0,0,1-1.72,1.76A1.77,1.77,0,1,1,75.79,68.34Z" transform="translate(-0.06 -0.27)"/><path class="cls-1" d="M81.24,68.36a1.77,1.77,0,1,1-1.68-1.8A1.84,1.84,0,0,1,81.24,68.36Z" transform="translate(-0.06 -0.27)"/><path class="cls-1" d="M84.91,66.56a1.77,1.77,0,1,1-1.76,1.72A1.82,1.82,0,0,1,84.91,66.56Z" transform="translate(-0.06 -0.27)"/></g></svg>