<?xml version="1.0" encoding="utf-8"?>
<!-- Generator: Adobe Illustrator 19.2.1, SVG Export Plug-In . SVG Version: 6.00 Build 0)  -->
<svg version="1.1" id="Tree" xmlns="http://www.w3.org/2000/svg" xmlns:xlink="http://www.w3.org/1999/xlink" x="0px" y="0px"
	 viewBox="0 0 200 200" style="enable-background:new 0 0 200 200;" xml:space="preserve">
<style type="text/css">
	.st0{fill:#C49A6C;}
	.st1{fill:#85C446;}
	.st2{fill:#FFFFFF;}
	.st3{fill:#E6E7E8;}
</style>
<path class="st0" d="M81,102.3l23.7,2.8l7.1,27.9l17.6-19.2l10.1,19c0,0-14.2,9-17.6,16S113,195.1,127,200H83.9
	c0,0,18.9-11.8,11.7-33.1C92.1,156.6,73.1,152,73.1,151c0.1-3.1,4.5-15.8,4.5-15.8c3.4,0.5,20.9,13.5,20.6,12
	C95.5,135.4,81,102.3,81,102.3z"/>
<g>
	<path class="st3" d="M97.8,120.4l-0.9-4.3l-1.7,4l-4-0.8l0-4.4l-2.5,3.6l-3.7-1.6l1-4.3l-3.2,3l-3.3-2.4l1.8-4l-3.8,2.2l-2.7-3
		l2.6-3.5l-4.2,1.4l-2-3.5l3.3-2.9l-4.4,0.5L69,96.5l3.8-2.2L68.5,94l-0.4-4l4.2-1.3l-4.2-1.3l0.4-4l4.4-0.4l-3.8-2.2l1.3-3.8
		l4.4,0.5l-3.3-2.9l2-3.5l4.2,1.4l-2.6-3.5l2.7-3l3.8,2.2l-1.8-4l3.3-2.4l3.2,3l-1-4.3l3.7-1.6l2.5,3.6l0-4.4l4-0.8l1.7,4l0.9-4.3
		l4,0l0.9,4.3l1.7-4l4,0.8l0,4.4l2.5-3.6l3.7,1.6l-1,4.3l3.2-3l3.3,2.4l-1.8,4l3.8-2.2l2.7,3l-2.6,3.5l4.2-1.4l2,3.5l-3.3,2.9
		l4.4-0.5l1.2,3.8l-3.8,2.2l4.4,0.4l0.4,4l-4.2,1.3l4.2,1.3l-0.4,4l-4.4,0.4l3.8,2.2l-1.3,3.8l-4.4-0.5l3.3,2.9l-2,3.5l-4.2-1.4
		l2.6,3.5l-2.7,3l-3.8-2.2l1.8,4l-3.3,2.4l-3.2-3l1,4.3l-3.7,1.6l-2.5-3.6l0,4.4l-4,0.8l-1.7-4l-0.9,4.3L97.8,120.4z M99.9,81.1
		c-4.2,0-7.6,3.4-7.6,7.6c0,4.2,3.4,7.6,7.6,7.6c4.2,0,7.6-3.4,7.6-7.6C107.5,84.5,104.1,81.1,99.9,81.1v-1V81.1z"/>
	<path class="st2" d="M98.7,57.9l2.4,0l1.1,5.2c0.3,0,0.6,0.1,0.8,0.1l2.1-4.9l2.4,0.5l-0.1,5.3c0.3,0.1,0.5,0.2,0.8,0.3l3.1-4.4
		l2.2,1l-1.2,5.2c0.2,0.1,0.5,0.3,0.7,0.4l3.9-3.6l1.9,1.4l-2.2,4.9c0.2,0.2,0.4,0.4,0.6,0.6l4.6-2.7l1.6,1.8l-3.2,4.3
		c0.2,0.2,0.3,0.4,0.5,0.7l5.1-1.7l1.2,2.1l-4,3.5c0.1,0.3,0.3,0.5,0.4,0.8l5.3-0.6l0.7,2.3l-4.7,2.6c0.1,0.3,0.1,0.5,0.2,0.8
		l5.3,0.5l0.2,2.4l-5.1,1.6c0,0.1,0,0.3,0,0.4c0,0.1,0,0.3,0,0.4l5.1,1.6l-0.3,2.4l-5.3,0.5c-0.1,0.3-0.1,0.5-0.2,0.8l4.7,2.6
		l-0.7,2.3l-5.3-0.6c-0.1,0.3-0.2,0.5-0.4,0.8l4,3.5l-1.2,2.1l-5.1-1.7c-0.2,0.2-0.3,0.4-0.5,0.7l3.2,4.3l-1.6,1.8l-4.6-2.7
		c-0.2,0.2-0.4,0.4-0.6,0.6l2.2,4.9l-1.9,1.4l-3.9-3.6c-0.2,0.1-0.5,0.3-0.7,0.4l1.2,5.2l-2.2,1l-3.1-4.4c-0.3,0.1-0.5,0.2-0.8,0.3
		l0,5.3l-2.4,0.5l-2.1-4.9c-0.3,0-0.6,0.1-0.8,0.1l-1.1,5.2l-2.4,0l-1.1-5.2c-0.3,0-0.6-0.1-0.8-0.1l-2.1,4.9l-2.4-0.5l0.1-5.3
		c-0.3-0.1-0.5-0.2-0.8-0.3l-3.1,4.4l-2.2-1l1.2-5.2c-0.2-0.1-0.5-0.3-0.7-0.4l-3.9,3.6l-1.9-1.4L83,108c-0.2-0.2-0.4-0.4-0.6-0.6
		l-4.6,2.7l-1.6-1.8l3.2-4.3c-0.2-0.2-0.3-0.4-0.5-0.7l-5.1,1.7l-1.2-2.1l4-3.5c-0.1-0.3-0.3-0.5-0.4-0.8L71,99.3L70.2,97l4.7-2.6
		c-0.1-0.3-0.1-0.5-0.2-0.8L69.4,93l-0.2-2.4l5.1-1.6c0-0.1,0-0.3,0-0.4c0-0.1,0-0.3,0-0.4l-5.1-1.6l0.3-2.4l5.3-0.5
		c0.1-0.3,0.1-0.5,0.2-0.8l-4.7-2.6L71,78l5.3,0.6c0.1-0.3,0.2-0.5,0.4-0.8l-4-3.5l1.2-2.1l5.1,1.7c0.2-0.2,0.3-0.4,0.5-0.7
		l-3.2-4.3l1.6-1.8l4.6,2.7c0.2-0.2,0.4-0.4,0.6-0.6l-2.2-4.9l1.9-1.4l3.9,3.6c0.2-0.1,0.5-0.3,0.7-0.4L86.3,61l2.2-1l3.1,4.4
		c0.3-0.1,0.5-0.2,0.8-0.3l0-5.3l2.4-0.5l2.1,4.9c0.3,0,0.6-0.1,0.8-0.1L98.7,57.9 M99.9,97.2c4.7,0,8.6-3.8,8.6-8.6
		c0-4.7-3.8-8.6-8.6-8.6c0,0,0,0,0,0c-4.7,0-8.6,3.8-8.6,8.6C91.3,93.4,95.2,97.2,99.9,97.2C99.9,97.2,99.9,97.2,99.9,97.2
		 M97.1,55.9l-0.3,1.6l-0.1,0.4l-0.2-0.3L95.9,56l-1.6,0.3l-2.4,0.5l-1.6,0.3l0,1.6l0,0.4l-0.2-0.3l-0.9-1.3l-1.5,0.7l-2.2,1
		L84,59.9l0.4,1.6l0.1,0.4l-0.3-0.3L83,60.5l-1.3,1l-1.9,1.4l-1.3,1l0.7,1.5l0.2,0.3l-0.3-0.2l-1.4-0.8l-1.1,1.2l-1.6,1.8l-1.1,1.2
		l1,1.3l0.2,0.3l-0.4-0.1l-1.6-0.5l-0.8,1.4l-1.2,2.1l-0.8,1.4l1.2,1.1l0.3,0.3l-0.4,0l-1.6-0.2l-0.5,1.6l-0.7,2.3l-0.5,1.6l1.4,0.8
		l0.3,0.2l-0.4,0l-1.6,0.2L67.4,84l-0.3,2.4L67,88l1.6,0.5l0.4,0.1l-0.4,0.1L67,89.2l0.2,1.6l0.2,2.4l0.2,1.6l1.6,0.2l0.4,0
		l-0.3,0.2l-1.4,0.8l0.5,1.6l0.7,2.3l0.5,1.6l1.6-0.2l0.4,0l-0.3,0.3l-1.2,1.1l0.8,1.4l1.2,2.1l0.8,1.4l1.6-0.5l0.4-0.1l-0.2,0.3
		l-1,1.3l1.1,1.2l1.6,1.8l1.1,1.2l1.4-0.8l0.3-0.2L79,112l-0.7,1.5l1.3,1l1.9,1.4l1.3,1l1.2-1.1l0.3-0.3l-0.1,0.4l-0.4,1.6l1.5,0.7
		l2.2,1l1.5,0.7l0.9-1.3l0.2-0.3l0,0.4l0,1.6l1.6,0.3l2.4,0.5l1.6,0.3l0.7-1.5l0.2-0.3l0.1,0.4l0.3,1.6l1.6,0l2.4,0l1.6,0l0.3-1.6
		l0.1-0.4l0.2,0.3l0.6,1.5l1.6-0.3l2.4-0.5l1.6-0.3l0-1.6l0-0.4l0.2,0.3l0.9,1.3l1.5-0.7l2.2-1l1.5-0.7l-0.4-1.6l-0.1-0.4l0.3,0.3
		l1.2,1.1l1.3-1l1.9-1.4l1.3-1l-0.7-1.5l-0.2-0.3l0.3,0.2l1.4,0.8l1.1-1.2l1.6-1.8l1.1-1.2l-1-1.3l-0.2-0.3l0.4,0.1l1.6,0.5l0.8-1.4
		l1.2-2.1l0.8-1.4l-1.2-1.1l-0.3-0.3l0.4,0l1.6,0.2l0.5-1.6l0.7-2.3l0.5-1.6l-1.4-0.8l-0.3-0.2l0.4,0l1.6-0.2l0.2-1.6l0.3-2.4
		l0.2-1.6l-1.6-0.5l-0.4-0.1l0.4-0.1l1.6-0.5l-0.2-1.6l-0.2-2.4l-0.2-1.6l-1.6-0.2l-0.4,0l0.3-0.2l1.4-0.8l-0.5-1.6l-0.7-2.3
		l-0.5-1.6l-1.6,0.2l-0.4,0l0.3-0.3l1.2-1.1l-0.8-1.4l-1.2-2.1l-0.8-1.4l-1.6,0.5l-0.4,0.1l0.2-0.3l1-1.3l-1.1-1.2l-1.6-1.8
		l-1.1-1.2l-1.4,0.8l-0.3,0.2l0.2-0.3l0.7-1.5l-1.3-1l-1.9-1.4l-1.3-1l-1.2,1.1l-0.3,0.3l0.1-0.4l0.4-1.6l-1.5-0.7l-2.2-1l-1.5-0.7
		l-0.9,1.3l-0.2,0.3l0-0.4l0-1.6l-1.6-0.3l-2.4-0.5L104,56l-0.7,1.5l-0.2,0.3l-0.1-0.4l-0.3-1.6l-1.6,0l-2.4,0L97.1,55.9L97.1,55.9z
		 M99.9,97.2l0-2c-3.6,0-6.6-3-6.6-6.6c0-3.6,3-6.6,6.6-6.6c3.6,0,6.6,3,6.6,6.6c0,3.6-3,6.6-6.6,6.6L99.9,97.2L99.9,97.2z"/>
</g>
<g>
	<g>
		<path class="st3" d="M59.4,153.3c-2.8,0-5.5-0.5-8-1.6c-5.1-2.1-9.1-6.2-11.2-11.3c-2.1-5.1-2.1-10.8,0.1-15.9
			c3.2-7.7,10.8-12.7,19.2-12.7c2.8,0,5.5,0.5,8,1.6c5.1,2.1,9.1,6.2,11.2,11.3c2.1,5.1,2.1,10.8-0.1,15.9
			C75.3,148.3,67.8,153.3,59.4,153.3C59.4,153.3,59.4,153.3,59.4,153.3z M59.4,120.2c-5,0-9.4,3-11.3,7.5c-1.3,3-1.3,6.4,0,9.4
			c1.2,3,3.6,5.4,6.6,6.7c1.5,0.6,3.1,1,4.8,1c5,0,9.4-3,11.3-7.5c2.6-6.3-0.3-13.5-6.6-16.1C62.7,120.5,61.1,120.2,59.4,120.2z"/>
		<path class="st2" d="M59.4,112.7c2.5,0,5.1,0.5,7.6,1.5c10.1,4.2,14.8,15.8,10.6,25.9c-3.2,7.6-10.5,12.1-18.2,12.1
			c-2.5,0-5.1-0.5-7.6-1.5c-10.1-4.2-14.8-15.8-10.6-25.9C44.4,117.3,51.7,112.7,59.4,112.7 M59.4,145.8c5.2,0,10.1-3.1,12.3-8.2
			c2.8-6.8-0.3-14.6-7.1-17.4c-1.7-0.7-3.4-1-5.1-1c-5.2,0-10.1,3.1-12.3,8.2c-2.8,6.8,0.3,14.6,7.1,17.4
			C56,145.5,57.7,145.8,59.4,145.8 M59.4,110.7c-8.8,0-16.7,5.2-20.1,13.4c-4.6,11.1,0.6,23.8,11.7,28.5c2.7,1.1,5.5,1.7,8.4,1.7
			c8.8,0,16.7-5.2,20.1-13.4c4.6-11.1-0.6-23.8-11.7-28.5C65.2,111.3,62.3,110.7,59.4,110.7L59.4,110.7z M59.4,143.8
			c-1.5,0-3-0.3-4.4-0.9c-2.8-1.2-4.9-3.3-6.1-6.1c-1.1-2.8-1.1-5.9,0-8.6c1.8-4.2,5.9-6.9,10.4-6.9c1.5,0,3,0.3,4.4,0.9
			c2.8,1.2,4.9,3.3,6.1,6.1c1.1,2.8,1.1,5.9,0,8.6C68.1,141.1,64,143.8,59.4,143.8L59.4,143.8z"/>
	</g>
	<g>
		<path class="st3" d="M55,160.6l-1.6-3.5l-3.1,2.4l-3.7-1.6l-0.5-3.9l-3.7,1.3l-3.1-2.6l0.8-3.8l-3.9,0.1l-2.1-3.5l1.9-3.4
			l-3.7-1.1l-0.9-4l2.9-2.6l-3.2-2.2l0.3-4l3.5-1.6l-2.4-3.1l1.6-3.7l3.9-0.5l-1.3-3.7l2.7-3.1l3.8,0.8l-0.1-3.9l3.5-2.1l3.4,1.9
			l1.1-3.7l4-0.9l2.6,2.9l2.2-3.2l4,0.3l1.6,3.5l3.1-2.4l3.7,1.6l0.5,3.9l3.7-1.3l3.1,2.7l-0.8,3.8l3.9-0.1l2.1,3.5l-1.9,3.4
			l3.7,1.1l0.9,4l-2.9,2.6l3.2,2.2l-0.3,4l-3.5,1.6l2.4,3.1l-1.6,3.7l-3.9,0.5l1.3,3.7l-2.7,3.1l-3.8-0.8l0.1,3.9l-3.5,2.1l-3.4-1.9
			l-1.1,3.7l-4,0.9l-2.6-2.9l-2.2,3.2L55,160.6z M59.4,112c-8.3,0-15.7,4.9-19,12.6c-2.1,5.1-2.1,10.6-0.1,15.7s6,9,11.1,11.2
			c2.5,1.1,5.2,1.6,7.9,1.6c8.3,0,15.7-4.9,19-12.6c2.1-5.1,2.1-10.6,0.1-15.7c-2.1-5.1-6-9-11.1-11.2C64.8,112.5,62.2,112,59.4,112
			z"/>
		<path class="st2" d="M60.2,105.1l2.9,0.2l1.9,4.2l3.6-2.8l2.7,1.1l0.5,4.5l4.3-1.5l2.2,1.9l-0.9,4.5l4.6-0.1l1.5,2.5l-2.2,4
			l4.4,1.3l0.7,2.8l-3.4,3.1l3.8,2.6l-0.2,2.9l-4.2,1.9l2.8,3.6l-1.1,2.7l-4.5,0.5l1.5,4.3l-1.9,2.2l-4.5-0.9l0.1,4.6l-2.5,1.5
			l-4-2.2l-1.3,4.4l-2.8,0.7l-3.1-3.4l-2.6,3.8l-2.9-0.2l-1.9-4.2l-3.6,2.8l-2.7-1.1l-0.5-4.5l-4.3,1.5l-2.2-1.9l0.9-4.5l-4.6,0.1
			l-1.5-2.5l2.2-4l-4.4-1.3l-0.7-2.8l3.4-3.1l-3.8-2.6l0.2-2.9l4.2-1.9l-2.8-3.6l1.1-2.7l4.5-0.5l-1.5-4.3l1.9-2.2l4.5,0.9l-0.1-4.6
			l2.5-1.5l4,2.2l1.3-4.4l2.8-0.7l3.1,3.4L60.2,105.1 M59.4,154.1c8.4,0,16.4-5,19.9-13.2c4.6-11-0.6-23.6-11.5-28.2
			c-2.7-1.1-5.5-1.7-8.3-1.7c-8.4,0-16.4,5-19.9,13.2c-4.6,11,0.6,23.6,11.5,28.2C53.8,153.5,56.6,154.1,59.4,154.1 M59.3,103
			l-0.7,1l-1.2,1.7l-1.4-1.5l-0.8-0.9l-1.1,0.3l-2.8,0.7l-1.1,0.3l-0.3,1.1l-0.6,2l-1.8-1l-1-0.6l-1,0.6l-2.5,1.5l-1,0.6l0,1.2
			l0.1,2.1l-2-0.4l-1.1-0.2l-0.8,0.9l-1.9,2.2l-0.8,0.9l0.4,1.1l0.7,1.9l-2,0.2l-1.2,0.1l-0.5,1.1l-1.1,2.7l-0.5,1.1l0.7,0.9
			l1.3,1.6l-1.9,0.9l-1.1,0.5l-0.1,1.2l-0.2,2.9l-0.1,1.2l1,0.7l1.7,1.2l-1.5,1.4l-0.9,0.8l0.3,1.1l0.7,2.8l0.3,1.1l1.1,0.3l2,0.6
			l-1,1.8l-0.6,1l0.6,1l1.5,2.5l0.6,1l1.2,0l2.1-0.1l-0.4,2l-0.2,1.1l0.9,0.8l2.2,1.9l0.9,0.8l1.1-0.4l1.9-0.7l0.2,2l0.1,1.2
			l1.1,0.5l2.7,1.1l1.1,0.5l0.9-0.7l1.6-1.3l0.9,1.9l0.5,1.1l1.2,0.1l2.9,0.2l1.2,0.1l0.7-1l1.2-1.7l1.4,1.5l0.8,0.9l1.1-0.3
			l2.8-0.7l1.1-0.3l0.3-1.1l0.6-2l1.8,1l1,0.6l1-0.6l2.5-1.5l1-0.6l0-1.2l-0.1-2.1l2,0.4l1.1,0.2l0.8-0.9l1.9-2.2l0.8-0.9l-0.4-1.1
			l-0.7-1.9l2-0.2l1.2-0.1l0.5-1.1l1.1-2.7l0.5-1.1l-0.7-0.9l-1.3-1.6l1.9-0.9l1.1-0.5l0.1-1.2l0.2-2.9l0.1-1.2l-1-0.7l-1.7-1.2
			l1.5-1.4l0.9-0.8l-0.3-1.1l-0.7-2.8l-0.3-1.1l-1.1-0.3l-2-0.6l1-1.8l0.6-1l-0.6-1l-1.5-2.5l-0.6-1l-1.2,0l-2.1,0.1l0.4-2l0.2-1.1
			l-0.9-0.8l-2.2-1.9l-0.9-0.8l-1.1,0.4l-1.9,0.7l-0.2-2l-0.1-1.2l-1.1-0.5l-2.7-1.1l-1.1-0.5l-0.9,0.7l-1.6,1.3l-0.9-1.9l-0.5-1.1
			l-1.2-0.1l-2.9-0.2L59.3,103L59.3,103z M59.4,152.1c-2.6,0-5.1-0.5-7.6-1.5c-9.9-4.2-14.6-15.7-10.5-25.6c3.1-7.3,10.1-12,18-12
			c2.6,0,5.1,0.5,7.6,1.5c4.8,2,8.6,5.8,10.5,10.6c2,4.8,2,10.1-0.1,15C74.4,147.4,67.3,152.1,59.4,152.1L59.4,152.1z"/>
	</g>
</g>
<g>
	<g>
		<path class="st3" d="M148.8,140.2c-1.2-1.8-3.1-2.9-5.2-3.1c-0.2,0-0.4,0-0.5,0c-1.9,0-3.7,0.8-5.1,2.2l-0.5,0.5l-0.6-0.2
			c-1.4-0.5-2.7-1.2-3.9-2l-0.6-0.4l0.1-0.7c0.4-2.1-0.1-4.3-1.5-5.9c-1.3-1.5-3.2-2.4-5.3-2.4l-0.2,0l-0.7,0l-0.3-0.6
			c-0.6-1.3-1-2.7-1.3-4.1l-0.1-0.7l0.6-0.4c1.8-1.2,2.9-3.1,3.1-5.2c0.2-2.1-0.6-4.2-2.2-5.6l-0.5-0.5l0.2-0.6
			c0.5-1.3,1.2-2.7,2-3.9l0.4-0.6l0.7,0.1c0.5,0.1,0.9,0.1,1.4,0.1c1.7,0,3.2-0.6,4.5-1.6c1.6-1.4,2.5-3.4,2.4-5.6l0-0.7l0.6-0.3
			c1.3-0.6,2.7-1,4.1-1.3l0.7-0.1l0.4,0.6c1.2,1.8,3.1,2.9,5.2,3.1c0.2,0,0.4,0,0.5,0c1.9,0,3.7-0.8,5.1-2.2l0.5-0.5l0.6,0.2
			c1.3,0.5,2.7,1.2,3.9,2l0.6,0.4l-0.1,0.7c-0.4,2.1,0.1,4.3,1.5,5.9c1.3,1.5,3.2,2.4,5.3,2.4l0.2,0l0.7,0l0.3,0.6
			c0.6,1.3,1,2.7,1.3,4.1l0.1,0.7l-0.6,0.4c-1.8,1.2-2.9,3.1-3.1,5.2c-0.2,2.1,0.6,4.2,2.2,5.6l0.5,0.5l-0.2,0.6
			c-0.5,1.4-1.2,2.7-2,3.9l-0.4,0.6l-0.7-0.1c-0.5-0.1-0.9-0.1-1.4-0.1c-1.7,0-3.2,0.6-4.5,1.6c-1.6,1.4-2.5,3.4-2.4,5.6l0,0.7
			l-0.6,0.3c-1.3,0.6-2.7,1-4.1,1.3l-0.7,0.1L148.8,140.2z M145.1,108.7c-5.2,0-9.6,4.1-10,9.3c-0.2,2.7,0.6,5.3,2.4,7.3
			c1.8,2,4.2,3.3,6.9,3.5c0.3,0,0.5,0,0.8,0c5.2,0,9.6-4.1,10-9.3c0.2-2.7-0.6-5.3-2.4-7.3c-1.8-2-4.2-3.3-6.9-3.5
			C145.6,108.7,145.3,108.7,145.1,108.7z"/>
		<path class="st2" d="M140.5,97.9c1.3,1.9,3.4,3.3,6,3.5c0.2,0,0.4,0,0.6,0c2.3,0,4.4-1,5.8-2.6c1.3,0.5,2.5,1.1,3.7,1.9
			c-0.4,2.3,0.1,4.8,1.7,6.7c1.6,1.8,3.8,2.8,6.1,2.8c0.1,0,0.2,0,0.3,0c0.6,1.3,1,2.6,1.3,4c-1.9,1.3-3.3,3.4-3.5,6
			c-0.2,2.5,0.8,4.8,2.5,6.4c-0.5,1.3-1.1,2.5-1.9,3.7c-0.5-0.1-1-0.1-1.6-0.1c-1.8,0-3.6,0.6-5.1,1.9c-1.9,1.6-2.8,4-2.8,6.4
			c-1.3,0.6-2.6,1-4,1.3c-1.3-1.9-3.4-3.3-6-3.5c-0.2,0-0.4,0-0.6,0c-2.3,0-4.4,1-5.8,2.6c-1.3-0.5-2.5-1.1-3.7-1.9
			c0.4-2.3-0.1-4.8-1.7-6.7c-1.6-1.8-3.8-2.8-6.1-2.8c-0.1,0-0.2,0-0.3,0c-0.6-1.3-1-2.6-1.3-4c1.9-1.3,3.3-3.4,3.5-6
			c0.2-2.5-0.8-4.8-2.5-6.4c0.5-1.3,1.1-2.5,1.9-3.7c0.5,0.1,1,0.1,1.6,0.1c1.8,0,3.6-0.6,5.1-1.9c1.9-1.6,2.8-4,2.8-6.4
			C137.8,98.6,139.1,98.2,140.5,97.9 M145.1,129.9c5.7,0,10.6-4.4,11-10.2c0.5-6.1-4.1-11.4-10.2-11.9c-0.3,0-0.6,0-0.9,0
			c-5.7,0-10.6,4.4-11,10.2c-0.5,6.1,4.1,11.4,10.2,11.9C144.5,129.9,144.8,129.9,145.1,129.9 M141.4,95.6l-1.3,0.3
			c-1.5,0.3-2.9,0.8-4.3,1.4l-1.2,0.5l0,1.4c0.1,1.9-0.7,3.6-2.1,4.8c-1.1,0.9-2.4,1.4-3.8,1.4c-0.4,0-0.8,0-1.2-0.1l-1.3-0.3
			l-0.7,1.1c-0.8,1.3-1.5,2.6-2.1,4.1l-0.5,1.3l1,0.9c1.4,1.3,2.1,3,1.9,4.8c-0.1,1.8-1.1,3.4-2.6,4.5l-1.1,0.8l0.3,1.3
			c0.3,1.5,0.8,2.9,1.4,4.3l0.5,1.2l1.4,0c0.1,0,0.1,0,0.2,0c1.8,0,3.4,0.8,4.6,2.1c1.2,1.4,1.6,3.2,1.3,5l-0.3,1.3l1.1,0.7
			c1.3,0.8,2.6,1.5,4.1,2.1l1.3,0.5l0.9-1c1.2-1.2,2.7-1.9,4.4-1.9c0.2,0,0.3,0,0.5,0c1.8,0.1,3.4,1.1,4.5,2.6l0.8,1.1l1.3-0.3
			c1.5-0.3,2.9-0.8,4.3-1.4l1.2-0.5l0-1.4c-0.1-1.9,0.7-3.6,2.1-4.8c1.1-0.9,2.4-1.4,3.8-1.4c0.4,0,0.8,0,1.2,0.1l1.3,0.3l0.7-1.1
			c0.8-1.3,1.5-2.6,2.1-4.1l0.5-1.3l-1-0.9c-1.4-1.3-2.1-3-1.9-4.8c0.1-1.8,1.1-3.4,2.6-4.5l1.1-0.8l-0.3-1.3
			c-0.3-1.5-0.8-2.9-1.4-4.3l-0.5-1.2l-1.4,0c-0.1,0-0.1,0-0.2,0c-1.8,0-3.4-0.8-4.6-2.1c-1.2-1.4-1.6-3.2-1.3-5l0.3-1.3l-1.1-0.7
			c-1.3-0.8-2.6-1.5-4.1-2.1l-1.3-0.5l-0.9,1c-1.2,1.2-2.7,1.9-4.4,1.9c-0.2,0-0.3,0-0.5,0c-1.8-0.1-3.4-1.1-4.5-2.6L141.4,95.6
			L141.4,95.6z M145.1,127.9c-0.2,0-0.5,0-0.7,0c-2.4-0.2-4.6-1.3-6.2-3.2c-1.6-1.8-2.3-4.2-2.1-6.6c0.4-4.7,4.3-8.4,9-8.4
			c0.2,0,0.5,0,0.7,0c5,0.4,8.7,4.8,8.3,9.8C153.8,124.2,149.8,127.9,145.1,127.9L145.1,127.9z"/>
	</g>
	<g>
		<path class="st3" d="M145.1,127.2c-4.6,0-8.3-3.7-8.4-8.3c0-4.6,3.7-8.4,8.3-8.4c4.7,0,8.4,3.7,8.4,8.3
			C153.5,123.3,149.8,127.1,145.1,127.2C145.1,127.2,145.1,127.2,145.1,127.2z"/>
		<path class="st2" d="M145.1,111.4c4.1,0,7.4,3.3,7.4,7.3c0,4.1-3.3,7.4-7.3,7.4c0,0,0,0-0.1,0c-4.1,0-7.4-3.3-7.4-7.3
			C137.7,114.8,140.9,111.4,145.1,111.4C145,111.4,145.1,111.4,145.1,111.4 M145.1,109.4L145.1,109.4c-5.2,0-9.4,4.3-9.4,9.5
			c0,5.1,4.2,9.3,9.4,9.3l0.1,0c2.5,0,4.9-1,6.6-2.8c1.8-1.8,2.7-4.1,2.7-6.7C154.4,113.6,150.2,109.4,145.1,109.4L145.1,109.4z"/>
	</g>
</g>
<g>
	<path class="st3" d="M139.8,72.6c-0.3,0-0.5-0.2-0.5-0.5l0-1.5c-1.3-0.1-2.5-0.3-3.6-0.6l-0.5,1.4c-0.1,0.2-0.3,0.3-0.5,0.3
		c-0.1,0-0.1,0-0.2,0l-3.2-1.1c-0.3-0.1-0.4-0.4-0.3-0.6l0.5-1.5c-1.2-0.5-2.3-1.1-3.2-1.7l-0.9,1.2c-0.1,0.1-0.2,0.2-0.3,0.2
		c0,0,0,0-0.1,0c-0.1,0-0.2,0-0.3-0.1l-2.7-2c-0.2-0.2-0.3-0.5-0.1-0.7l0.9-1.3c-1-0.9-1.8-1.7-2.6-2.6l-1.3,0.9
		c-0.1,0.1-0.2,0.1-0.3,0.1c-0.2,0-0.3-0.1-0.4-0.2l-2-2.8c-0.2-0.2-0.1-0.5,0.1-0.7l1.3-0.9c-0.7-1.1-1.2-2.2-1.6-3.2l-1.5,0.5
		c0,0-0.1,0-0.2,0c-0.1,0-0.2,0-0.2-0.1c-0.1-0.1-0.2-0.2-0.2-0.3l-1-3.2c-0.1-0.3,0.1-0.5,0.3-0.6l1.6-0.5
		c-0.3-1.3-0.5-2.5-0.6-3.6l-1.6,0c-0.1,0-0.3-0.1-0.4-0.1c-0.1-0.1-0.1-0.2-0.1-0.4l0-3.4c0-0.3,0.2-0.5,0.5-0.5c0,0,1.5,0,1.5,0
		c0.1-1.3,0.3-2.5,0.6-3.6l-1.4-0.5c-0.3-0.1-0.4-0.4-0.3-0.6l1.1-3.2c0-0.1,0.1-0.2,0.3-0.3c0.1,0,0.1-0.1,0.2-0.1
		c0.1,0,0.1,0,0.2,0l1.5,0.5c0.5-1.2,1.1-2.3,1.7-3.2l-1.2-0.9c-0.1-0.1-0.2-0.2-0.2-0.3c0-0.1,0-0.3,0.1-0.4l2-2.7
		c0.1-0.1,0.2-0.2,0.3-0.2c0,0,0,0,0.1,0c0.1,0,0.2,0,0.3,0.1l1.2,0.9c0.9-1,1.7-1.9,2.6-2.6l-0.9-1.2c-0.1-0.1-0.1-0.2-0.1-0.4
		s0.1-0.2,0.2-0.3l2.8-2c0.1-0.1,0.2-0.1,0.3-0.1c0.2,0,0.3,0.1,0.4,0.2l0.9,1.2c1-0.6,2-1.1,3.3-1.6l-0.5-1.5c0-0.1,0-0.3,0-0.4
		c0.1-0.1,0.2-0.2,0.3-0.2l3.2-1c0,0,0.1,0,0.2,0c0.1,0,0.2,0,0.2,0.1c0.1,0.1,0.2,0.2,0.2,0.3l0.5,1.5c1.3-0.3,2.5-0.5,3.6-0.6
		l0-1.5c0-0.1,0.1-0.3,0.1-0.4c0.1-0.1,0.2-0.1,0.4-0.1c0,0,3.4,0,3.4,0c0.3,0,0.5,0.2,0.5,0.5l0,1.5c1.3,0.1,2.5,0.3,3.6,0.6
		l0.5-1.4c0-0.1,0.1-0.2,0.3-0.3c0.1,0,0.1-0.1,0.2-0.1c0.1,0,0.1,0,0.2,0l3.2,1.1c0.1,0,0.2,0.1,0.3,0.3s0.1,0.3,0,0.4l-0.5,1.5
		c1.2,0.5,2.3,1.1,3.2,1.7L156,22c0.1-0.1,0.3-0.2,0.4-0.2c0.1,0,0.2,0,0.3,0.1l2.7,2c0.1,0.1,0.2,0.2,0.2,0.3c0,0.1,0,0.3-0.1,0.4
		l-0.9,1.3c1,0.9,1.8,1.7,2.6,2.6l1.3-0.9c0.1-0.1,0.2-0.1,0.3-0.1c0,0,0.1,0,0.1,0c0.1,0,0.2,0.1,0.3,0.2l2,2.8
		c0.2,0.2,0.1,0.5-0.1,0.7l-1.3,0.9c0.7,1.1,1.2,2.2,1.6,3.2l1.5-0.5c0,0,0.1,0,0.2,0c0.1,0,0.2,0,0.2,0.1c0.1,0.1,0.2,0.2,0.2,0.3
		l1,3.2c0.1,0.3-0.1,0.5-0.3,0.6l-1.6,0.5c0.3,1.3,0.5,2.5,0.6,3.6l1.6,0c0.3,0,0.5,0.2,0.5,0.5l0,3.4c0,0.1-0.1,0.3-0.1,0.4
		c-0.1,0.1-0.2,0.1-0.4,0.1c0,0-1.5,0-1.5,0c-0.1,1.3-0.3,2.5-0.6,3.6l1.4,0.5c0.1,0,0.2,0.1,0.3,0.3c0.1,0.1,0.1,0.3,0,0.4
		l-1.1,3.2c-0.1,0.2-0.3,0.3-0.5,0.3c-0.1,0-0.1,0-0.2,0l-1.5-0.5c-0.5,1.2-1.1,2.3-1.7,3.2l1.2,0.9c0.1,0.1,0.2,0.2,0.2,0.3
		s0,0.3-0.1,0.4l-2,2.7c-0.1,0.1-0.3,0.2-0.4,0.2c-0.1,0-0.2,0-0.3-0.1l-1.3-0.9c-0.9,1-1.7,1.8-2.6,2.6l0.9,1.3
		c0.2,0.2,0.1,0.5-0.1,0.7l-2.8,2c-0.1,0.1-0.2,0.1-0.3,0.1c0,0-0.1,0-0.1,0c-0.1,0-0.2-0.1-0.3-0.2l-0.9-1.3
		c-1.1,0.7-2.2,1.2-3.2,1.6l0.5,1.5c0,0.1,0,0.3,0,0.4c-0.1,0.1-0.2,0.2-0.3,0.2l-3.2,1c0,0-0.1,0-0.2,0c-0.2,0-0.4-0.1-0.5-0.3
		l-0.5-1.6c-1.3,0.3-2.5,0.5-3.6,0.6l0,1.6c0,0.3-0.2,0.5-0.5,0.5C143.2,72.7,139.8,72.6,139.8,72.6z M127.3,58.5
		c2.3,2.4,5.1,4.2,8.2,5.3c2,0.7,4.1,1,6.2,1c1.2,0,2.4-0.1,3.5-0.3l-3-9.4c-0.2,0-0.4,0-0.5,0c-1.1,0-2.1-0.2-3.2-0.5
		c-1.2-0.4-2.3-1-3.2-1.8L127.3,58.5z M150,63c5-2.3,8.8-6.5,10.5-11.7c0.4-1.1,0.7-2.3,0.8-3.5l-9.9-0.1c0,0.2-0.1,0.4-0.1,0.5
		c-0.7,2.2-2.2,4.1-4.3,5.3L150,63z M124.5,35.5c-0.6,1.1-1.1,2.2-1.5,3.3c-1.7,5.2-1.2,10.8,1.4,15.6l8-5.7
		c-0.9-2.2-0.9-4.6-0.2-6.8c0.1-0.2,0.1-0.3,0.2-0.5L124.5,35.5z M141.7,39.4c-1.2,0-2.3,0.4-3.3,1.1c-1,0.7-1.7,1.7-2.1,2.9
		c0,0,0,0.1,0,0.1c-0.3,1.1-0.3,2.3,0,3.4c0.4,1.2,1.1,2.2,2.2,3c0.5,0.4,1,0.6,1.5,0.8s1,0.2,1.7,0.3l0.2,0c1.2,0,2.4-0.4,3.4-1.1
		c0.9-0.7,1.7-1.6,2-2.7c0,0,0-0.1,0.1-0.1c0.4-1.2,0.4-2.4,0-3.6c-0.4-1.1-1.1-2.1-2-2.8c-0.6-0.4-1.1-0.7-1.6-0.9
		C143,39.4,142.4,39.4,141.7,39.4l0-0.5L141.7,39.4z M161.3,42.8c-0.8-6.7-5-12.6-11-15.5l-3.1,9.4c2.1,1.4,3.7,3.6,4.3,6.1
		L161.3,42.8z M135.4,37.4c1.8-1.5,4.1-2.3,6.4-2.3c0.2,0,0.5,0,0.7,0l3.1-9.4c-1.3-0.3-2.5-0.4-3.8-0.4c-5.4,0-10.6,2.2-14.3,6.1
		L135.4,37.4z"/>
	<path class="st2" d="M140.2,18l3.4,0l0,2c1.5,0.1,3,0.3,4.4,0.7l0.6-1.9l3.2,1.1l-0.6,1.9c1.4,0.6,2.7,1.3,4,2.1l1.2-1.6l2.7,2
		L158,26c1.1,1,2.2,2,3.1,3.2l1.6-1.2l2,2.8L163,32c0.8,1.3,1.5,2.6,2,4l2-0.6l1,3.2l-2,0.6c0.3,1.4,0.6,2.9,0.7,4.4l2.1,0l0,3.4
		l-2,0c-0.1,1.5-0.3,3-0.7,4.4l1.9,0.6l-1.1,3.2l-1.9-0.6c-0.6,1.4-1.3,2.7-2.1,4l1.6,1.2l-2,2.7l-1.6-1.2c-1,1.1-2,2.2-3.2,3.1
		l1.2,1.6l-2.8,2l-1.2-1.7c-1.3,0.8-2.6,1.5-4,2l0.6,2l-3.2,1l-0.6-2c-1.4,0.3-2.9,0.6-4.4,0.7l0,2.1l-3.4,0l0-2
		c-1.5-0.1-3-0.3-4.4-0.7l-0.6,1.9l-3.2-1.1l0.6-1.9c-1.4-0.6-2.7-1.3-4-2.1l-1.2,1.6l-2.7-2l1.2-1.6c-1.1-1-2.2-2-3.1-3.2l-1.6,1.2
		l-2-2.8l1.7-1.2c-0.8-1.3-1.5-2.6-2-4l-2,0.6l-1-3.2l2-0.6c-0.3-1.4-0.6-2.9-0.7-4.4l-2.1,0l0-3.4l2,0c0.1-1.5,0.3-3,0.7-4.4
		l-1.9-0.6l1.1-3.2l1.9,0.6c0.6-1.4,1.3-2.7,2.1-4l-1.6-1.2l2-2.7l1.6,1.2c1-1.1,2-2.2,3.2-3.2l-1.1-1.6l2.8-2l1.1,1.6
		c1.3-0.8,2.6-1.4,4-2l-0.6-1.9l3.2-1l0.6,1.9c1.4-0.3,2.9-0.6,4.4-0.7L140.2,18 M135.4,38c1.7-1.6,4-2.5,6.4-2.5c0.3,0,0.7,0,1,0.1
		l3.4-10.3c-1.5-0.3-3-0.5-4.5-0.5c-5.8,0-11.2,2.5-15.1,6.7L135.4,38 M161.9,43.3c-0.6-7.1-5.1-13.6-11.9-16.7l-3.4,10.3
		c2.4,1.4,3.9,3.7,4.5,6.3L161.9,43.3 M124.2,55.2l8.8-6.3c-0.9-2.1-1.1-4.5-0.3-6.8c0.1-0.3,0.2-0.5,0.4-0.8l-8.7-6.5
		c-0.7,1.2-1.3,2.5-1.8,3.9C120.6,44.4,121.4,50.4,124.2,55.2 M141.7,51.3c1.3,0,2.6-0.4,3.7-1.2c1-0.7,1.8-1.7,2.2-3
		c0,0,0-0.1,0.1-0.1c0.4-1.3,0.4-2.7,0-3.9c-0.4-1.2-1.1-2.3-2.2-3.1c-0.5-0.4-1.1-0.7-1.8-1c-0.7-0.2-1.3-0.3-2-0.3c0,0,0,0,0,0
		c-1.3,0-2.6,0.4-3.6,1.2c-1,0.7-1.9,1.8-2.3,3.1c0,0,0,0.1,0,0.1c-0.4,1.3-0.4,2.5,0,3.7c0.4,1.3,1.2,2.4,2.4,3.2
		c0.5,0.3,1,0.7,1.6,0.9c0.6,0.2,1.2,0.3,1.8,0.3C141.6,51.3,141.7,51.3,141.7,51.3 M149.7,63.7c5.1-2.2,9.4-6.5,11.3-12.2
		c0.5-1.4,0.8-2.8,0.9-4.2L151,47.2c-0.1,0.3-0.1,0.6-0.2,0.9c-0.8,2.3-2.4,4.1-4.4,5.3L149.7,63.7 M141.7,65.3
		c1.4,0,2.8-0.1,4.2-0.4l-3.3-10.3c-0.3,0-0.6,0-0.9,0c-1,0-2-0.2-3-0.5c-1.3-0.4-2.4-1.1-3.4-2l-8.8,6.3c2.3,2.6,5.3,4.7,8.8,5.8
		C137.4,65,139.6,65.3,141.7,65.3 M140.2,17c-0.5,0-1,0.4-1,1l0,1.1c-0.9,0.1-1.8,0.2-2.8,0.4l-0.3-1c-0.1-0.3-0.3-0.5-0.5-0.6
		c-0.1-0.1-0.3-0.1-0.5-0.1c-0.1,0-0.2,0-0.3,0l-3.2,1c-0.5,0.2-0.8,0.7-0.7,1.3l0.3,1c-0.9,0.4-1.8,0.8-2.5,1.2l-0.6-0.9
		c-0.2-0.2-0.4-0.4-0.6-0.4c-0.1,0-0.1,0-0.2,0c-0.2,0-0.4,0.1-0.6,0.2l-2.8,2c-0.2,0.2-0.4,0.4-0.4,0.6s0,0.5,0.2,0.7l0.6,0.9
		c-0.6,0.6-1.3,1.2-2,2l-0.9-0.7c-0.2-0.1-0.4-0.2-0.6-0.2c0,0-0.1,0-0.1,0c-0.3,0-0.5,0.2-0.7,0.4l-2,2.7c-0.3,0.4-0.2,1.1,0.2,1.4
		l0.9,0.6c-0.4,0.8-0.9,1.6-1.3,2.5l-1-0.3c-0.1,0-0.2-0.1-0.3-0.1c-0.2,0-0.3,0-0.4,0.1c-0.2,0.1-0.4,0.3-0.5,0.6l-1.1,3.2
		c-0.2,0.5,0.1,1.1,0.6,1.3l1,0.3c-0.2,0.9-0.3,1.8-0.4,2.8l-1.1,0c0,0,0,0,0,0c-0.3,0-0.5,0.1-0.7,0.3c-0.2,0.2-0.3,0.4-0.3,0.7
		l0,3.4c0,0.6,0.4,1,1,1l1.2,0c0.1,0.9,0.2,1.8,0.4,2.7l-1.1,0.4c-0.5,0.2-0.8,0.7-0.7,1.3l1,3.2c0.1,0.3,0.3,0.5,0.5,0.6
		c0.1,0.1,0.3,0.1,0.5,0.1c0.1,0,0.2,0,0.3,0l1.1-0.3c0.4,0.8,0.8,1.6,1.2,2.5l-0.9,0.7c-0.2,0.2-0.4,0.4-0.4,0.6s0,0.5,0.2,0.7
		l2,2.8c0.2,0.3,0.5,0.4,0.8,0.4c0.2,0,0.4-0.1,0.6-0.2l0.9-0.6c0.6,0.6,1.2,1.3,2,2l-0.7,0.9c-0.3,0.4-0.2,1.1,0.2,1.4l2.7,2
		c0.2,0.1,0.4,0.2,0.6,0.2c0.3,0,0.6-0.1,0.8-0.4l0.7-0.9c0.8,0.4,1.6,0.9,2.5,1.3l-0.3,1c-0.2,0.5,0.1,1.1,0.6,1.3l3.2,1.1
		c0.1,0,0.2,0.1,0.3,0.1c0.2,0,0.3,0,0.4-0.1c0.2-0.1,0.4-0.3,0.5-0.6l0.3-1c0.9,0.2,1.8,0.3,2.8,0.4l0,1.1c0,0.6,0.4,1,1,1l3.4,0
		c0,0,0,0,0,0c0.5,0,1-0.4,1-1l0-1.2c0.9-0.1,1.8-0.2,2.7-0.4l0.4,1.1c0.1,0.3,0.3,0.5,0.5,0.6c0.1,0.1,0.3,0.1,0.5,0.1
		c0.1,0,0.2,0,0.3,0l3.2-1c0.5-0.2,0.8-0.7,0.7-1.3l-0.3-1.1c0.8-0.4,1.6-0.8,2.5-1.2l0.7,0.9c0.2,0.2,0.4,0.4,0.6,0.4
		c0.1,0,0.1,0,0.2,0c0.2,0,0.4-0.1,0.6-0.2l2.8-2c0.4-0.3,0.6-0.9,0.2-1.4l-0.6-0.9c0.6-0.6,1.3-1.2,2-2l0.9,0.7
		c0.2,0.1,0.4,0.2,0.6,0.2c0,0,0.1,0,0.1,0c0.3,0,0.5-0.2,0.7-0.4l2-2.7c0.2-0.2,0.2-0.5,0.2-0.7c0-0.3-0.2-0.5-0.4-0.7l-0.9-0.7
		c0.4-0.8,0.9-1.6,1.3-2.5l1,0.3c0.1,0,0.2,0.1,0.3,0.1c0.2,0,0.3,0,0.4-0.1c0.2-0.1,0.4-0.3,0.5-0.6l1.1-3.2
		c0.2-0.5-0.1-1.1-0.6-1.3l-1-0.3c0.2-0.9,0.3-1.8,0.4-2.8l1.1,0c0,0,0,0,0,0c0.5,0,1-0.4,1-1l0-3.4c0-0.3-0.1-0.5-0.3-0.7
		c-0.2-0.2-0.4-0.3-0.7-0.3l-1.2,0c-0.1-0.9-0.2-1.8-0.4-2.7l1.1-0.4c0.3-0.1,0.5-0.3,0.6-0.5c0.1-0.2,0.1-0.5,0.1-0.8l-1-3.2
		c-0.1-0.4-0.5-0.7-1-0.7c-0.1,0-0.2,0-0.3,0l-1.1,0.3c-0.4-0.8-0.8-1.6-1.2-2.5l0.9-0.7c0.4-0.3,0.6-0.9,0.2-1.4l-2-2.8
		c-0.2-0.3-0.5-0.4-0.8-0.4c-0.2,0-0.4,0.1-0.6,0.2l-0.9,0.6c-0.6-0.6-1.2-1.3-2-2l0.7-0.9c0.3-0.4,0.2-1.1-0.2-1.4l-2.7-2
		c-0.2-0.1-0.4-0.2-0.6-0.2c-0.3,0-0.6,0.1-0.8,0.4l-0.7,0.9c-0.8-0.4-1.6-0.9-2.5-1.3l0.3-1c0.2-0.5-0.1-1.1-0.6-1.3l-3.2-1.1
		c-0.1,0-0.2-0.1-0.3-0.1c-0.2,0-0.3,0-0.4,0.1c-0.2,0.1-0.4,0.3-0.5,0.6l-0.3,1c-0.9-0.2-1.8-0.3-2.8-0.4l0-1.1
		c0-0.3-0.1-0.5-0.3-0.7c-0.2-0.2-0.4-0.3-0.7-0.3L140.2,17C140.3,17,140.2,17,140.2,17L140.2,17z M128.2,31.4
		c3.6-3.6,8.5-5.6,13.5-5.6c1.1,0,2.1,0.1,3.2,0.3l-2.8,8.4c-0.1,0-0.2,0-0.3,0c-2.3,0-4.5,0.8-6.4,2.2L128.2,31.4L128.2,31.4z
		 M147.8,36.5l2.8-8.4c5.5,2.8,9.3,8.2,10.2,14.3l-8.9-0.1C151.2,39.9,149.7,37.8,147.8,36.5L147.8,36.5z M124.6,53.7
		c-2.3-4.6-2.7-9.9-1.1-14.7c0.3-0.9,0.7-1.8,1.2-2.7l7.2,5.3c0,0.1,0,0.1-0.1,0.2c-0.7,2.2-0.7,4.6,0.1,6.8L124.6,53.7L124.6,53.7z
		 M136.8,43.4c0.4-1,1-1.9,1.9-2.6c0.9-0.6,1.9-1,3-1c0,0,0,0,0,0c0.7,0,1.2,0.1,1.7,0.2c0.5,0.2,1,0.4,1.5,0.8
		c0.9,0.7,1.5,1.6,1.8,2.6c0.3,1.1,0.3,2.2,0,3.2c0,0.1,0,0.1-0.1,0.2c-0.4,1-1,1.9-1.9,2.5c-0.9,0.6-2,1-3.1,1l-0.1,0
		c-0.6,0-1.1-0.1-1.5-0.2c-0.4-0.1-0.9-0.4-1.4-0.7c-1-0.7-1.6-1.6-2-2.7c-0.3-1-0.3-2.1,0-3.1C136.7,43.5,136.7,43.4,136.8,43.4
		L136.8,43.4z M147.6,53.8c1.9-1.3,3.4-3.2,4.1-5.4c0-0.1,0-0.1,0.1-0.2l8.9,0.1c-0.2,1-0.4,1.9-0.7,2.9c-1.6,4.8-5.1,8.8-9.7,11.1
		L147.6,53.8L147.6,53.8z M128.1,58.6l7.2-5.2c0.9,0.7,2,1.3,3.1,1.7c1.1,0.4,2.2,0.5,3.3,0.5c0.1,0,0.1,0,0.2,0l2.7,8.5
		c-1,0.1-1.9,0.2-2.9,0.2c-2.1,0-4.1-0.3-6-1C132.8,62.4,130.2,60.8,128.1,58.6L128.1,58.6z"/>
</g>
<g>
	<path class="st3" d="M78.9,53.3c0-0.5,0-1-0.1-1.6l2.2-0.4l-0.5-2.7l-2.2,0.4c-0.3-1-0.6-2-1.1-2.9l1.9-1.1l-1.4-2.4l-1.9,1.1
		c-0.6-0.9-1.3-1.7-2-2.4l1.4-1.7L73.2,38l-1.4,1.7c-0.8-0.6-1.7-1.1-2.7-1.6l0.8-2.1l-2.6-0.9l-0.8,2.1c-1-0.3-2-0.5-3.1-0.5v-2.2
		h-2.7v2.2c-1,0.1-2.1,0.3-3.1,0.5L57,35.1L54.4,36l0.8,2.1c-0.9,0.4-1.8,1-2.7,1.6L51.1,38L49,39.7l1.4,1.7c-0.7,0.7-1.4,1.5-2,2.4
		l-1.9-1.1L45.1,45l1.9,1.1c-0.4,0.9-0.8,1.9-1.1,2.9l-2.2-0.4l-0.5,2.7l2.2,0.4c0,0.5-0.1,1-0.1,1.6s0,1,0.1,1.6l-2.2,0.4l0.5,2.7
		l2.2-0.4c0.3,1,0.6,2,1.1,2.9l-1.9,1.1l1.4,2.4l1.9-1.1c0.6,0.9,1.3,1.7,2,2.4L49,66.9l2.1,1.7l1.4-1.7c0.8,0.6,1.7,1.1,2.7,1.6
		l-0.8,2.1l2.6,0.9l0.8-2.1c1,0.3,2,0.5,3.1,0.5v2.2h2.7V70c1-0.1,2.1-0.3,3.1-0.5l0.8,2.1l2.6-0.9l-0.8-2.1c0.9-0.4,1.8-1,2.7-1.6
		l1.4,1.7l2.1-1.7l-1.4-1.7c0.7-0.7,1.4-1.5,2-2.4l1.9,1.1l1.4-2.4l-1.9-1.1c0.4-0.9,0.8-1.9,1.1-2.9l2.2,0.4l0.5-2.7l-2.2-0.4
		C78.8,54.3,78.9,53.8,78.9,53.3z M62.1,67.1c-7.6,0-13.8-6.2-13.8-13.8s6.2-13.8,13.8-13.8s13.8,6.2,13.8,13.8S69.8,67.1,62.1,67.1
		z"/>
	<path class="st3" d="M62.1,41.1c-6.7,0-12.2,5.5-12.2,12.2s5.5,12.2,12.2,12.2S74.3,60,74.3,53.3S68.9,41.1,62.1,41.1z M62.1,61.5
		c-4.5,0-8.2-3.7-8.2-8.2s3.7-8.2,8.2-8.2s8.2,3.7,8.2,8.2S66.7,61.5,62.1,61.5z"/>
</g>
<g>
	<path class="st3" d="M65.2,88.7c0-1.9,0.9-3.6,2.3-4.7c-0.3-1-0.7-2-1.2-2.9c-1.8,0.2-3.6-0.4-4.9-1.7c-1.3-1.3-1.9-3.2-1.7-4.9
		c-0.9-0.5-1.9-0.9-2.9-1.2c-1.1,1.4-2.8,2.3-4.7,2.3c-1.9,0-3.6-0.9-4.7-2.3c-1,0.3-2,0.7-2.9,1.2c0.2,1.8-0.4,3.6-1.7,4.9
		c-1.3,1.3-3.2,1.9-4.9,1.7C37.4,82,37,83,36.7,84c1.4,1.1,2.3,2.8,2.3,4.7c0,1.9-0.9,3.6-2.3,4.7c0.3,1,0.7,2,1.2,2.9
		c1.8-0.2,3.6,0.4,4.9,1.7c1.3,1.3,1.9,3.2,1.7,4.9c0.9,0.5,1.9,0.9,2.9,1.2c1.1-1.4,2.8-2.3,4.7-2.3s3.6,0.9,4.7,2.3
		c1-0.3,2-0.7,2.9-1.2c-0.2-1.8,0.4-3.6,1.7-4.9c1.3-1.3,3.2-1.9,4.9-1.7c0.5-0.9,0.9-1.9,1.2-2.9C66.1,92.2,65.2,90.6,65.2,88.7z
		 M52.1,97c-4.6,0-8.3-3.7-8.3-8.3s3.7-8.3,8.3-8.3s8.3,3.7,8.3,8.3S56.7,97,52.1,97z"/>
</g>
<g>
	<path class="st3" d="M38.4,113.2l0.7-2.1l-1.2-0.4c0.3-1,0.4-1.9,0.5-2.9l1.3,0l0-2.2l-1.4,0c-0.1-1-0.2-2-0.5-2.9l1.3-0.4
		l-0.7-2.1l-1.3,0.4c-0.4-0.9-0.8-1.8-1.3-2.6l1.1-0.8l-1.3-1.8L34.6,96c-0.6-0.8-1.3-1.4-2.1-2.1l0.8-1.1l-1.8-1.3l-0.8,1.1
		c-0.8-0.5-1.7-1-2.6-1.4l0.4-1.3l-2.1-0.7L26,90.5C25,90.2,24,90.1,23,90l0-1.3l-2.2,0l0,1.3c-1,0.1-2,0.2-2.9,0.5l-0.4-1.3
		l-2.1,0.7l0.4,1.3c-0.9,0.4-1.8,0.8-2.7,1.3l-0.8-1.1l-1.8,1.3l0.8,1.1c-0.8,0.6-1.4,1.3-2.1,2.1L8.1,95l-1.3,1.8l1.1,0.8
		c-0.5,0.8-1,1.7-1.4,2.6l-1.3-0.4l-0.7,2.1l1.2,0.4c-0.3,1-0.4,1.9-0.5,2.9l-1.3,0l0,2.2l1.4,0c0.1,1,0.2,2,0.5,2.9l-1.3,0.4
		l0.7,2.1l1.3-0.4c0.4,0.9,0.8,1.8,1.3,2.6L6.6,116l1.3,1.8L9,117c0.6,0.8,1.3,1.4,2.1,2.1l-0.8,1.1l1.8,1.3l0.8-1.1
		c0.8,0.5,1.7,1,2.6,1.4l-0.4,1.3l2.1,0.7l0.4-1.2c1,0.3,1.9,0.4,2.9,0.5l0,1.3l2.2,0l0-1.4c1-0.1,2-0.2,2.9-0.5l0.4,1.3l2.1-0.7
		l-0.4-1.3c0.9-0.4,1.8-0.8,2.6-1.3l0.8,1.1l1.8-1.3l-0.8-1.1c0.8-0.6,1.4-1.3,2.1-2.1l1.1,0.8l1.3-1.8l-1.1-0.8
		c0.5-0.8,1-1.7,1.4-2.6L38.4,113.2z M27.2,94.3c4.5,2,7.4,6.3,7.8,11l-7.2-0.1c-0.3-1.7-1.4-3.3-2.9-4.2L27.2,94.3z M23.1,102.6
		c0.4,0.1,0.8,0.4,1.2,0.6c0.7,0.5,1.2,1.2,1.4,2c0.3,0.8,0.3,1.7,0,2.6c0,0,0,0.1,0,0.1c-0.3,0.8-0.8,1.5-1.5,1.9
		c-0.7,0.5-1.6,0.8-2.5,0.8c-0.4,0-0.8-0.1-1.2-0.2c-0.4-0.1-0.7-0.3-1.1-0.6c-0.7-0.5-1.3-1.3-1.6-2.1c-0.2-0.8-0.3-1.6,0-2.4
		c0,0,0-0.1,0-0.1c0.3-0.9,0.8-1.6,1.5-2c0.7-0.5,1.5-0.8,2.4-0.8C22.2,102.4,22.7,102.4,23.1,102.6z M24.7,93.5l-2.3,6.8
		c-1.8-0.2-3.6,0.4-4.9,1.6l-5.8-4.2C15,94.1,19.9,92.4,24.7,93.5z M10.2,113.2c-1.8-3.2-2.4-7.1-1.1-10.9c0.3-0.9,0.7-1.8,1.2-2.6
		l5.8,4.3c-0.1,0.2-0.2,0.3-0.2,0.5c-0.5,1.5-0.4,3.1,0.2,4.5L10.2,113.2z M17.6,119.2c-2.3-0.8-4.3-2.1-5.8-3.9l5.8-4.1
		c0.6,0.6,1.4,1,2.2,1.3c0.9,0.3,1.7,0.4,2.6,0.3l2.1,6.8C22.3,120,19.9,120,17.6,119.2z M27,118.8l-2.2-6.8
		c1.3-0.7,2.4-1.9,2.9-3.5c0.1-0.2,0.1-0.4,0.1-0.6l7.2,0.1c-0.1,0.9-0.3,1.8-0.6,2.8C33.2,114.5,30.4,117.3,27,118.8z"/>
</g>
<path class="st3" d="M187.8,82.3v-1.7h-1.1c0-0.3,0-0.6,0-0.8l1-0.2l-0.3-1.7l-1,0.2c-0.1-0.3-0.1-0.5-0.2-0.8l1-0.3l-0.5-1.7
	l-1,0.3c-0.1-0.3-0.2-0.5-0.3-0.8l0.9-0.5l-0.8-1.6l-0.9,0.5c-0.1-0.2-0.3-0.5-0.4-0.7l0.9-0.6l-1-1.4L183,71
	c-0.2-0.2-0.4-0.4-0.6-0.6l0.8-0.8l-1.2-1.2l-0.8,0.8c-0.2-0.2-0.4-0.4-0.6-0.6l0.6-0.9l-1.4-1l-0.6,0.9c-0.2-0.2-0.5-0.3-0.7-0.4
	l0.5-0.9l-1.6-0.8l-0.5,0.9c-0.3-0.1-0.5-0.2-0.8-0.3l0.3-1l-1.7-0.5l-0.3,1c-0.3-0.1-0.5-0.1-0.8-0.2l0.2-1l-1.7-0.3l-0.2,1
	c-0.3,0-0.6,0-0.8,0v-1.1h-1.7V65c-0.3,0-0.6,0-0.8,0l-0.2-1l-1.7,0.3l0.2,1c-0.3,0.1-0.5,0.1-0.8,0.2l-0.3-1l-1.7,0.5l0.3,1
	c-0.3,0.1-0.5,0.2-0.8,0.3l-0.5-0.9l-1.6,0.8l0.5,0.9c-0.2,0.1-0.5,0.3-0.7,0.4l-0.6-0.9l-1.4,1l0.6,0.9c-0.2,0.2-0.4,0.4-0.6,0.6
	l-0.8-0.8l-1.2,1.2l0.8,0.8c-0.2,0.2-0.4,0.4-0.6,0.6l-0.9-0.6l-1,1.4l0.9,0.6c-0.2,0.2-0.3,0.5-0.4,0.7l-0.9-0.5l-0.8,1.6l0.9,0.5
	c-0.1,0.3-0.2,0.5-0.3,0.8l-1-0.3l-0.5,1.7l1,0.3c-0.1,0.3-0.1,0.5-0.2,0.8l-1-0.2l-0.3,1.7l1,0.2c0,0.3,0,0.6,0,0.8h-1.1v1.7h1.1
	c0,0.3,0,0.6,0,0.8l-1,0.2l0.3,1.7l1-0.2c0.1,0.3,0.1,0.5,0.2,0.8l-1,0.3l0.5,1.7l1-0.3c0.1,0.3,0.2,0.5,0.3,0.8l-0.9,0.5l0.8,1.6
	l0.9-0.5c0.1,0.2,0.3,0.5,0.4,0.7l-0.9,0.6l1,1.4l0.9-0.6c0.2,0.2,0.4,0.4,0.6,0.6l-0.8,0.8l1.2,1.2l0.8-0.8
	c0.2,0.2,0.4,0.4,0.6,0.6l-0.6,0.9l1.4,1l0.6-0.9c0.2,0.2,0.5,0.3,0.7,0.4l-0.5,0.9l1.6,0.8l0.5-0.9c0.3,0.1,0.5,0.2,0.8,0.3l-0.3,1
	l1.7,0.5l0.3-1c0.3,0.1,0.5,0.1,0.8,0.2l-0.2,1l1.7,0.3l0.2-1c0.3,0,0.6,0,0.8,0v1.1h1.7v-1.1c0.3,0,0.6,0,0.8,0l0.2,1l1.7-0.3
	l-0.2-1c0.3-0.1,0.5-0.1,0.8-0.2l0.3,1l1.7-0.5l-0.3-1c0.3-0.1,0.5-0.2,0.8-0.3l0.5,0.9l1.6-0.8l-0.5-0.9c0.2-0.1,0.5-0.3,0.7-0.4
	l0.6,0.9l1.4-1l-0.6-0.9c0.2-0.2,0.4-0.4,0.6-0.6l0.8,0.8l1.2-1.2l-0.8-0.8c0.2-0.2,0.4-0.4,0.6-0.6l0.9,0.6l1-1.4l-0.9-0.6
	c0.2-0.2,0.3-0.5,0.4-0.7l0.9,0.5l0.8-1.6l-0.9-0.5c0.1-0.3,0.2-0.5,0.3-0.8l1,0.3l0.5-1.7l-1-0.3c0.1-0.3,0.1-0.5,0.2-0.8l1,0.2
	l0.3-1.7l-1-0.2c0-0.3,0-0.6,0-0.8H187.8z M163.6,88.8c-1.5,0.8-3.3,0.3-4.1-1.1c-0.8-1.5-0.3-3.3,1.1-4.1c1.5-0.8,3.3-0.3,4.1,1.1
	C165.5,86.1,165,87.9,163.6,88.8z M164.7,78.2c-0.8,1.5-2.7,1.9-4.1,1.1c-1.5-0.8-1.9-2.7-1.1-4.1c0.8-1.5,2.7-1.9,4.1-1.1
	C165,74.9,165.5,76.7,164.7,78.2z M170.3,93.9c-1.7,0-3-1.4-3-3c0-1.7,1.4-3,3-3c1.7,0,3,1.4,3,3C173.3,92.6,172,93.9,170.3,93.9z
	 M168.8,78.8c1.5-0.8,3.3-0.3,4.1,1.1c0.8,1.5,0.3,3.3-1.1,4.1c-1.5,0.8-3.3,0.3-4.1-1.1C166.8,81.5,167.3,79.6,168.8,78.8z
	 M170.3,74.9c-1.7,0-3-1.4-3-3c0-1.7,1.4-3,3-3c1.7,0,3,1.4,3,3C173.3,73.6,172,74.9,170.3,74.9z M181.1,87.7
	c-0.8,1.5-2.7,1.9-4.1,1.1c-1.5-0.8-1.9-2.7-1.1-4.1c0.8-1.5,2.7-1.9,4.1-1.1C181.5,84.4,182,86.2,181.1,87.7z M180,79.3
	c-1.5,0.8-3.3,0.3-4.1-1.1c-0.8-1.5-0.3-3.3,1.1-4.1c1.5-0.8,3.3-0.3,4.1,1.1C182,76.6,181.5,78.4,180,79.3z"/>
<path class="st3" d="M109.6,40.8c0-1.1,0.9-1.7,1.9-1.9c0.6-0.2,1.2-0.3,1.6-0.4c-0.2-1.3-0.5-2.5-1-3.7c-0.4,0.1-1,0.3-1.6,0.5
	c-1,0.3-2.1,0.2-2.6-0.7c-0.5-0.9-0.1-1.9,0.7-2.6c0.5-0.5,0.9-0.8,1.2-1.2c-0.8-1-1.7-1.9-2.7-2.7c-0.3,0.3-0.7,0.7-1.2,1.2
	c-0.7,0.8-1.7,1.2-2.6,0.7c-0.9-0.5-1-1.6-0.7-2.6c0.2-0.6,0.3-1.2,0.5-1.6c-1.2-0.5-2.4-0.8-3.7-1c-0.1,0.4-0.2,1-0.4,1.6
	c-0.3,1-0.9,1.9-1.9,1.9s-1.7-0.9-1.9-1.9c-0.2-0.6-0.3-1.2-0.4-1.6c-1.3,0.2-2.5,0.5-3.7,1c0.1,0.4,0.3,1,0.5,1.6
	c0.3,1,0.2,2.1-0.7,2.6c-0.9,0.5-1.9,0.1-2.6-0.7c-0.5-0.5-0.8-0.9-1.2-1.2c-1,0.8-1.9,1.7-2.7,2.7c0.3,0.3,0.7,0.7,1.2,1.2
	c0.8,0.7,1.2,1.7,0.7,2.6c-0.5,0.9-1.6,1-2.6,0.7c-0.6-0.2-1.2-0.3-1.6-0.5c-0.5,1.2-0.8,2.4-1,3.7c0.4,0.1,1,0.2,1.6,0.4
	c1,0.3,1.9,0.9,1.9,1.9c0,1.1-0.9,1.7-1.9,1.9c-0.6,0.2-1.2,0.3-1.6,0.4c0.2,1.3,0.5,2.5,1,3.7c0.4-0.1,1-0.3,1.6-0.5
	c1-0.3,2.1-0.2,2.6,0.7c0.5,0.9,0.1,1.9-0.7,2.6c-0.5,0.5-0.9,0.8-1.2,1.2c0.8,1,1.7,1.9,2.7,2.7c0.3-0.3,0.7-0.7,1.2-1.2
	c0.7-0.8,1.7-1.2,2.6-0.7c0.9,0.5,1,1.6,0.7,2.6c-0.2,0.6-0.3,1.2-0.5,1.6c1.2,0.5,2.4,0.8,3.7,1c0.1-0.4,0.2-1,0.4-1.6
	c0.3-1,0.9-1.9,1.9-1.9s1.7,0.9,1.9,1.9c0.2,0.6,0.3,1.2,0.4,1.6c1.3-0.2,2.5-0.5,3.7-1c-0.1-0.4-0.3-1-0.5-1.6
	c-0.3-1-0.2-2.1,0.7-2.6c0.9-0.5,1.9-0.1,2.6,0.7c0.5,0.5,0.8,0.9,1.2,1.2c1-0.8,1.9-1.7,2.7-2.7c-0.3-0.3-0.7-0.7-1.2-1.2
	c-0.8-0.7-1.2-1.7-0.7-2.6c0.5-0.9,1.6-1,2.6-0.7c0.6,0.2,1.2,0.3,1.6,0.5c0.5-1.2,0.8-2.4,1-3.7c-0.4-0.1-1-0.2-1.6-0.4
	C110.5,42.4,109.6,41.8,109.6,40.8z M97.2,48.5c-4.3,0-7.8-3.5-7.8-7.8c0-4.3,3.5-7.8,7.8-7.8s7.8,3.5,7.8,7.8
	C105,45.1,101.5,48.5,97.2,48.5z"/>
<path class="st3" d="M151.7,87.2l-1.4-0.9l1.2-1.1l-0.2-1l-1.6-0.5l0.8-1.5l-0.5-0.9l-1.7,0.1l0.3-1.6l-0.8-0.7l-1.6,0.6l-0.2-1.7
	l-1-0.4l-1.3,1l-0.7-1.5l-1.1-0.1l-0.9,1.4L140,77l-1,0.2l-0.5,1.6l-1.5-0.8l-0.9,0.5l0.1,1.7l-1.6-0.3l-0.7,0.8l0.6,1.6l-1.7,0.2
	l-0.4,1l1,1.3l-1.5,0.7l-0.1,1.1l1.4,0.9l-1.2,1.1l0.2,1l1.6,0.5l-0.8,1.5l0.5,0.9l1.7-0.1l-0.3,1.6l0.8,0.7l1.6-0.6l0.2,1.7l1,0.4
	l1.3-1l0.7,1.5l1.1,0.1l0.9-1.4l1.1,1.2l1-0.2l0.5-1.6l1.5,0.8l0.9-0.5l-0.1-1.7l1.6,0.3l0.7-0.8l-0.6-1.6l1.7-0.2l0.4-1l-1-1.3
	l1.5-0.7L151.7,87.2z M146.2,88.7c-1,2.5-3.9,3.6-6.3,2.6c-2.5-1-3.6-3.9-2.6-6.3c1-2.5,3.9-3.6,6.3-2.6S147.2,86.3,146.2,88.7z"/>
</svg>
