<?xml version="1.0" encoding="utf-8"?>
<!-- Generator: Adobe Illustrator 19.2.1, SVG Export Plug-In . SVG Version: 6.00 Build 0)  -->
<svg version="1.1" id="Layer_1" xmlns="http://www.w3.org/2000/svg" xmlns:xlink="http://www.w3.org/1999/xlink" x="0px" y="0px"
	 viewBox="0 0 200 200" style="enable-background:new 0 0 200 200;" xml:space="preserve">
<style type="text/css">
	.st0{fill:#85C443;}
	.st1{fill:#FFFFFF;}
	.st2{fill-rule:evenodd;clip-rule:evenodd;fill:#FFFFFF;}
	.st3{fill:none;stroke:#FFFFFF;stroke-linejoin:bevel;stroke-miterlimit:10;}
</style>
<g>
	<circle class="st0" cx="100" cy="100" r="100"/>
	<g>
		<path class="st1" d="M100,48.2c-16.7,0-30.2,13.5-30.2,30.2h60.3C130.2,61.7,116.7,48.2,100,48.2z"/>
		<path class="st1" d="M158.5,143.5h-0.7v-27.8h0.7c2.3,0,4.1-1.9,4.1-4.1c0-2.3-1.9-4.1-4.1-4.1h-21.4V88.5h8.7
			c2.3,0,4.1-1.9,4.1-4.1s-1.9-4.1-4.1-4.1H54.3c-2.3,0-4.1,1.9-4.1,4.1s1.9,4.1,4.1,4.1h8.5v18.9H41.5c-2.3,0-4.1,1.9-4.1,4.1
			c0,2.3,1.9,4.1,4.1,4.1h0.7v27.8h-0.7c-2.3,0-4.1,1.9-4.1,4.1s1.9,4.1,4.1,4.1h117c2.3,0,4.1-1.9,4.1-4.1S160.8,143.5,158.5,143.5
			z M66,115.7v27.8h-3.6v-27.8H66z M74.3,115.7H78v27.8h-3.6V115.7z M109.3,107.4V88.5h8.9v18.9H109.3z M104.3,107.4h-8.9V88.5h8.9
			V107.4z M90.5,107.4h-8.9V88.5h8.9V107.4z M86.2,115.7h3.6v27.8h-3.6V115.7z M98.2,115.7h3.6v27.8h-3.6V115.7z M110.1,115.7h3.6
			v27.8h-3.6V115.7z M122,115.7h3.6v27.8H122V115.7z M134,115.7h3.6v27.8H134V115.7z M132.1,107.4h-8.9V88.5h8.9V107.4z M67.7,88.5
			h8.9v18.9h-8.9V88.5z M50.5,115.7h3.6v27.8h-3.6V115.7z M149.5,143.5h-3.6v-27.8h3.6V143.5z"/>
	</g>
</g>
</svg>
