<?xml version="1.0" encoding="utf-8"?>
<!-- Generator: Adobe Illustrator 19.2.1, SVG Export Plug-In . SVG Version: 6.00 Build 0)  -->
<svg version="1.1" id="Layer_1" xmlns="http://www.w3.org/2000/svg" xmlns:xlink="http://www.w3.org/1999/xlink" x="0px" y="0px"
	 viewBox="0 0 200 200" style="enable-background:new 0 0 200 200;" xml:space="preserve">
<style type="text/css">
	.st0{fill:#85C443;}
	.st1{fill:#FFFFFF;}
	.st2{fill-rule:evenodd;clip-rule:evenodd;fill:#FFFFFF;}
	.st3{fill:none;stroke:#FFFFFF;stroke-linejoin:bevel;stroke-miterlimit:10;}
</style>
<g>
	<circle class="st0" cx="100" cy="100" r="100"/>
	<g>
		<path class="st1" d="M100,69.4c-16.9,0-30.6,13.7-30.6,30.6s13.7,30.6,30.6,30.6s30.6-13.7,30.6-30.6S116.9,69.4,100,69.4z
			 M100,125.3c-14,0-25.3-11.3-25.3-25.3c0-14,11.3-25.3,25.3-25.3S125.3,86,125.3,100C125.3,114,114,125.3,100,125.3z"/>
		<path class="st1" d="M146.1,100c0-0.6,0-1.2,0-1.8l14.2-5.8c-0.4-2.9-0.9-5.7-1.7-8.4l-15.3,0.1c-0.4-1.2-0.9-2.3-1.4-3.4
			l10.9-10.8c-1.4-2.5-3-4.9-4.8-7.2l-14.1,6c-0.8-0.9-1.7-1.8-2.6-2.6l6-14.1c-2.3-1.8-4.7-3.4-7.2-4.8l-10.8,10.9
			c-1.1-0.5-2.2-1-3.4-1.4l0.1-15.3c-2.7-0.7-5.6-1.3-8.4-1.7l-5.8,14.2c-0.6,0-1.2,0-1.8,0c-0.6,0-1.2,0-1.8,0l-5.8-14.2
			c-2.9,0.4-5.7,0.9-8.4,1.7l0.1,15.3c-1.2,0.4-2.3,0.9-3.4,1.4L69.9,47.2c-2.5,1.4-4.9,3-7.2,4.8l6,14.1c-0.9,0.8-1.8,1.7-2.6,2.6
			l-14.1-6c-1.8,2.3-3.4,4.7-4.8,7.2l10.9,10.8c-0.5,1.1-1,2.2-1.4,3.4L41.4,84c-0.7,2.7-1.3,5.6-1.7,8.4l14.2,5.8
			c0,0.6,0,1.2,0,1.8s0,1.2,0,1.8l-14.2,5.8c0.4,2.9,0.9,5.7,1.7,8.4l15.3-0.1c0.4,1.2,0.9,2.3,1.4,3.4l-10.9,10.8
			c1.4,2.5,3,4.9,4.8,7.2l14.1-6c0.8,0.9,1.7,1.8,2.6,2.6l-6,14.1c2.3,1.8,4.7,3.4,7.2,4.8l10.8-10.9c1.1,0.5,2.2,1,3.4,1.4
			L84,158.6c2.7,0.7,5.6,1.3,8.4,1.7l5.8-14.2c0.6,0,1.2,0,1.8,0c0.6,0,1.2,0,1.8,0l5.8,14.2c2.9-0.4,5.7-0.9,8.4-1.7l-0.1-15.3
			c1.2-0.4,2.3-0.9,3.4-1.4l10.8,10.9c2.5-1.4,4.9-3,7.2-4.8l-6-14.1c0.9-0.8,1.8-1.7,2.6-2.6l14.1,6c1.8-2.3,3.4-4.7,4.8-7.2
			l-10.9-10.8c0.5-1.1,1-2.2,1.4-3.4l15.3,0.1c0.7-2.7,1.3-5.6,1.7-8.4l-14.2-5.8C146.1,101.2,146.1,100.6,146.1,100z M100,131.9
			c-17.6,0-31.9-14.3-31.9-31.9S82.4,68.1,100,68.1s31.9,14.3,31.9,31.9S117.6,131.9,100,131.9z"/>
	</g>
</g>
</svg>
