<?xml version="1.0" encoding="utf-8"?>
<!-- Generator: Adobe Illustrator 19.1.0, SVG Export Plug-In . SVG Version: 6.00 Build 0)  -->
<svg version="1.1" id="Store" xmlns="http://www.w3.org/2000/svg" xmlns:xlink="http://www.w3.org/1999/xlink" x="0px" y="0px"
	 viewBox="0 0 67.2 63.4" style="enable-background:new 0 0 67.2 63.4;" xml:space="preserve">
<style type="text/css">
	.st0{fill:#676767;}
</style>
<g>
	<g>
		<g>
			<path class="st0" d="M50.5,51.1c0,1.7-1.5,3.1-3.3,3.1H19.5c-1.8,0-3.3-1.4-3.3-3.1V31.4c-1.8,1.4-4.1,2.3-6.6,2.4v22.9
				c0,2.2,1.9,3.9,4.1,3.9H53c2.3,0,4.1-1.8,4.1-3.9V33.8c-2.5-0.1-4.8-1-6.6-2.4V51.1z"/>
		</g>
		<g>
			<polygon class="st0" points="32.3,22 32.3,2.4 21.8,2.4 18.4,22 			"/>
		</g>
		<g>
			<polygon class="st0" points="48.3,22 44.9,2.4 34.4,2.4 34.4,22 			"/>
		</g>
		<g>
			<path class="st0" d="M65.7,22c-0.2-1.1-0.6-2.2-1.2-3.1L59,6.7c-1.1-2.4-4.1-4.3-6.8-4.3H47L50.4,22H65.7z"/>
		</g>
		<g>
			<path class="st0" d="M1,24c0.5,3.8,3.9,6.7,8,6.7c3.8,0,7-2.5,7.9-5.9h0.5c0.9,3.4,4,5.9,7.9,5.9c3.8,0,7-2.5,7.9-5.9h0.5
				c0.9,3.4,4,5.9,7.9,5.9s7-2.5,7.9-5.9h0.5c0.9,3.4,4,5.9,7.9,5.9c4.1,0,7.5-2.9,8-6.7H1z"/>
		</g>
		<g>
			<path class="st0" d="M19.7,2.4h-5.2c-2.7,0-5.8,1.9-6.8,4.3L2.2,18.9c-0.6,0.9-1,1.9-1.1,3h15.2L19.7,2.4z"/>
		</g>
	</g>
	<rect x="29" y="36.9" class="st0" width="2" height="6"/>
	<rect x="38" y="36.9" class="st0" width="2" height="6"/>
</g>
</svg>
