<?xml version="1.0" encoding="utf-8"?>
<!-- Generator: Adobe Illustrator 19.1.0, SVG Export Plug-In . SVG Version: 6.00 Build 0)  -->
<svg version="1.1" id="Company" xmlns="http://www.w3.org/2000/svg" xmlns:xlink="http://www.w3.org/1999/xlink" x="0px" y="0px"
	 viewBox="0 0 67.2 63.4" style="enable-background:new 0 0 67.2 63.4;" xml:space="preserve">
<style type="text/css">
	.st0{fill:#676767;}
</style>
<g>
	<path class="st0" d="M42.5,29.5h18.3v30.4H5.9V17.3h18.3v-6l9.1-9.1l9.1,9.1V29.5z M18.1,29.5v-6.1h-6v6.1H18.1z M18.1,41.7v-6.1
		h-6v6.1H18.1z M18.1,53.8v-6h-6v6H18.1z M36.3,17.3v-6h-6v6H36.3z M36.3,29.5v-6.1h-6v6.1H36.3z M36.3,41.7v-6.1h-6v6.1H36.3z
		 M36.3,53.8v-6h-6v6H36.3z M54.6,41.7v-6.1h-6v6.1H54.6z M54.6,53.8v-6h-6v6H54.6z"/>
</g>
</svg>
