<?xml version="1.0" encoding="utf-8"?>
<!-- Generator: Adobe Illustrator 19.2.1, SVG Export Plug-In . SVG Version: 6.00 Build 0)  -->
<svg version="1.1" id="Layer_1" xmlns="http://www.w3.org/2000/svg" xmlns:xlink="http://www.w3.org/1999/xlink" x="0px" y="0px"
	 viewBox="0 0 200 200" style="enable-background:new 0 0 200 200;" xml:space="preserve">
<style type="text/css">
	.st0{fill:#85C443;}
	.st1{fill:#FFFFFF;}
	.st2{fill-rule:evenodd;clip-rule:evenodd;fill:#FFFFFF;}
	.st3{fill:none;stroke:#FFFFFF;stroke-linejoin:bevel;stroke-miterlimit:10;}
</style>
<g>
	<circle class="st0" cx="100" cy="100" r="100"/>
	<g>
		<path class="st1" d="M141.5,68.5V50.8h-19.3v9.7c0,12.3-10,22.3-22.3,22.3c-12.3,0-22.3-10-22.3-22.3V49.3H58.5V67
			c-1.7,9.5-9.9,16.7-19.9,16.7c-1.4,0-2.8-0.1-4.1-0.4v3.1c0,0,0,0,0,0l0,33.4c0,0.2,0.2,0.4,0.4,0.4h23.6v29h19.3v-29h44.5v1.5v29
			h19.3v-29h23.6c0.2,0,0.4-0.2,0.4-0.4l0-33.4c0,0,0,0,0,0v-3.1c-1.3,0.3-2.7,0.4-4.1,0.4C151.5,85.2,143.2,78,141.5,68.5z
			 M40.9,104h-3.2V86.7c0.3,0,0.6,0,0.9,0c0.8,0,1.5,0,2.3-0.1V104z M47.2,104H44V86.1c1.1-0.3,2.1-0.6,3.2-1V104z M53.6,104h-3.2
			V83.5c1.1-0.7,2.2-1.4,3.2-2.3V104z M58.5,104h-1.7V78c0.6-0.8,1.2-1.6,1.7-2.5V104z M122.3,74.1V104H77.7V72.6
			c0.5,0.9,1,1.8,1.6,2.6V104h3.2V78.8c1,0.9,2,1.8,3.2,2.6V104h3.2V83.3c1,0.5,2.1,0.9,3.2,1.3V104h3.2V85.4c1,0.2,2.1,0.3,3.2,0.4
			V104h3.2V85.8c1.1-0.1,2.1-0.2,3.2-0.4V104h3.2V84.6c1.1-0.4,2.2-0.8,3.2-1.3V104h3.2V81.4c1.1-0.8,2.2-1.6,3.2-2.6V104h3.2V75.2
			c0.6-0.8,1.1-1.7,1.6-2.6V74.1z M143.3,105.5h-1.7V77c0.5,0.9,1.1,1.7,1.7,2.5V105.5z M149.6,105.5h-3.2V82.8
			c1,0.8,2.1,1.6,3.2,2.3V105.5z M156,105.5h-3.2V86.6c1,0.4,2.1,0.8,3.2,1V105.5z M162.3,105.5h-3.2V88.1c0.8,0.1,1.5,0.1,2.3,0.1
			c0.3,0,0.6,0,0.9,0V105.5z"/>
	</g>
</g>
</svg>
