<?xml version="1.0" encoding="utf-8"?>
<!-- Generator: Adobe Illustrator 19.1.0, SVG Export Plug-In . SVG Version: 6.00 Build 0)  -->
<svg version="1.1" id="Layer_1" xmlns="http://www.w3.org/2000/svg" xmlns:xlink="http://www.w3.org/1999/xlink" x="0px" y="0px"
	 viewBox="0 0 25 18" style="enable-background:new 0 0 25 18;" xml:space="preserve">
<style type="text/css">
	.st0{fill:#676767;}
</style>
<g>
	<polygon class="st0" points="7.5,9.1 7.5,10.6 5.3,10.6 5.3,12.9 3.7,12.9 3.7,10.6 1.4,10.6 1.4,9.1 3.7,9.1 3.7,6.8 5.3,6.8 
		5.3,9.1 	"/>
	<path class="st0" d="M19,8.4h4.6V16H9.9V5.3h4.6V3.8l2.3-2.3L19,3.8V8.4z M12.9,8.4V6.8h-1.5v1.5H12.9z M12.9,11.4V9.9h-1.5v1.5
		H12.9z M12.9,14.4v-1.5h-1.5v1.5H12.9z M17.5,5.3V3.8H16v1.5H17.5z M17.5,8.4V6.8H16v1.5H17.5z M17.5,11.4V9.9H16v1.5H17.5z
		 M17.5,14.4v-1.5H16v1.5H17.5z M22,11.4V9.9h-1.5v1.5H22z M22,14.4v-1.5h-1.5v1.5H22z"/>
</g>
</svg>
