<?xml version="1.0" encoding="utf-8"?>
<!-- Generator: Adobe Illustrator 19.2.1, SVG Export Plug-In . SVG Version: 6.00 Build 0)  -->
<svg version="1.1" id="Layer_1" xmlns="http://www.w3.org/2000/svg" xmlns:xlink="http://www.w3.org/1999/xlink" x="0px" y="0px"
	 viewBox="0 0 200 200" style="enable-background:new 0 0 200 200;" xml:space="preserve">
<style type="text/css">
	.st0{fill:#85C443;}
	.st1{fill:#FFFFFF;}
	.st2{fill-rule:evenodd;clip-rule:evenodd;fill:#FFFFFF;}
	.st3{fill:none;stroke:#FFFFFF;stroke-linejoin:bevel;stroke-miterlimit:10;}
</style>
<g>
	<circle class="st0" cx="100" cy="100" r="100"/>
	<path class="st2" d="M100,34.3c0.8,0,1.5,0,2.3,0c2.1,11.9,3.2,24,3.4,36.2c-2.8,1.9-4.7,5-4.7,8.7c0,0.3,0,0.7,0.1,1
		c-5.3,2.9-10.8,5.6-16.3,8.1c-6.2,2.8-12.5,5.4-19,7.8c-1.9-1.9-4.4-3-7.3-3c-2.6,0-5,1-6.8,2.5c-5.3-3.2-10.6-6.6-15.8-10.1
		C42.5,56.2,68.7,34.3,100,34.3L100,34.3z M112.1,35.4c11.9,2.2,22.7,7.6,31.4,15.3c-8.2,7.3-17,13.9-26.2,19.9
		c-0.6-0.4-1.3-0.8-2.1-1.1C115,58.1,114,46.7,112.1,35.4L112.1,35.4z M150.1,57.5c-8.9,7.9-18.3,15.1-28.4,21.5v0.2
		c0,4.5-2.9,8.4-6.9,9.8c-0.1,2.1-0.3,4.2-0.4,6.3c-0.6,7.9-1.6,15.8-2.9,23.8c2.3,1.5,3.9,4,4.4,6.8c13,4.3,26.1,7.5,39.4,9.4
		c6.5-10.2,10.3-22.3,10.3-35.4C165.7,83.8,159.8,69,150.1,57.5L150.1,57.5z M148.9,143.9c-11.9,13.2-29,21.6-48.1,21.8
		c2.8-9.3,5.2-18.6,7.2-27.8c2-0.4,3.8-1.5,5.2-2.9C124.9,138.8,136.8,141.9,148.9,143.9L148.9,143.9z M91,165.1
		c-27-3.7-48.7-23.7-54.9-49.8c5.2-1.3,10.3-2.8,15.3-4.3c1.9,1.8,4.4,2.8,7.1,2.8c1.5,0,3-0.3,4.3-0.9
		c10.8,5.9,21.7,11.1,32.7,15.5c0.2,2.8,1.5,5.2,3.4,7C96.7,145.2,94.1,155.1,91,165.1L91,165.1z M34.6,105.9c3.7-1,7.3-2,10.9-3
		c-3.7-2.3-7.3-4.6-11-7c-0.1,1.4-0.1,2.7-0.1,4.1C34.3,102,34.4,104,34.6,105.9L34.6,105.9z M105.3,88.7c-5.4,2.9-11,5.7-16.7,8.3
		c-6.5,2.9-13.1,5.7-20,8.2l0,0.2c10.1,5.4,20.2,10.2,30.5,14.4c0.9-0.7,1.9-1.3,3-1.7c1.3-7.9,2.2-15.7,2.8-23.5
		C105.1,92.6,105.2,90.7,105.3,88.7z"/>
</g>
</svg>
