<?xml version="1.0" encoding="utf-8"?>
<!-- Generator: Adobe Illustrator 19.2.1, SVG Export Plug-In . SVG Version: 6.00 Build 0)  -->
<svg version="1.1" id="Layer_1" xmlns="http://www.w3.org/2000/svg" xmlns:xlink="http://www.w3.org/1999/xlink" x="0px" y="0px"
	 viewBox="0 0 200 200" style="enable-background:new 0 0 200 200;" xml:space="preserve">
<style type="text/css">
	.st0{fill:#85C443;}
	.st1{fill:#FFFFFF;}
	.st2{fill-rule:evenodd;clip-rule:evenodd;fill:#FFFFFF;}
	.st3{fill:none;stroke:#FFFFFF;stroke-linejoin:bevel;stroke-miterlimit:10;}
</style>
<g>
	<circle class="st0" cx="100" cy="100" r="100"/>
	<path class="st1" d="M157.1,96.3c0-0.1,0-0.1,0-0.2c-0.5-7.5-2.5-14.8-5.8-21.5c-0.2-0.5-0.5-0.9-0.7-1.4c-0.4-0.8-0.9-1.6-1.4-2.4
		c-3.8-6.3-8.8-12-14.7-16.5c-6.7-5.1-14.5-8.6-22.7-10.4c0,0-0.1,0-0.1,0c-3.2-0.7-6.4-1-9.7-1.2c-0.7,0-1.4,0-2,0
		c-0.7,0-1.4,0-2,0c-1.3,0-2.5,0.1-3.8,0.3l-0.1,0c-1.3,0.1-2.6,0.3-3.9,0.5c-8.6,1.5-16.9,5-24,10.2C60,58.4,54.7,64.3,50.7,70.9
		c-0.5,0.8-0.9,1.6-1.3,2.4c-0.2,0.4-0.5,0.9-0.7,1.4c-1.5,3.1-2.7,6.2-3.7,9.4c-1.2,4-1.9,8.2-2.1,12.5l0,0c0,0.1,0,0.2,0,0.2
		c-0.1,1.1-0.1,2.1-0.1,3.2c0,6.6,1.1,13,3.3,19.2c2.1,5.9,5.2,11.4,9.1,16.4c7.8,9.8,18.8,16.9,30.9,19.9c0.1,0,0.2,0,0.2,0.1
		c3.8,0.9,7.7,1.5,11.6,1.6V157l0.3,0.2c0.6,0,1.2,0,1.8,0c0.7,0,1.4,0,2,0c0.5,0,0.9,0,1.4-0.1c3.9-0.2,7.8-0.9,11.6-1.9
		c0.1,0,0.2,0,0.3-0.1c11.8-3.3,22.4-10.4,30-20.1c7.8-10.1,12-22.2,12-35C157.2,98.8,157.1,97.6,157.1,96.3z M53.8,73.9
		c5.5-9.8,14.1-17.5,24.1-22.2c0,0-0.1,0.1-0.1,0.1c-0.1,0.2-0.3,0.3-0.4,0.5c-0.1,0.1-0.1,0.1-0.2,0.2c-0.1,0.1-0.2,0.3-0.3,0.4
		c-0.1,0.1-0.1,0.2-0.2,0.3c-0.1,0.1-0.2,0.2-0.3,0.4c-0.1,0.1-0.1,0.2-0.2,0.3c-0.1,0.1-0.2,0.3-0.3,0.4c-0.1,0.1-0.1,0.2-0.2,0.3
		c-0.1,0.1-0.2,0.3-0.3,0.4c-0.1,0.1-0.1,0.2-0.2,0.3c-0.1,0.1-0.2,0.3-0.3,0.4c-0.1,0.1-0.1,0.2-0.2,0.3c-0.1,0.2-0.2,0.3-0.3,0.5
		c-0.1,0.1-0.1,0.2-0.2,0.2c-0.2,0.2-0.3,0.5-0.5,0.7c-0.2,0.4-0.5,0.8-0.7,1.1c0,0,0,0.1-0.1,0.1c-0.2,0.4-0.4,0.7-0.6,1.1
		c0,0.1-0.1,0.1-0.1,0.2c-0.2,0.4-0.4,0.7-0.6,1.1c0,0.1-0.1,0.1-0.1,0.2c-0.2,0.4-0.4,0.8-0.6,1.2c0,0.1-0.1,0.1-0.1,0.2
		c-0.2,0.4-0.4,0.8-0.6,1.2c0,0,0,0.1-0.1,0.1c-0.2,0.4-0.4,0.9-0.6,1.3c0,0,0,0,0,0c-0.2,0.4-0.4,0.9-0.5,1.3c0,0.1,0,0.1-0.1,0.2
		c-0.2,0.4-0.3,0.9-0.5,1.3c0,0.1-0.1,0.1-0.1,0.2c-0.2,0.4-0.3,0.9-0.5,1.3c0,0.1-0.1,0.2-0.1,0.2c-0.2,0.4-0.3,0.9-0.4,1.3
		c0,0.1,0,0.1-0.1,0.2c-0.1,0.5-0.3,0.9-0.4,1.4c0,0,0,0.1,0,0.1c-0.1,0.5-0.3,1-0.4,1.5c0,0,0,0,0,0c-0.1,0.5-0.3,1-0.4,1.5
		c0,0.1,0,0.1,0,0.2c-0.1,0.5-0.2,1-0.4,1.5c0,0.1,0,0.2-0.1,0.2c-0.1,0.5-0.2,1-0.3,1.5c0,0.1,0,0.2-0.1,0.2
		c-0.1,0.5-0.2,1-0.3,1.5c0,0,0,0.1,0,0.1l0,0l0,0c-0.3-0.1-0.6-0.3-0.9-0.4c-0.1,0-0.2-0.1-0.3-0.1c-0.2-0.1-0.5-0.2-0.7-0.3
		C63.1,80.1,63,80,62.8,80c-0.2-0.1-0.5-0.2-0.7-0.3c-0.1,0-0.2-0.1-0.3-0.1c-0.3-0.2-0.6-0.3-0.9-0.5c-0.1,0-0.1-0.1-0.2-0.1
		c-0.2-0.1-0.5-0.3-0.7-0.4c-0.1-0.1-0.2-0.1-0.3-0.2c-0.2-0.1-0.4-0.2-0.6-0.4c-0.1-0.1-0.2-0.1-0.3-0.2c-0.3-0.2-0.5-0.3-0.8-0.5
		c0,0,0,0,0,0c-0.3-0.2-0.5-0.4-0.8-0.5c-0.1-0.1-0.2-0.1-0.2-0.2c-0.2-0.1-0.4-0.3-0.6-0.4c-0.1-0.1-0.2-0.1-0.2-0.2
		c-0.2-0.1-0.4-0.3-0.6-0.5c0,0-0.1-0.1-0.1-0.1c-0.2-0.2-0.5-0.4-0.7-0.6c-0.1,0-0.1-0.1-0.2-0.1c-0.2-0.1-0.3-0.3-0.5-0.4
		c-0.1-0.1-0.1-0.1-0.2-0.2C53.9,74,53.8,74,53.8,73.9C53.8,73.9,53.8,73.9,53.8,73.9z M47.2,97.7c0-0.2-0.1-0.3-0.1-0.5
		c0-0.1,0-0.2,0-0.2c0-0.1,0-0.2-0.1-0.3c0,0,0,0,0,0c0.4-6.6,2-13,4.8-19c0.1,0.1,0.1,0.1,0.2,0.2c0.1,0.1,0.2,0.1,0.2,0.2
		c0.2,0.2,0.4,0.3,0.6,0.5c0.1,0,0.1,0.1,0.2,0.1c0.3,0.2,0.5,0.4,0.8,0.6c0,0,0.1,0.1,0.1,0.1c0.2,0.2,0.5,0.3,0.7,0.5
		c0.1,0.1,0.2,0.1,0.3,0.2c0.2,0.2,0.5,0.3,0.7,0.5c0.1,0,0.1,0.1,0.2,0.1c0.3,0.2,0.6,0.4,0.9,0.6c0,0,0.1,0,0.1,0.1
		c0.3,0.2,0.6,0.3,0.8,0.5c0.1,0.1,0.2,0.1,0.3,0.2c0.2,0.1,0.5,0.3,0.7,0.4c0.1,0,0.2,0.1,0.2,0.1c0.3,0.2,0.7,0.4,1,0.5
		c0,0,0,0,0,0c0.3,0.2,0.7,0.3,1,0.5c0.1,0,0.2,0.1,0.3,0.1c0.3,0.1,0.5,0.3,0.8,0.4c0.1,0,0.2,0.1,0.3,0.1c0.6,0.3,1.3,0.6,2,0.9
		l0,0c0,0.1,0,0.1,0,0.2c0,0.3-0.1,0.5-0.1,0.8c-0.1,0.4-0.1,0.8-0.2,1.2c0,0.3-0.1,0.5-0.1,0.8c0,0.4-0.1,0.8-0.1,1.2
		c0,0.3-0.1,0.6-0.1,0.8c0,0.4-0.1,0.8-0.1,1.2c0,0.3,0,0.6-0.1,0.9c0,0.4-0.1,0.8-0.1,1.2c0,0.3,0,0.6-0.1,0.8c0,0.4,0,0.8-0.1,1.2
		c0,0.3,0,0.5,0,0.8c0,0.5,0,0.9,0,1.4c0,0.2,0,0.4,0,0.7c0,0.7,0,1.4,0,2c0,0.5,0,1.1,0,1.6c0,0.1,0,0.2,0,0.4c0,0.5,0,1,0,1.5
		c0,0.1,0,0.1,0,0.2c0,0.5,0,0.9,0.1,1.4c0,0.1,0,0.2,0,0.3c0,0.5,0.1,1,0.1,1.5c0,0.1,0,0.2,0,0.3c0,0.5,0.1,0.9,0.1,1.4
		c0,0.1,0,0.1,0,0.2c0,0.5,0.1,1,0.1,1.5c0,0.1,0,0.2,0,0.3c0.1,0.5,0.1,1,0.2,1.5c0,0,0,0,0,0c0.1,0.5,0.1,1,0.2,1.5
		c0,0.1,0,0.1,0,0.2l0,0l0,0c-0.2-0.1-0.4-0.2-0.7-0.3c-0.1,0-0.2-0.1-0.2-0.1c-0.3-0.2-0.6-0.3-0.9-0.5c-0.1-0.1-0.2-0.1-0.3-0.2
		c-0.2-0.1-0.4-0.2-0.6-0.3c-0.1-0.1-0.2-0.1-0.4-0.2c-0.2-0.1-0.4-0.2-0.5-0.3c-0.1-0.1-0.2-0.1-0.4-0.2c-0.2-0.1-0.3-0.2-0.5-0.3
		c-0.1-0.1-0.2-0.1-0.4-0.2c-0.2-0.1-0.3-0.2-0.5-0.3c-0.1-0.1-0.2-0.1-0.4-0.2c-0.2-0.1-0.3-0.2-0.5-0.3c-0.1-0.1-0.2-0.1-0.3-0.2
		c-0.2-0.1-0.3-0.2-0.5-0.3c-0.1-0.1-0.2-0.1-0.3-0.2c-0.2-0.1-0.4-0.3-0.5-0.4c-0.1,0-0.1-0.1-0.2-0.1c-0.2-0.2-0.5-0.4-0.7-0.6
		c-0.1,0-0.1-0.1-0.2-0.1c-0.2-0.1-0.4-0.3-0.5-0.4c-0.1-0.1-0.2-0.1-0.2-0.2c-0.1-0.1-0.3-0.2-0.4-0.4c-0.1-0.1-0.2-0.2-0.3-0.2
		c-0.1-0.1-0.3-0.2-0.4-0.4c-0.1-0.1-0.2-0.2-0.3-0.2c-0.1-0.1-0.2-0.2-0.4-0.4c-0.1-0.1-0.2-0.2-0.2-0.2c-0.1-0.1-0.2-0.2-0.4-0.4
		c-0.1-0.1-0.2-0.2-0.2-0.2c-0.1-0.1-0.2-0.3-0.3-0.4c-0.1-0.1-0.1-0.1-0.2-0.2c-0.1-0.1-0.3-0.3-0.4-0.4c0-0.1-0.1-0.1-0.1-0.2
		c-0.2-0.2-0.3-0.4-0.5-0.6c0,0,0,0,0,0c-0.2-0.2-0.3-0.4-0.4-0.6c0-0.1-0.1-0.1-0.1-0.2c-0.1-0.1-0.2-0.3-0.3-0.4
		c-0.1-0.1-0.1-0.2-0.1-0.2c-0.1-0.1-0.2-0.3-0.2-0.4c0-0.1-0.1-0.2-0.1-0.3c-0.1-0.1-0.1-0.3-0.2-0.4c0-0.1-0.1-0.2-0.1-0.3
		c-0.1-0.1-0.1-0.3-0.2-0.4c0-0.1-0.1-0.2-0.1-0.3c-0.1-0.1-0.1-0.3-0.2-0.4c0-0.1-0.1-0.2-0.1-0.2c-0.1-0.1-0.1-0.3-0.2-0.5
		c0-0.1-0.1-0.1-0.1-0.2c-0.1-0.2-0.1-0.4-0.2-0.6c0,0,0,0,0,0c-0.1-0.2-0.1-0.4-0.2-0.7C47.3,97.8,47.3,97.7,47.2,97.7z
		 M47.3,106.7C47.3,106.7,47.3,106.7,47.3,106.7c0.1,0.1,0.1,0.1,0.1,0.1c0.2,0.2,0.3,0.4,0.5,0.6c0,0,0.1,0.1,0.1,0.1
		c0.2,0.2,0.4,0.4,0.6,0.7c0,0,0.1,0.1,0.1,0.1c0.2,0.2,0.4,0.4,0.6,0.6c0,0,0,0.1,0.1,0.1c0.2,0.2,0.4,0.4,0.6,0.6
		c0,0,0.1,0.1,0.1,0.1c0.2,0.2,0.4,0.4,0.7,0.6c0,0,0.1,0.1,0.1,0.1c0.2,0.2,0.5,0.4,0.7,0.6c0,0,0.1,0,0.1,0.1
		c0.2,0.2,0.5,0.4,0.7,0.6c0,0,0.1,0.1,0.1,0.1c0.2,0.2,0.5,0.4,0.7,0.6c0.1,0,0.1,0.1,0.2,0.1c0.3,0.2,0.5,0.4,0.8,0.6
		c0,0,0.1,0,0.1,0.1c0.3,0.2,0.5,0.4,0.8,0.6c0,0,0.1,0.1,0.1,0.1c0.3,0.2,0.6,0.4,0.8,0.6c0.1,0,0.1,0.1,0.2,0.1
		c0.3,0.2,0.6,0.4,0.9,0.6c0,0,0.1,0,0.1,0c0.3,0.2,0.6,0.4,0.9,0.5c0,0,0.1,0.1,0.1,0.1c0.3,0.2,0.6,0.4,0.9,0.5
		c0.1,0,0.1,0.1,0.2,0.1c0.3,0.2,0.6,0.3,1,0.5c0,0,0.1,0,0.1,0c0.3,0.2,0.6,0.3,1,0.5c0,0,0.1,0.1,0.1,0.1c0.3,0.2,0.7,0.3,1,0.5
		c0.1,0,0.1,0.1,0.2,0.1c0.3,0.2,0.7,0.3,1,0.5c0,0,0.1,0,0.1,0c0.3,0.1,0.7,0.3,1,0.4c0.1,0,0.1,0,0.2,0.1l0.2,0.3
		c0,0.2,0.1,0.5,0.1,0.7c0,0.1,0,0.2,0.1,0.3c0.1,0.3,0.1,0.6,0.2,1c0,0,0,0,0,0c0.1,0.3,0.1,0.7,0.2,1c0,0.1,0,0.2,0.1,0.3
		c0.1,0.3,0.1,0.5,0.2,0.8c0,0.1,0,0.2,0.1,0.3c0.1,0.3,0.1,0.6,0.2,0.9c0,0,0,0.1,0,0.1c0.1,0.3,0.2,0.6,0.3,1c0,0.1,0,0.2,0.1,0.2
		c0.1,0.2,0.1,0.5,0.2,0.7c0,0.1,0.1,0.2,0.1,0.3c0.1,0.3,0.2,0.5,0.2,0.8c0,0,0,0.1,0,0.1c0.1,0.3,0.2,0.6,0.3,0.9
		c0,0.1,0,0.1,0.1,0.2c0.1,0.2,0.1,0.5,0.2,0.7c0,0.1,0.1,0.2,0.1,0.3c0.1,0.2,0.2,0.5,0.2,0.7c0,0.1,0,0.1,0.1,0.2
		c0.1,0.3,0.2,0.6,0.3,0.9c0,0.1,0,0.1,0.1,0.2c0.1,0.2,0.2,0.5,0.3,0.7c0,0.1,0.1,0.2,0.1,0.2c0.1,0.2,0.2,0.5,0.3,0.7
		c0,0.1,0,0.1,0.1,0.2c0.1,0.3,0.2,0.6,0.3,0.9c0,0.1,0,0.1,0.1,0.2c0.1,0.2,0.2,0.5,0.3,0.7c0,0.1,0.1,0.2,0.1,0.2
		c0.1,0.2,0.2,0.4,0.3,0.6c0,0.1,0.1,0.1,0.1,0.2c0.1,0.3,0.2,0.5,0.4,0.8c0,0,0,0.1,0.1,0.1c0.1,0.2,0.2,0.4,0.3,0.7
		c0,0.1,0.1,0.2,0.1,0.2c0.1,0.2,0.2,0.4,0.3,0.6c0,0.1,0.1,0.1,0.1,0.2c0.1,0.3,0.3,0.5,0.4,0.8c0,0,0,0.1,0.1,0.1
		c0.1,0.2,0.2,0.4,0.3,0.6c0,0.1,0.1,0.1,0.1,0.2c0.1,0.2,0.2,0.4,0.3,0.6c0,0.1,0.1,0.1,0.1,0.2c0.1,0.2,0.3,0.5,0.4,0.7
		c0,0,0,0,0,0.1c0.1,0.2,0.2,0.4,0.4,0.6c0,0.1,0.1,0.1,0.1,0.2c0.1,0.2,0.2,0.3,0.3,0.5c0,0.1,0.1,0.1,0.1,0.2
		c0.1,0.2,0.3,0.4,0.4,0.7c0,0,0,0,0,0c0.1,0.2,0.3,0.4,0.4,0.6c0,0.1,0.1,0.1,0.1,0.2c0.1,0.2,0.2,0.3,0.3,0.5
		c0,0.1,0.1,0.1,0.1,0.2c0.1,0.2,0.3,0.4,0.4,0.6c0,0,0,0,0,0c0.2,0.2,0.3,0.4,0.5,0.6c0,0.1,0.1,0.1,0.1,0.2
		c0.1,0.1,0.2,0.3,0.3,0.4c0,0,0.1,0.1,0.1,0.1C60.8,140.2,49.6,124.7,47.3,106.7z M98,153.1c-3.5-0.1-7-0.6-10.4-1.4c0,0,0,0,0,0
		c0,0-0.1,0-0.1-0.1c-0.1,0-0.1-0.1-0.2-0.1c-0.1,0-0.1-0.1-0.2-0.1c-0.1,0-0.1-0.1-0.2-0.1c-0.1,0-0.1-0.1-0.2-0.1
		c-0.1,0-0.1-0.1-0.2-0.1c-0.1,0-0.1-0.1-0.2-0.1c-0.1,0-0.1-0.1-0.2-0.1c-0.1,0-0.1-0.1-0.2-0.1c-0.1,0-0.1-0.1-0.2-0.1
		c-0.1,0-0.1-0.1-0.2-0.1c-0.1,0-0.1-0.1-0.2-0.1c-0.1,0-0.1-0.1-0.2-0.1c-0.1,0-0.1-0.1-0.2-0.1c-0.1,0-0.1-0.1-0.2-0.2
		c-0.1,0-0.1-0.1-0.2-0.1c-0.1-0.1-0.1-0.1-0.2-0.2c-0.1,0-0.1-0.1-0.2-0.2c-0.1-0.1-0.1-0.1-0.2-0.2c-0.1-0.1-0.1-0.1-0.2-0.2
		c-0.1-0.1-0.1-0.1-0.2-0.2c-0.1-0.1-0.1-0.1-0.2-0.2c-0.1-0.1-0.1-0.1-0.2-0.2c-0.1-0.1-0.1-0.1-0.2-0.2c-0.1-0.1-0.1-0.1-0.2-0.2
		c-0.1-0.1-0.1-0.1-0.2-0.2c-0.1-0.1-0.1-0.1-0.2-0.2c-0.1-0.1-0.1-0.1-0.2-0.2c-0.1-0.1-0.1-0.1-0.2-0.2c-0.1-0.1-0.1-0.1-0.2-0.2
		c-0.1-0.1-0.1-0.1-0.2-0.2c-0.1-0.1-0.1-0.1-0.2-0.2c-0.1-0.1-0.1-0.1-0.2-0.2c-0.1-0.1-0.1-0.1-0.2-0.2c-0.1-0.1-0.1-0.1-0.2-0.2
		c-0.1-0.1-0.1-0.1-0.2-0.2c-0.1-0.1-0.1-0.1-0.2-0.2c-0.1-0.1-0.1-0.1-0.2-0.2c-0.1-0.1-0.1-0.1-0.2-0.2c-0.1-0.1-0.1-0.1-0.2-0.2
		c-0.1-0.1-0.1-0.2-0.2-0.2c-0.1-0.1-0.1-0.1-0.2-0.2c-0.1-0.1-0.1-0.2-0.2-0.2c-0.1-0.1-0.1-0.1-0.2-0.2c-0.1-0.1-0.1-0.2-0.2-0.2
		c-0.1-0.1-0.1-0.1-0.2-0.2c-0.1-0.1-0.1-0.2-0.2-0.2c-0.1-0.1-0.1-0.1-0.2-0.2c-0.1-0.1-0.1-0.2-0.2-0.3c-0.1-0.1-0.1-0.2-0.2-0.2
		c-0.1-0.1-0.1-0.2-0.2-0.3c-0.1-0.1-0.1-0.2-0.2-0.2c-0.1-0.1-0.1-0.2-0.2-0.3c-0.1-0.1-0.1-0.2-0.2-0.2c-0.1-0.1-0.1-0.2-0.2-0.3
		c0-0.1-0.1-0.2-0.1-0.2c-0.1-0.1-0.1-0.2-0.2-0.3c0-0.1-0.1-0.2-0.1-0.2c-0.1-0.1-0.1-0.2-0.2-0.3c0-0.1-0.1-0.1-0.1-0.2
		c-0.1-0.1-0.1-0.2-0.2-0.4c0-0.1-0.1-0.1-0.1-0.2c-0.1-0.2-0.2-0.4-0.3-0.5c-0.2-0.4-0.4-0.7-0.6-1.1c-0.1-0.1-0.1-0.2-0.2-0.4
		c-0.1-0.3-0.3-0.5-0.4-0.8c-0.1-0.1-0.1-0.3-0.2-0.4c-0.1-0.2-0.2-0.5-0.3-0.7c-0.1-0.1-0.1-0.3-0.2-0.4c-0.1-0.2-0.2-0.5-0.3-0.7
		c-0.1-0.1-0.1-0.3-0.2-0.4c-0.1-0.3-0.2-0.6-0.4-0.8c-0.1-0.1-0.1-0.2-0.2-0.4c-0.2-0.4-0.3-0.8-0.5-1.2c0,0,0,0,0,0
		c-0.2-0.4-0.3-0.8-0.5-1.2c0-0.1-0.1-0.3-0.1-0.4c-0.1-0.3-0.2-0.6-0.3-0.9c-0.1-0.2-0.1-0.3-0.2-0.5c-0.1-0.3-0.2-0.6-0.3-0.8
		c-0.1-0.2-0.1-0.3-0.2-0.5c-0.1-0.3-0.2-0.6-0.3-0.9c0-0.2-0.1-0.3-0.1-0.5c-0.1-0.3-0.2-0.6-0.3-0.9c0-0.1-0.1-0.3-0.1-0.4
		c-0.1-0.5-0.2-0.9-0.4-1.4c0,0,0-0.1,0-0.1c-0.1-0.4-0.2-0.9-0.3-1.3c0-0.2-0.1-0.3-0.1-0.5c-0.1-0.2-0.1-0.5-0.2-0.7l0,0l0,0
		c0,0,0.1,0,0.1,0c0.5,0.2,0.9,0.3,1.4,0.5c0.1,0,0.2,0.1,0.3,0.1c0.5,0.2,1,0.3,1.5,0.4c0,0,0,0,0,0c0.5,0.1,1,0.3,1.5,0.4
		c0.1,0,0.2,0.1,0.3,0.1c0.5,0.1,1,0.3,1.5,0.4c0.1,0,0.2,0,0.3,0.1c0.5,0.1,1,0.2,1.5,0.4c0,0,0,0,0,0c0.5,0.1,1,0.2,1.5,0.3
		c0.1,0,0.2,0,0.3,0.1c0.5,0.1,1,0.2,1.5,0.3c0.1,0,0.2,0,0.3,0.1c0.5,0.1,1,0.2,1.5,0.3c0,0,0,0,0.1,0c0.5,0.1,1.1,0.2,1.6,0.2
		c0.1,0,0.2,0,0.3,0c0.5,0.1,1,0.1,1.6,0.2c0.1,0,0.2,0,0.3,0c0.5,0.1,1,0.1,1.6,0.2c0,0,0.1,0,0.1,0c0.5,0.1,1.1,0.1,1.6,0.2
		c0.1,0,0.2,0,0.3,0c0.5,0,1.1,0.1,1.6,0.1c0.1,0,0.2,0,0.3,0c0.5,0,1.1,0.1,1.6,0.1c0,0,0.1,0,0.1,0c0.6,0,1.1,0.1,1.7,0.1
		c0.1,0,0.2,0,0.4,0c0.5,0,1.1,0,1.6,0c0,0,0,0,0.1,0l0,0V153.1z M98,121.5c0,0-0.1,0-0.1,0c-0.2,0-0.5,0-0.7,0c-0.5,0-0.9,0-1.4,0
		c-0.3,0-0.5,0-0.8,0c-0.4,0-0.8,0-1.3-0.1c-0.3,0-0.6,0-0.9-0.1c-0.4,0-0.8-0.1-1.2-0.1c-0.3,0-0.6,0-0.9-0.1
		c-0.4,0-0.8-0.1-1.2-0.1c-0.3,0-0.6-0.1-0.9-0.1c-0.4,0-0.8-0.1-1.2-0.1c-0.3,0-0.6-0.1-0.8-0.1c-0.4-0.1-0.8-0.1-1.2-0.2
		c-0.3,0-0.5-0.1-0.8-0.1c-0.4-0.1-0.8-0.1-1.2-0.2c-0.2,0-0.5-0.1-0.7-0.1c-0.5-0.1-0.9-0.2-1.4-0.3c-0.2,0-0.4-0.1-0.5-0.1
		c-0.6-0.1-1.3-0.3-1.9-0.4c-0.1,0-0.3-0.1-0.4-0.1c-0.5-0.1-1-0.2-1.5-0.4c-0.2-0.1-0.4-0.1-0.7-0.2c-0.4-0.1-0.8-0.2-1.2-0.3
		c-0.2-0.1-0.5-0.1-0.7-0.2c-0.4-0.1-0.7-0.2-1.1-0.3c-0.3-0.1-0.5-0.2-0.8-0.2c-0.3-0.1-0.7-0.2-1-0.3c-0.3-0.1-0.5-0.2-0.8-0.3
		c-0.3-0.1-0.7-0.2-1-0.4c-0.2-0.1-0.5-0.2-0.7-0.3c-0.1,0-0.3-0.1-0.4-0.1l0,0c0-0.2,0-0.3-0.1-0.5c0-0.3-0.1-0.6-0.1-0.9
		c-0.1-0.4-0.1-0.7-0.2-1.1c0-0.3-0.1-0.6-0.1-0.9c0-0.4-0.1-0.8-0.1-1.1c0-0.3-0.1-0.6-0.1-0.9c0-0.4-0.1-0.8-0.1-1.2
		c0-0.3-0.1-0.6-0.1-0.9c0-0.4-0.1-0.8-0.1-1.2c0-0.3,0-0.6-0.1-0.9c0-0.4,0-0.8-0.1-1.3c0-0.3,0-0.5,0-0.8c0-0.5,0-0.9,0-1.4
		c0-0.2,0-0.5,0-0.7c0-0.7,0-1.4,0-2.1c0-0.6,0-1.3,0-1.9c0-0.2,0-0.4,0-0.6c0-0.4,0-0.9,0-1.3c0-0.2,0-0.5,0-0.7
		c0-0.4,0-0.8,0.1-1.2c0-0.2,0-0.5,0-0.7c0-0.4,0.1-0.8,0.1-1.2c0-0.2,0-0.4,0-0.7c0-0.5,0.1-1,0.1-1.5c0-0.1,0-0.2,0-0.3
		c0.1-0.6,0.1-1.2,0.2-1.8c0-0.2,0-0.3,0.1-0.5c0-0.3,0.1-0.7,0.1-1l0,0l0,0c0,0,0.1,0,0.1,0c0.5,0.2,1,0.3,1.4,0.5
		c0.1,0,0.2,0.1,0.3,0.1c0.5,0.2,1,0.3,1.5,0.5c0,0,0,0,0.1,0c0.5,0.2,1,0.3,1.5,0.4c0.1,0,0.2,0.1,0.3,0.1c0.5,0.1,1,0.3,1.5,0.4
		c0.1,0,0.2,0.1,0.3,0.1c0.5,0.1,1,0.3,1.5,0.4c0.1,0,0.2,0,0.3,0.1c0.5,0.1,1,0.2,1.6,0.4c0,0,0.1,0,0.1,0c0.5,0.1,1.1,0.2,1.6,0.3
		c0.1,0,0.2,0,0.3,0.1c0.5,0.1,1.1,0.2,1.6,0.3c0.1,0,0.2,0,0.3,0.1c0.5,0.1,1.1,0.2,1.6,0.3c0.1,0,0.1,0,0.2,0
		c0.5,0.1,1.1,0.2,1.6,0.2c0.1,0,0.1,0,0.2,0c0.6,0.1,1.1,0.1,1.7,0.2c0.1,0,0.2,0,0.3,0c0.6,0.1,1.1,0.1,1.7,0.2c0.1,0,0.2,0,0.3,0
		c0.6,0.1,1.1,0.1,1.7,0.1c0.1,0,0.1,0,0.2,0c0.6,0,1.1,0.1,1.7,0.1c0.1,0,0.2,0,0.3,0c0.6,0,1.1,0.1,1.7,0.1c0.1,0,0.2,0,0.3,0
		c0.6,0,1.1,0,1.7,0L98,92V121.5L98,121.5L98,121.5z M98,87.8L98,87.8C97.9,87.8,97.9,87.8,98,87.8c-0.7,0-1.2-0.1-1.8-0.1
		c-0.1,0-0.2,0-0.3,0c-0.6,0-1.1,0-1.7-0.1c-0.1,0-0.2,0-0.3,0c-0.6,0-1.2-0.1-1.7-0.1c-0.1,0-0.1,0-0.2,0c-0.6,0-1.2-0.1-1.7-0.1
		c0,0-0.1,0-0.1,0c-0.6-0.1-1.1-0.1-1.7-0.2c-0.1,0-0.2,0-0.3,0c-0.5-0.1-1.1-0.1-1.6-0.2c-0.1,0-0.2,0-0.3,0
		c-0.5-0.1-1.1-0.2-1.6-0.2c-0.1,0-0.2,0-0.2,0c-0.6-0.1-1.1-0.2-1.7-0.3c0,0,0,0,0,0c-0.6-0.1-1.1-0.2-1.7-0.3c-0.1,0-0.1,0-0.2,0
		c-0.5-0.1-1.1-0.2-1.6-0.3c-0.1,0-0.2,0-0.3-0.1c-0.5-0.1-1-0.2-1.5-0.4c-0.1,0-0.2,0-0.3-0.1c-0.5-0.1-1-0.3-1.5-0.4
		c-0.1,0-0.1,0-0.2,0c-0.5-0.1-1-0.3-1.5-0.4c0,0-0.1,0-0.1,0c-0.5-0.2-1-0.3-1.5-0.5c-0.1,0-0.1,0-0.2-0.1c-0.5-0.2-1-0.3-1.4-0.5
		c-0.1,0-0.2-0.1-0.3-0.1c-0.5-0.2-0.9-0.3-1.4-0.5c0,0-0.1,0-0.1,0l0,0c0,0,0,0,0-0.1c0.1-0.5,0.2-1,0.3-1.5c0-0.1,0-0.1,0-0.2
		c0.1-0.5,0.2-1,0.3-1.4c0-0.1,0-0.2,0.1-0.2c0.1-0.5,0.2-0.9,0.3-1.4c0-0.1,0-0.2,0.1-0.2c0.1-0.5,0.2-0.9,0.4-1.4
		c0-0.1,0-0.1,0.1-0.2c0.1-0.5,0.3-0.9,0.4-1.4c0-0.1,0-0.1,0.1-0.2c0.1-0.5,0.3-0.9,0.4-1.4c0,0,0-0.1,0-0.1
		c0.1-0.5,0.3-0.9,0.5-1.4c0,0,0,0,0,0c0.2-0.5,0.3-0.9,0.5-1.4c0,0,0-0.1,0-0.1c0.2-0.4,0.3-0.9,0.5-1.3c0,0,0-0.1,0.1-0.1
		c0.2-0.4,0.3-0.8,0.5-1.3c0-0.1,0-0.1,0.1-0.2c0.2-0.4,0.3-0.8,0.5-1.2c0-0.1,0.1-0.1,0.1-0.2c0.2-0.4,0.4-0.8,0.5-1.2
		c0-0.1,0.1-0.1,0.1-0.2c0.2-0.4,0.4-0.8,0.6-1.1c0-0.1,0.1-0.1,0.1-0.2c0.2-0.4,0.4-0.8,0.6-1.1c0,0,0-0.1,0.1-0.1
		c0.2-0.4,0.4-0.8,0.6-1.1c0,0,0-0.1,0-0.1c0.2-0.4,0.4-0.8,0.7-1.1c0.1-0.2,0.2-0.4,0.4-0.6c0-0.1,0.1-0.1,0.1-0.2
		c0.1-0.1,0.2-0.3,0.3-0.4c0-0.1,0.1-0.1,0.2-0.2c0.1-0.1,0.2-0.2,0.2-0.3c0.1-0.1,0.1-0.2,0.2-0.3c0.1-0.1,0.1-0.2,0.2-0.3
		c0.1-0.1,0.1-0.2,0.2-0.3c0.1-0.1,0.1-0.2,0.2-0.3c0.1-0.1,0.1-0.2,0.2-0.3c0.1-0.1,0.1-0.2,0.2-0.2c0.1-0.1,0.1-0.2,0.2-0.3
		c0.1-0.1,0.1-0.2,0.2-0.2c0.1-0.1,0.1-0.2,0.2-0.3c0.1-0.1,0.1-0.2,0.2-0.2c0.1-0.1,0.2-0.2,0.2-0.3c0.1-0.1,0.1-0.1,0.2-0.2
		c0.1-0.1,0.2-0.2,0.2-0.3c0.1-0.1,0.1-0.1,0.2-0.2c0.1-0.1,0.2-0.2,0.2-0.3c0.1-0.1,0.1-0.1,0.2-0.2c0.1-0.1,0.2-0.2,0.2-0.2
		c0.1-0.1,0.1-0.1,0.2-0.2c0.1-0.1,0.2-0.2,0.2-0.2c0.1-0.1,0.1-0.1,0.2-0.2c0.1-0.1,0.2-0.2,0.2-0.2c0.1-0.1,0.1-0.1,0.2-0.2
		c0.1-0.1,0.2-0.2,0.3-0.2c0.1-0.1,0.1-0.1,0.2-0.2c0.1-0.1,0.2-0.1,0.3-0.2c0.1-0.1,0.1-0.1,0.2-0.2c0.1-0.1,0.2-0.1,0.3-0.2
		c0.1,0,0.1-0.1,0.2-0.1c0.1-0.1,0.2-0.1,0.3-0.2c0.1,0,0.1-0.1,0.2-0.1c0.1-0.1,0.2-0.1,0.3-0.2c0.1,0,0.1-0.1,0.2-0.1
		c0.1-0.1,0.2-0.1,0.3-0.2c0.1,0,0.1-0.1,0.2-0.1c0.1-0.1,0.2-0.1,0.3-0.2c0.1,0,0.1-0.1,0.2-0.1c0.1-0.1,0.2-0.1,0.3-0.2
		c0.1,0,0.1-0.1,0.2-0.1c0.1-0.1,0.2-0.1,0.3-0.2c0.1,0,0.1-0.1,0.2-0.1c0.1,0,0.2-0.1,0.3-0.1c0.1,0,0.1-0.1,0.2-0.1
		c0.1,0,0.2-0.1,0.3-0.1c0.1,0,0.1-0.1,0.2-0.1c0.1,0,0.2-0.1,0.3-0.1c0.1,0,0.1-0.1,0.2-0.1c0.1,0,0.2-0.1,0.3-0.1
		c0.1,0,0.1-0.1,0.2-0.1c0.1,0,0.2-0.1,0.2-0.1c0.1,0,0.1-0.1,0.2-0.1c0.1,0,0.2-0.1,0.2-0.1c0.1,0,0.1-0.1,0.2-0.1
		c0.1,0,0.2-0.1,0.2-0.1c0.1,0,0.2-0.1,0.2-0.1c0.1,0,0.2,0,0.2-0.1c0.1,0,0.2,0,0.2-0.1c0.1,0,0.2,0,0.2-0.1c0.1,0,0.1,0,0.2-0.1
		c0,0,0,0,0,0c1.2-0.2,2.3-0.4,3.4-0.5c0,0,0,0,0.1,0c0,0,0.1,0,0.1,0v0c1.1-0.1,2.2-0.2,3.3-0.2V87.8C98,87.8,98,87.8,98,87.8
		L98,87.8z M146.2,73.8C146.2,73.8,146.2,73.8,146.2,73.8c0,0-0.1,0.1-0.2,0.1c-0.1,0.1-0.1,0.1-0.2,0.2c-0.2,0.1-0.3,0.3-0.5,0.4
		c-0.1,0-0.1,0.1-0.2,0.1c-0.2,0.2-0.5,0.4-0.7,0.6c0,0-0.1,0.1-0.1,0.1c-0.2,0.2-0.4,0.3-0.6,0.5c-0.1,0.1-0.1,0.1-0.2,0.2
		c-0.2,0.1-0.4,0.3-0.5,0.4c-0.1,0.1-0.1,0.1-0.2,0.2c-0.3,0.2-0.5,0.4-0.8,0.5c0,0,0,0-0.1,0c-0.2,0.2-0.5,0.3-0.7,0.5
		c-0.1,0.1-0.2,0.1-0.2,0.2c-0.2,0.1-0.4,0.2-0.6,0.4c-0.1,0-0.2,0.1-0.2,0.1c-0.3,0.2-0.6,0.3-0.8,0.5c0,0,0,0,0,0
		c-0.3,0.2-0.6,0.3-0.9,0.5c-0.1,0-0.2,0.1-0.3,0.1c-0.2,0.1-0.4,0.2-0.7,0.3c-0.1,0-0.2,0.1-0.3,0.1c-0.3,0.1-0.5,0.3-0.8,0.4
		c0,0-0.1,0-0.1,0c-0.3,0.1-0.5,0.3-0.8,0.4l0,0c0,0,0,0,0,0c0,0,0,0,0,0.1l0,0l0,0l0,0l0,0c0,0,0,0,0,0c0,0,0-0.1,0-0.1
		c-0.1-0.3-0.1-0.5-0.2-0.8c0-0.1,0-0.2-0.1-0.3c-0.1-0.3-0.1-0.7-0.2-1c0-0.1-0.1-0.2-0.1-0.4c0-0.2-0.1-0.4-0.1-0.7
		c0-0.1-0.1-0.3-0.1-0.4c0-0.2-0.1-0.4-0.1-0.6c0-0.1-0.1-0.3-0.1-0.4c-0.1-0.2-0.1-0.4-0.2-0.6c0-0.1-0.1-0.3-0.1-0.4
		c-0.1-0.2-0.1-0.5-0.2-0.7c0-0.1,0-0.2-0.1-0.3c-0.1-0.3-0.2-0.6-0.3-0.9c0-0.1-0.1-0.2-0.1-0.3c-0.1-0.2-0.1-0.4-0.2-0.6
		c0-0.1-0.1-0.3-0.1-0.4c-0.1-0.2-0.1-0.4-0.2-0.6c0-0.1-0.1-0.3-0.1-0.4c-0.1-0.2-0.1-0.4-0.2-0.6c0-0.1-0.1-0.2-0.1-0.4
		c-0.1-0.2-0.2-0.4-0.2-0.7c0-0.1-0.1-0.2-0.1-0.2c-0.1-0.3-0.2-0.6-0.3-0.9c0-0.1-0.1-0.2-0.1-0.3c-0.1-0.2-0.1-0.4-0.2-0.6
		c0-0.1-0.1-0.2-0.1-0.4c-0.1-0.2-0.1-0.3-0.2-0.5c0-0.1-0.1-0.2-0.1-0.4c-0.1-0.2-0.1-0.3-0.2-0.5c0-0.1-0.1-0.2-0.1-0.3
		c-0.1-0.2-0.2-0.4-0.3-0.6c0-0.1-0.1-0.1-0.1-0.2c-0.1-0.3-0.2-0.5-0.4-0.8c0-0.1-0.1-0.2-0.1-0.3c-0.1-0.2-0.2-0.4-0.2-0.5
		c-0.1-0.1-0.1-0.2-0.2-0.3c-0.1-0.2-0.2-0.3-0.2-0.5c-0.1-0.1-0.1-0.2-0.2-0.3c-0.1-0.2-0.2-0.3-0.2-0.5c0-0.1-0.1-0.2-0.1-0.3
		c-0.1-0.2-0.2-0.4-0.3-0.6c0,0-0.1-0.1-0.1-0.1c-0.1-0.2-0.3-0.5-0.4-0.7c0-0.1-0.1-0.2-0.1-0.2c-0.1-0.2-0.2-0.3-0.3-0.5
		c-0.1-0.1-0.1-0.2-0.2-0.3c-0.1-0.2-0.2-0.3-0.3-0.4c-0.1-0.1-0.1-0.2-0.2-0.3c-0.1-0.2-0.2-0.3-0.3-0.5c-0.1-0.1-0.1-0.2-0.2-0.2
		c-0.1-0.2-0.3-0.4-0.4-0.6c0,0,0-0.1-0.1-0.1c-0.1-0.2-0.3-0.4-0.4-0.7c0-0.1-0.1-0.1-0.1-0.2c-0.1-0.2-0.2-0.3-0.3-0.5
		c-0.1-0.1-0.1-0.2-0.2-0.2c-0.1-0.1-0.2-0.3-0.3-0.4c-0.1-0.1-0.1-0.2-0.2-0.2c-0.1-0.1-0.2-0.3-0.3-0.4c-0.1-0.1-0.1-0.1-0.2-0.2
		c-0.1-0.2-0.3-0.4-0.4-0.6c0,0,0,0,0,0c-0.2-0.2-0.3-0.4-0.5-0.6c0,0,0,0,0,0C132.8,56.9,140.8,64.3,146.2,73.8z M102,46.9
		c2.9,0.1,5.8,0.5,8.7,1c0,0,0,0,0,0c0.1,0,0.1,0,0.2,0.1c0.1,0,0.1,0.1,0.2,0.1c0.1,0,0.2,0.1,0.2,0.1c0.1,0,0.1,0.1,0.2,0.1
		c0.1,0,0.2,0.1,0.2,0.1c0.1,0,0.1,0.1,0.2,0.1c0.1,0,0.2,0.1,0.2,0.1c0.1,0,0.1,0.1,0.2,0.1c0.1,0,0.2,0.1,0.2,0.1
		c0.1,0,0.1,0.1,0.2,0.1c0.1,0,0.2,0.1,0.3,0.1c0.1,0,0.1,0.1,0.2,0.1c0.1,0.1,0.2,0.1,0.3,0.2c0,0,0.1,0.1,0.1,0.1
		c0.1,0.1,0.3,0.2,0.4,0.3c0,0,0.1,0.1,0.1,0.1c0.1,0.1,0.2,0.1,0.3,0.2c0.1,0,0.1,0.1,0.2,0.1c0.1,0.1,0.2,0.1,0.3,0.2
		c0.1,0,0.1,0.1,0.2,0.1c0.1,0.1,0.2,0.1,0.2,0.2c0.1,0,0.1,0.1,0.2,0.1c0.1,0.1,0.2,0.1,0.2,0.2c0.1,0,0.1,0.1,0.2,0.2
		c0.1,0.1,0.2,0.1,0.2,0.2c0.1,0.1,0.1,0.1,0.2,0.2c0.1,0.1,0.2,0.1,0.2,0.2c0.1,0.1,0.1,0.1,0.2,0.2c0.1,0.1,0.1,0.1,0.2,0.2
		c0.1,0.1,0.1,0.1,0.2,0.2c0.1,0.1,0.1,0.1,0.2,0.2c0.1,0.1,0.1,0.1,0.2,0.2c0.1,0.1,0.1,0.1,0.2,0.2c0.1,0.1,0.1,0.1,0.2,0.2
		c0.1,0.1,0.1,0.1,0.2,0.2c0.1,0.1,0.1,0.1,0.2,0.2c0.1,0.1,0.1,0.1,0.2,0.2c0.1,0.1,0.1,0.1,0.2,0.2c0.1,0.1,0.1,0.2,0.2,0.2
		c0.1,0.1,0.1,0.1,0.2,0.2c0.1,0.1,0.1,0.2,0.2,0.2c0.1,0.1,0.1,0.1,0.2,0.2c0.1,0.1,0.1,0.2,0.2,0.2c0.1,0.1,0.1,0.1,0.2,0.2
		c0.1,0.1,0.1,0.2,0.2,0.2c0.1,0.1,0.1,0.1,0.2,0.2c0.1,0.1,0.1,0.2,0.2,0.3c0.1,0.1,0.1,0.2,0.2,0.2c0.1,0.1,0.1,0.2,0.2,0.3
		c0.1,0.1,0.1,0.2,0.2,0.2c0.1,0.1,0.1,0.2,0.2,0.3c0.1,0.1,0.1,0.2,0.2,0.2c0.1,0.1,0.1,0.2,0.2,0.3c0.1,0.1,0.1,0.2,0.2,0.2
		c0.1,0.1,0.1,0.2,0.2,0.3c0.1,0.1,0.1,0.2,0.2,0.2c0.1,0.1,0.1,0.2,0.2,0.3c0.1,0.1,0.1,0.2,0.2,0.2c0.1,0.1,0.1,0.2,0.2,0.3
		c0.1,0.1,0.1,0.2,0.2,0.2c0.1,0.1,0.1,0.2,0.2,0.3c0.1,0.1,0.1,0.2,0.2,0.2c0.1,0.1,0.1,0.2,0.2,0.3c0,0.1,0.1,0.2,0.1,0.2
		c0.1,0.1,0.1,0.2,0.2,0.3c0,0.1,0.1,0.2,0.1,0.2c0.1,0.1,0.1,0.2,0.2,0.4c0,0.1,0.1,0.2,0.1,0.2c0.1,0.1,0.1,0.3,0.2,0.4
		c0,0.1,0.1,0.1,0.1,0.2c0.1,0.2,0.2,0.3,0.3,0.5c0,0,0,0.1,0.1,0.1c0.1,0.2,0.2,0.4,0.3,0.6c0,0,0,0.1,0,0.1
		c0.1,0.2,0.2,0.4,0.3,0.6c0,0.1,0.1,0.1,0.1,0.2c0.1,0.1,0.1,0.3,0.2,0.4c0,0.1,0.1,0.2,0.1,0.3c0.1,0.1,0.1,0.3,0.2,0.4
		c0,0.1,0.1,0.2,0.1,0.3c0.1,0.1,0.1,0.3,0.2,0.4c0,0.1,0.1,0.2,0.1,0.3c0.1,0.1,0.1,0.3,0.2,0.4c0,0.1,0.1,0.2,0.1,0.3
		c0.1,0.1,0.1,0.3,0.2,0.4c0,0.1,0.1,0.2,0.1,0.3c0.1,0.1,0.1,0.3,0.2,0.4c0,0.1,0.1,0.2,0.1,0.3c0.1,0.1,0.1,0.3,0.2,0.4
		c0,0.1,0.1,0.2,0.1,0.3c0,0.1,0.1,0.3,0.1,0.4c0,0.1,0.1,0.2,0.1,0.3c0,0.1,0.1,0.3,0.1,0.4c0,0.1,0.1,0.2,0.1,0.3
		c0,0.1,0.1,0.3,0.1,0.4c0,0.1,0.1,0.2,0.1,0.3c0,0.1,0.1,0.3,0.1,0.4c0,0.1,0.1,0.2,0.1,0.3c0,0.1,0.1,0.3,0.1,0.4
		c0,0.1,0.1,0.2,0.1,0.4c0,0.1,0.1,0.3,0.1,0.4c0,0.1,0.1,0.2,0.1,0.4c0,0.1,0.1,0.3,0.1,0.4c0,0.1,0.1,0.2,0.1,0.4
		c0,0.1,0.1,0.3,0.1,0.4c0,0.1,0.1,0.2,0.1,0.4c0,0.1,0.1,0.3,0.1,0.4c0,0.1,0.1,0.2,0.1,0.4c0,0.1,0.1,0.3,0.1,0.4
		c0,0.1,0.1,0.3,0.1,0.4c0,0.1,0.1,0.3,0.1,0.4c0,0.1,0.1,0.3,0.1,0.4c0,0.1,0.1,0.3,0.1,0.4c0,0.1,0.1,0.3,0.1,0.4
		c0,0.1,0.1,0.3,0.1,0.4c0,0.1,0.1,0.3,0.1,0.4c0,0.1,0.1,0.3,0.1,0.4c0,0.1,0.1,0.3,0.1,0.4c0,0.1,0.1,0.3,0.1,0.4
		c0,0.1,0.1,0.3,0.1,0.4c0,0.1,0.1,0.3,0.1,0.4c0,0.1,0.1,0.3,0.1,0.4c0,0.1,0.1,0.3,0.1,0.4c0,0.1,0.1,0.3,0.1,0.4c0,0,0,0,0,0l0,0
		c0,0-0.1,0-0.1,0c-0.5,0.2-1,0.4-1.4,0.5c-0.1,0-0.2,0.1-0.3,0.1c-0.5,0.2-1,0.3-1.5,0.5c-0.1,0-0.1,0-0.2,0.1
		c-0.5,0.2-1,0.3-1.6,0.5c0,0,0,0,0,0c-0.5,0.2-1,0.3-1.6,0.5c-0.1,0-0.1,0-0.2,0.1c-0.5,0.1-1,0.3-1.5,0.4c-0.1,0-0.2,0-0.3,0.1
		c-0.5,0.1-1,0.3-1.5,0.4c-0.1,0-0.2,0-0.3,0.1c-0.5,0.1-1.1,0.2-1.6,0.3c-0.1,0-0.1,0-0.2,0c-0.5,0.1-1.1,0.2-1.6,0.3
		c0,0-0.1,0-0.1,0c-0.6,0.1-1.1,0.2-1.7,0.3c-0.1,0-0.2,0-0.3,0c-0.5,0.1-1.1,0.2-1.6,0.2c-0.1,0-0.2,0-0.3,0
		c-0.5,0.1-1.1,0.1-1.7,0.2c-0.1,0-0.2,0-0.3,0c-0.6,0.1-1.2,0.1-1.7,0.2c0,0-0.1,0-0.1,0c-0.6,0.1-1.1,0.1-1.7,0.2
		c-0.1,0-0.1,0-0.2,0c-0.6,0-1.2,0.1-1.7,0.1c-0.1,0-0.2,0-0.3,0c-0.6,0-1.1,0.1-1.7,0.1c-0.1,0-0.2,0-0.3,0c-0.6,0-1.2,0-1.8,0.1
		l-0.1-0.2V46.9z M102,91.9L102,91.9c0.1,0,0.1,0,0.1,0c0.6,0,1.2,0,1.8-0.1c0.1,0,0.2,0,0.4,0c0.6,0,1.2-0.1,1.8-0.1
		c0.1,0,0.2,0,0.3,0c0.6,0,1.2-0.1,1.7-0.1c0,0,0.1,0,0.1,0c0.6,0,1.2-0.1,1.8-0.2c0.1,0,0.2,0,0.3,0c0.6-0.1,1.1-0.1,1.7-0.2
		c0.1,0,0.2,0,0.3,0c0.6-0.1,1.2-0.1,1.7-0.2c0.1,0,0.1,0,0.2,0c0.6-0.1,1.1-0.2,1.7-0.2c0.1,0,0.1,0,0.2,0c0.6-0.1,1.1-0.2,1.7-0.3
		c0.1,0,0.2,0,0.3-0.1c0.6-0.1,1.1-0.2,1.6-0.3c0.1,0,0.2,0,0.3-0.1c0.6-0.1,1.1-0.2,1.7-0.4c0,0,0.1,0,0.1,0
		c0.5-0.1,1.1-0.3,1.6-0.4c0.1,0,0.1,0,0.2-0.1c0.5-0.1,1.1-0.3,1.6-0.4c0.1,0,0.2-0.1,0.3-0.1c0.5-0.1,1-0.3,1.6-0.4
		c0.1,0,0.2,0,0.2-0.1c0.5-0.2,1.1-0.3,1.6-0.5c0,0,0,0,0,0c0.5-0.2,1.1-0.3,1.6-0.5c0.1,0,0.2-0.1,0.2-0.1c0.5-0.2,1-0.4,1.5-0.5
		c0,0,0.1,0,0.1,0l0,0l0,0c0,0.4,0.1,0.7,0.1,1.1c0,0.2,0,0.4,0.1,0.5c0.1,0.6,0.1,1.3,0.2,1.9c0,0.1,0,0.3,0,0.4
		c0,0.5,0.1,1,0.1,1.5c0,0.2,0,0.4,0.1,0.7c0,0.4,0.1,0.8,0.1,1.3c0,0.2,0,0.5,0,0.7c0,0.4,0,0.8,0.1,1.2c0,0.2,0,0.5,0,0.7
		c0,0.4,0,0.9,0,1.3c0,0.2,0,0.4,0,0.6c0,0.6,0,1.3,0,1.9c0,0.7,0,1.4,0,2.1c0,0.2,0,0.5,0,0.7c0,0.5,0,0.9,0,1.4c0,0.3,0,0.5,0,0.8
		c0,0.4,0,0.8-0.1,1.2c0,0.3,0,0.6-0.1,0.9c0,0.4-0.1,0.8-0.1,1.2c0,0.3-0.1,0.6-0.1,0.9c0,0.4-0.1,0.8-0.1,1.1
		c0,0.3-0.1,0.6-0.1,0.9c0,0.4-0.1,0.7-0.1,1.1c0,0.3-0.1,0.6-0.1,0.9c0,0.4-0.1,0.7-0.1,1.1c0,0.3-0.1,0.6-0.1,0.9
		c0,0.2,0,0.3-0.1,0.5l0,0c0,0,0,0,0,0c0,0-0.1,0-0.1,0c-0.5,0.2-1,0.4-1.5,0.6c0,0,0,0,0,0c-0.5,0.2-1,0.4-1.6,0.6
		c-0.1,0-0.1,0-0.2,0.1c-0.5,0.2-1,0.3-1.5,0.5c-0.1,0-0.2,0.1-0.3,0.1c-0.5,0.2-1,0.3-1.5,0.5c-0.1,0-0.2,0-0.3,0.1
		c-0.5,0.1-1,0.3-1.6,0.4c-0.1,0-0.1,0-0.2,0.1c-0.6,0.1-1.1,0.3-1.7,0.4c0,0,0,0-0.1,0c-0.6,0.1-1.1,0.3-1.7,0.4
		c-0.1,0-0.1,0-0.2,0c-0.6,0.1-1.1,0.2-1.7,0.3c-0.1,0-0.2,0-0.3,0c-0.5,0.1-1.1,0.2-1.7,0.3c-0.1,0-0.2,0-0.3,0
		c-0.6,0.1-1.1,0.2-1.7,0.3c-0.1,0-0.2,0-0.3,0c-0.6,0.1-1.2,0.2-1.7,0.2c-0.1,0-0.1,0-0.2,0c-0.6,0.1-1.2,0.1-1.8,0.2
		c0,0-0.1,0-0.1,0c-0.6,0.1-1.2,0.1-1.8,0.2c-0.1,0-0.2,0-0.2,0c-0.6,0-1.2,0.1-1.8,0.1c-0.1,0-0.2,0-0.3,0c-0.6,0-1.2,0.1-1.8,0.1
		c-0.1,0-0.2,0-0.3,0c-0.6,0-1.2,0-1.8,0.1c0,0-0.1,0-0.1,0l0,0V91.9z M123.5,140.9c-0.2,0.3-0.4,0.6-0.6,1c0,0,0,0,0,0.1
		c-0.2,0.3-0.4,0.6-0.6,0.9c0,0,0,0,0,0.1c-0.2,0.3-0.4,0.6-0.6,0.9c0,0,0,0-0.1,0.1c-0.2,0.3-0.4,0.5-0.6,0.8c0,0,0,0.1-0.1,0.1
		c-0.2,0.3-0.4,0.5-0.6,0.8c0,0,0,0.1-0.1,0.1c-0.2,0.2-0.4,0.5-0.6,0.7c0,0,0,0.1-0.1,0.1c-0.2,0.2-0.4,0.5-0.6,0.7
		c0,0-0.1,0.1-0.1,0.1c-0.2,0.2-0.4,0.4-0.6,0.6c0,0-0.1,0.1-0.1,0.1c-0.2,0.2-0.4,0.4-0.6,0.6c0,0-0.1,0.1-0.1,0.1
		c-0.2,0.2-0.4,0.4-0.6,0.6c0,0-0.1,0.1-0.1,0.1c-0.2,0.2-0.4,0.4-0.6,0.5c0,0-0.1,0.1-0.1,0.1c-0.2,0.2-0.4,0.3-0.7,0.5
		c0,0-0.1,0-0.1,0.1c-0.2,0.2-0.4,0.3-0.7,0.4c0,0-0.1,0-0.1,0.1c-0.2,0.1-0.4,0.3-0.7,0.4c0,0,0,0,0,0c0,0,0,0,0,0
		c-3.8,1-7.7,1.6-11.6,1.7v-27.4l0,0c0,0,0,0,0.1,0c0.6,0,1.1,0,1.7,0c0.1,0,0.2,0,0.3,0c0.6,0,1.2,0,1.7-0.1c0,0,0.1,0,0.1,0
		c0.6,0,1.1-0.1,1.7-0.1c0.1,0,0.2,0,0.3,0c0.6,0,1.1-0.1,1.7-0.1c0.1,0,0.2,0,0.3,0c0.6-0.1,1.1-0.1,1.7-0.2c0,0,0.1,0,0.1,0
		c0.5-0.1,1.1-0.1,1.6-0.2c0.1,0,0.2,0,0.3,0c0.5-0.1,1.1-0.1,1.6-0.2c0.1,0,0.2,0,0.3,0c0.5-0.1,1.1-0.2,1.6-0.3c0,0,0.1,0,0.1,0
		c0.5-0.1,1.1-0.2,1.6-0.3c0.1,0,0.2,0,0.3-0.1c0.5-0.1,1-0.2,1.6-0.3c0.1,0,0.2,0,0.3-0.1c0.5-0.1,1.1-0.2,1.6-0.4c0,0,0,0,0.1,0
		c0.5-0.1,1-0.2,1.5-0.4c0.1,0,0.2,0,0.3-0.1c0.5-0.1,1-0.3,1.5-0.4c0.1,0,0.2-0.1,0.3-0.1c0.5-0.1,1-0.3,1.5-0.4c0,0,0,0,0,0
		c0.5-0.2,1-0.3,1.5-0.5c0.1,0,0.2-0.1,0.3-0.1c0.5-0.2,1-0.3,1.4-0.5c0,0,0.1,0,0.1,0l0,0l0,0c0,0.2-0.1,0.4-0.1,0.6
		c0,0.2-0.1,0.3-0.1,0.5c-0.1,0.4-0.2,0.7-0.3,1.1c0,0.1,0,0.2-0.1,0.3c-0.1,0.5-0.2,0.9-0.3,1.4c0,0.1-0.1,0.2-0.1,0.3
		c-0.1,0.3-0.2,0.7-0.3,1c0,0.2-0.1,0.3-0.1,0.5c-0.1,0.3-0.2,0.6-0.3,0.9c-0.1,0.2-0.1,0.3-0.2,0.5c-0.1,0.3-0.2,0.5-0.3,0.8
		c-0.1,0.2-0.1,0.3-0.2,0.5c-0.1,0.3-0.2,0.6-0.3,0.9c0,0.1-0.1,0.3-0.1,0.4c-0.1,0.4-0.3,0.7-0.4,1.1c0,0.1,0,0.1-0.1,0.2
		c-0.2,0.4-0.3,0.8-0.5,1.2c0,0.1-0.1,0.2-0.1,0.4c-0.1,0.3-0.2,0.6-0.3,0.8c-0.1,0.1-0.1,0.3-0.2,0.4c-0.1,0.2-0.2,0.5-0.3,0.7
		c-0.1,0.2-0.1,0.3-0.2,0.4c-0.1,0.2-0.2,0.5-0.3,0.7c-0.1,0.1-0.1,0.3-0.2,0.4c-0.1,0.3-0.2,0.5-0.4,0.8c-0.1,0.1-0.1,0.2-0.2,0.4
		c-0.2,0.4-0.4,0.7-0.6,1.1c-0.2,0.4-0.4,0.7-0.6,1.1c0,0,0,0,0,0C124,140.2,123.8,140.5,123.5,140.9
		C123.6,140.9,123.5,140.9,123.5,140.9z M124.1,147.3c0,0,0.1-0.1,0.1-0.1c0.1-0.1,0.2-0.3,0.3-0.4c0-0.1,0.1-0.1,0.1-0.2
		c0.2-0.2,0.3-0.4,0.4-0.6c0,0,0,0,0,0c0.1-0.2,0.3-0.4,0.4-0.6c0-0.1,0.1-0.1,0.1-0.2c0.1-0.2,0.2-0.3,0.3-0.5
		c0-0.1,0.1-0.1,0.1-0.2c0.1-0.2,0.3-0.4,0.4-0.7l0,0c0.1-0.2,0.3-0.4,0.4-0.7c0-0.1,0.1-0.1,0.1-0.2c0.1-0.2,0.2-0.3,0.3-0.5
		c0-0.1,0.1-0.1,0.1-0.2c0.1-0.2,0.2-0.4,0.4-0.6c0,0,0,0,0-0.1c0.1-0.2,0.3-0.5,0.4-0.7c0-0.1,0.1-0.1,0.1-0.2
		c0.1-0.2,0.2-0.4,0.3-0.5c0-0.1,0.1-0.2,0.1-0.2c0.1-0.2,0.2-0.4,0.3-0.6c0,0,0-0.1,0.1-0.1c0.1-0.2,0.2-0.5,0.4-0.7
		c0-0.1,0.1-0.1,0.1-0.2c0.1-0.2,0.2-0.4,0.3-0.6c0-0.1,0.1-0.2,0.1-0.3c0.1-0.2,0.2-0.4,0.3-0.6c0-0.1,0-0.1,0.1-0.2
		c0.1-0.3,0.2-0.5,0.3-0.8c0-0.1,0.1-0.1,0.1-0.2c0.1-0.2,0.2-0.4,0.2-0.6c0-0.1,0.1-0.2,0.1-0.3c0.1-0.2,0.2-0.4,0.3-0.6
		c0-0.1,0.1-0.1,0.1-0.2c0.1-0.3,0.2-0.5,0.3-0.8c0-0.1,0.1-0.1,0.1-0.2c0.1-0.2,0.2-0.4,0.2-0.6c0-0.1,0.1-0.2,0.1-0.3
		c0.1-0.2,0.2-0.4,0.2-0.6c0-0.1,0.1-0.2,0.1-0.2c0.1-0.3,0.2-0.6,0.3-0.9c0-0.1,0-0.1,0.1-0.2c0.1-0.2,0.1-0.5,0.2-0.7
		c0-0.1,0.1-0.2,0.1-0.3c0.1-0.2,0.1-0.4,0.2-0.7c0-0.1,0.1-0.2,0.1-0.2c0.1-0.3,0.2-0.6,0.3-0.9c0-0.1,0-0.1,0.1-0.2
		c0.1-0.2,0.1-0.5,0.2-0.7c0-0.1,0.1-0.2,0.1-0.3c0.1-0.2,0.1-0.4,0.2-0.7c0-0.1,0-0.2,0.1-0.3c0.1-0.3,0.2-0.6,0.2-0.9
		c0-0.1,0-0.1,0-0.2c0.1-0.3,0.1-0.5,0.2-0.8c0-0.1,0-0.2,0.1-0.3c0.1-0.2,0.1-0.5,0.2-0.7c0-0.1,0-0.2,0.1-0.3
		c0.1-0.3,0.1-0.6,0.2-1c0,0,0-0.1,0-0.1c0.1-0.3,0.1-0.6,0.2-0.9c0-0.1,0-0.2,0.1-0.3c0-0.2,0.1-0.5,0.1-0.7c0,0,0-0.1,0-0.1
		l0.1-0.1c0.1-0.1,0.3-0.1,0.4-0.2c0.2-0.1,0.5-0.2,0.7-0.3c0.2-0.1,0.3-0.1,0.5-0.2c0.2-0.1,0.4-0.2,0.6-0.3
		c0.2-0.1,0.3-0.2,0.5-0.2c0.2-0.1,0.4-0.2,0.6-0.3c0.2-0.1,0.3-0.2,0.5-0.2c0.2-0.1,0.4-0.2,0.6-0.3c0.2-0.1,0.3-0.2,0.4-0.2
		c0.2-0.1,0.4-0.2,0.6-0.3c0.1-0.1,0.3-0.2,0.4-0.3c0.2-0.1,0.4-0.2,0.5-0.3c0.1-0.1,0.3-0.2,0.4-0.3c0.2-0.1,0.3-0.2,0.5-0.3
		c0.1-0.1,0.3-0.2,0.4-0.3c0.2-0.1,0.3-0.2,0.5-0.3c0.1-0.1,0.3-0.2,0.4-0.3c0.2-0.1,0.3-0.2,0.5-0.3c0.1-0.1,0.3-0.2,0.4-0.3
		c0.2-0.1,0.3-0.2,0.5-0.3c0.1-0.1,0.3-0.2,0.4-0.3c0.2-0.1,0.3-0.2,0.5-0.4c0.1-0.1,0.2-0.2,0.4-0.3c0.2-0.1,0.3-0.2,0.5-0.4
		c0.1-0.1,0.2-0.2,0.3-0.3c0.2-0.1,0.3-0.3,0.5-0.4c0.1-0.1,0.2-0.2,0.3-0.3c0.2-0.1,0.3-0.3,0.5-0.4c0.1-0.1,0.2-0.1,0.2-0.2
		c0.2-0.2,0.5-0.5,0.7-0.7c0.3-0.2,0.5-0.5,0.7-0.7c0.1-0.1,0.2-0.2,0.2-0.3c0.2-0.2,0.3-0.3,0.5-0.5c0.1-0.1,0.2-0.2,0.3-0.3
		c0.1-0.2,0.3-0.3,0.4-0.5c0.1-0.1,0.2-0.2,0.3-0.3c0.1-0.1,0.2-0.3,0.3-0.4C150.5,124.1,139.7,139.4,124.1,147.3z M152.9,96.5
		c0,0.1,0,0.2,0,0.2c0,0.2-0.1,0.3-0.1,0.5c0,0,0,0.1,0,0.1c-0.1,0.2-0.1,0.4-0.2,0.7c0,0,0,0.1,0,0.1c-0.1,0.2-0.1,0.3-0.2,0.5
		c0,0.1-0.1,0.2-0.1,0.2c-0.1,0.1-0.1,0.3-0.2,0.4c0,0.1-0.1,0.2-0.1,0.3c-0.1,0.1-0.1,0.3-0.2,0.4c0,0.1-0.1,0.2-0.1,0.3
		c-0.1,0.1-0.1,0.3-0.2,0.4c0,0.1-0.1,0.2-0.1,0.3c-0.1,0.1-0.1,0.3-0.2,0.4c0,0.1-0.1,0.2-0.1,0.2c-0.1,0.1-0.2,0.3-0.2,0.4
		c0,0.1-0.1,0.1-0.1,0.2c-0.1,0.2-0.2,0.3-0.3,0.5c0,0-0.1,0.1-0.1,0.1c-0.1,0.2-0.3,0.4-0.4,0.6c0,0,0,0.1-0.1,0.1
		c-0.1,0.2-0.3,0.4-0.4,0.5c-0.1,0.1-0.1,0.1-0.2,0.2c-0.1,0.1-0.2,0.3-0.3,0.4c-0.1,0.1-0.1,0.2-0.2,0.2c-0.1,0.1-0.2,0.3-0.3,0.4
		c-0.1,0.1-0.1,0.2-0.2,0.2c-0.1,0.1-0.2,0.2-0.3,0.4c-0.1,0.1-0.2,0.2-0.2,0.2c-0.1,0.1-0.2,0.2-0.4,0.4c-0.1,0.1-0.2,0.2-0.2,0.2
		c-0.1,0.1-0.3,0.3-0.4,0.4c-0.1,0.1-0.1,0.1-0.2,0.2c-0.2,0.1-0.3,0.3-0.5,0.4c-0.1,0.1-0.1,0.1-0.2,0.2c-0.2,0.2-0.4,0.4-0.7,0.6
		c0,0,0,0-0.1,0.1c-0.2,0.2-0.4,0.3-0.6,0.5c-0.1,0.1-0.2,0.1-0.2,0.2c-0.2,0.1-0.3,0.2-0.5,0.4c-0.1,0.1-0.2,0.1-0.3,0.2
		c-0.2,0.1-0.3,0.2-0.5,0.3c-0.1,0.1-0.2,0.1-0.3,0.2c-0.2,0.1-0.3,0.2-0.5,0.3c-0.1,0.1-0.2,0.1-0.3,0.2c-0.2,0.1-0.3,0.2-0.5,0.3
		c-0.1,0.1-0.2,0.1-0.3,0.2c-0.2,0.1-0.3,0.2-0.5,0.3c-0.1,0.1-0.2,0.1-0.3,0.2c-0.2,0.1-0.4,0.2-0.6,0.3c-0.1,0.1-0.2,0.1-0.3,0.2
		c-0.3,0.2-0.6,0.3-0.9,0.5c0,0,0,0,0,0c-0.3,0.2-0.6,0.3-0.9,0.5c-0.1,0.1-0.2,0.1-0.3,0.2c-0.2,0.1-0.3,0.2-0.5,0.3c0,0,0,0,0,0
		c0,0,0,0,0,0c0-0.1,0-0.2,0-0.3c0-0.2,0-0.4,0.1-0.6c0.1-0.5,0.1-0.9,0.2-1.4c0-0.2,0-0.4,0.1-0.6c0.1-0.5,0.1-1,0.1-1.5
		c0-0.2,0-0.3,0-0.5c0.1-0.7,0.1-1.3,0.1-2c0-0.2,0-0.3,0-0.5c0-0.5,0.1-1,0.1-1.5c0-0.2,0-0.4,0-0.7c0-0.5,0-0.9,0-1.4
		c0-0.2,0-0.4,0-0.6c0-0.7,0-1.3,0-2c0-0.7,0-1.4,0-2.1c0-0.2,0-0.5,0-0.7c0-0.5,0-0.9,0-1.4c0-0.3,0-0.5,0-0.8c0-0.4,0-0.8-0.1-1.3
		c0-0.3,0-0.6-0.1-0.8c0-0.4-0.1-0.8-0.1-1.2c0-0.3,0-0.6-0.1-0.9c0-0.4-0.1-0.8-0.1-1.2c0-0.3-0.1-0.6-0.1-0.9
		c0-0.4-0.1-0.8-0.1-1.2c0-0.3-0.1-0.6-0.1-0.8c-0.1-0.4-0.1-0.8-0.2-1.2c0-0.3-0.1-0.5-0.1-0.8c0-0.1,0-0.2,0-0.2l0,0
		c0.3-0.1,0.5-0.2,0.8-0.4c0,0,0,0,0.1,0c0.3-0.2,0.7-0.3,1-0.5c0.1,0,0.2-0.1,0.3-0.1c0.2-0.1,0.5-0.2,0.7-0.4
		c0.1-0.1,0.2-0.1,0.3-0.2c0.3-0.2,0.6-0.3,0.9-0.5c0,0,0,0,0.1,0c0.3-0.2,0.6-0.3,0.9-0.5c0.1-0.1,0.2-0.1,0.3-0.2
		c0.2-0.1,0.5-0.3,0.7-0.4c0.1-0.1,0.2-0.1,0.3-0.2c0.3-0.2,0.6-0.3,0.8-0.5c0,0,0,0,0.1,0c0.3-0.2,0.6-0.4,0.9-0.6
		c0.1-0.1,0.2-0.1,0.2-0.2c0.2-0.1,0.4-0.3,0.6-0.4c0.1-0.1,0.2-0.1,0.2-0.2c0.2-0.2,0.5-0.4,0.7-0.5c0,0,0,0,0.1-0.1
		c0.3-0.2,0.5-0.4,0.8-0.6c0.1-0.1,0.1-0.1,0.2-0.2c0.2-0.1,0.4-0.3,0.6-0.5c0.1-0.1,0.2-0.1,0.2-0.2c0,0,0.1-0.1,0.1-0.1
		c2.7,5.8,4.3,12.1,4.8,18.6c0,0,0,0,0,0C152.9,96.3,152.9,96.4,152.9,96.5z"/>
</g>
</svg>
