<?xml version="1.0" encoding="utf-8"?>
<!-- Generator: Adobe Illustrator 19.1.0, SVG Export Plug-In . SVG Version: 6.00 Build 0)  -->
<svg version="1.1" id="Layer_1" xmlns="http://www.w3.org/2000/svg" xmlns:xlink="http://www.w3.org/1999/xlink" x="0px" y="0px"
	 viewBox="0 0 26 26" style="enable-background:new 0 0 26 26;" xml:space="preserve">
<style type="text/css">
	.st0{fill:#64AD45;}
</style>
<g>
	<path class="st0" d="M20.8,5.2c2.1,2.1,3.1,4.7,3.2,7.8c-0.1,3.1-1.1,5.7-3.2,7.8S16.1,23.9,13,24c-3.1-0.1-5.7-1.1-7.8-3.2
		S2.1,16.1,2,13c0.1-3.1,1.1-5.7,3.2-7.8S9.9,2.1,13,2C16.1,2.1,18.7,3.1,20.8,5.2z M20.7,8.6L19.1,7l-8.4,8.4l-3.9-3.9L5.3,13
		l5.5,5.5L20.7,8.6z"/>
</g>
</svg>
