<?xml version="1.0" encoding="utf-8"?>
<!-- Generator: Adobe Illustrator 19.2.1, SVG Export Plug-In . SVG Version: 6.00 Build 0)  -->
<svg version="1.1" id="Layer_1" xmlns="http://www.w3.org/2000/svg" xmlns:xlink="http://www.w3.org/1999/xlink" x="0px" y="0px"
	 viewBox="0 0 200 200" style="enable-background:new 0 0 200 200;" xml:space="preserve">
<style type="text/css">
	.st0{fill:#85C443;}
	.st1{fill:#FFFFFF;}
	.st2{fill-rule:evenodd;clip-rule:evenodd;fill:#FFFFFF;}
	.st3{fill:none;stroke:#FFFFFF;stroke-linejoin:bevel;stroke-miterlimit:10;}
</style>
<g>
	<circle class="st0" cx="100" cy="100" r="100"/>
	<g>
		<g>
			<circle class="st2" cx="103.2" cy="58.8" r="19.3"/>
		</g>
		<g>
			<path class="st1" d="M117.7,99.8h-29c-1.1,0-2-0.9-2-2c0-1.1,0.9-2,2-2h29c1.1,0,2,0.9,2,2C119.7,98.9,118.8,99.8,117.7,99.8z"/>
		</g>
		<g>
			<circle class="st1" cx="62.9" cy="115.2" r="4.5"/>
		</g>
		<g>
			<path class="st1" d="M162.7,110.5c-0.6-1-1.9-1.2-2.8-0.6c-2.4,1.5-4.5,3.1-6.2,4.8c-2-0.6-4.2-0.8-6.4-0.5
				c-0.1,0-0.1,0.1-0.2,0.1c-6.5-15.7-16.1-25.7-28.4-29.5c-19.1-5.9-38.7,4.5-44.4,7.9c-6.9-8.3-16-10.2-16.4-10.3
				c-0.6-0.1-1.2,0-1.7,0.4c-0.5,0.4-0.7,1-0.7,1.6v15.7l-17,6.3c-0.8,0.3-1.3,1.1-1.3,1.9V122c0,0.6,0.2,1.1,0.7,1.5l22.5,20.4
				l4,15.1c0.2,0.9,1,1.5,2,1.5h15.2c0.9,0,1.7-0.6,2-1.5l3.4-12.7c9.8,1.7,21.7,1.5,30.9-0.5l3.5,13.2c0.2,0.9,1,1.5,2,1.5h15.2
				c1,0,1.8-0.7,2-1.7l7.2-40.6c0.1,0,0.2,0,0.3,0c0.7-0.1,1.7-0.1,2.9,0c-2.1,3-2.9,5.9-2,8.3c1,2.6,4.1,4.9,7.2,4.9
				c0.6,0,1.2-0.1,1.8-0.3c3.3-1.1,4.9-4.9,4.6-8c-0.4-3.5-3.1-5.5-4.6-6.5c1.3-1.1,2.7-2.2,4.4-3.2
				C163,112.7,163.3,111.5,162.7,110.5z M136.6,156.4h-11.9l-3.6-13.6c-0.3-1.1-1.4-1.7-2.5-1.5c-9.6,2.4-22.8,2.6-33,0.6
				c-1.1-0.2-2.1,0.4-2.4,1.5l-3.5,13H67.7l-3.8-14.1c-0.1-0.4-0.3-0.7-0.6-1L41,121.1v-11.4l17-6.3c0.8-0.3,1.3-1.1,1.3-1.9V87.1
				c3.1,1.1,8.6,3.8,12.7,9.5c0.6,0.9,1.9,1.1,2.8,0.5c0.2-0.1,22.2-14.7,42.5-8.4c11.4,3.5,20.2,12.9,26.2,27.9L136.6,156.4z
				 M158.2,123.5c0.1,1.4-0.6,3.3-1.8,3.7c-1.3,0.4-3.4-0.9-3.9-2.2c-0.5-1.2,0.3-3.2,2.2-5.5c0.1,0.1,0.3,0.2,0.4,0.3
				C156.3,120.6,158,121.7,158.2,123.5z"/>
		</g>
		<path class="st3" d="M147.1,114.2c-6.5-15.7-16.1-25.7-28.4-29.5c-19.1-5.9-38.7,4.5-44.4,7.9c-6.9-8.3-16-10.2-16.4-10.3
			c-0.6-0.1-1.2,0-1.7,0.4c-0.5,0.4-0.7,1-0.7,1.6v15.7l-17,6.3c-0.8,0.3-1.3,1.1-1.3,1.9V122c0,0.6,0.2,1.1,0.7,1.5l22.5,20.4
			l4,15.1c0.2,0.9,1,1.5,2,1.5h15.2c0.9,0,1.7-0.6,2-1.5l3.4-12.7c9.8,1.7,21.7,1.5,30.9-0.5l3.5,13.2c0.2,0.9,1,1.5,2,1.5h15.2
			c1,0,1.8-0.7,2-1.7l7.2-40.6C147.6,118.2,147.1,114.2,147.1,114.2z M154.7,119.5"/>
	</g>
</g>
</svg>
