<?xml version="1.0" encoding="utf-8"?>
<!-- Generator: Adobe Illustrator 19.1.0, SVG Export Plug-In . SVG Version: 6.00 Build 0)  -->
<!DOCTYPE svg PUBLIC "-//W3C//DTD SVG 1.1//EN" "http://www.w3.org/Graphics/SVG/1.1/DTD/svg11.dtd">
<svg version="1.1" id="_x2014_ÎÓÈ_x5F_1" xmlns="http://www.w3.org/2000/svg" xmlns:xlink="http://www.w3.org/1999/xlink"
	 x="0px" y="0px" viewBox="0 0 33.5 36.7" enable-background="new 0 0 33.5 36.7" xml:space="preserve">
<g>
	<g>
		<path fill="#414042" d="M13.6,4.7l0.1,8c0,0,0,0.1,0,0.2v7.7c0,0.5-0.4,0.9-0.9,0.8c-0.8,0-1.9-0.2-3.1-0.4
			c-1.9-0.5-5.5-1.4-6.9,0.7c-0.2,0.4-0.1,0.8,0,1.2c0.1,0.3,0.3,0.6,0.6,0.8c0,0,0.1,0,0.1,0.1c0.9,0.3,9.8,3.4,12.1,4.8
			c0.6,0.4,1.4,0.6,2.1,0.6h0.4h0.3H22h0.3H26h0.2H28c0.8,0,1.4-0.6,1.4-1.4V16.3c0-0.9-0.8-1.3-1.7-1.6c0,0-8.2-2.5-8.5-2.6
			c-0.5-0.1-1-0.3-1-0.8l-0.1-6.6c0-1.4-1-2.6-2.3-2.6h0C14.6,2.2,13.6,3.3,13.6,4.7z"/>
	</g>
</g>
<g>
	<path fill="#414042" d="M23.6,5.5c-0.2-1.7-1.1-2.1-1.7-2.1c-1.3,0-3.2,1.3-5.8,3.9c0,0,0,0,0,0c-2.6-2.6-4.5-3.9-5.8-3.9
		c-0.7,0-1.5,0.4-1.7,2.1C8.4,6.3,8.6,7.2,9.2,7.8c0.4,0.4,0.9,0.7,1.4,0.7h4c0,0,0,0,0,0l-2.2,1.2c-0.2,0.1-0.3,0.4-0.3,0.7l0,0
		c0.1,0.2,0.3,0.4,0.5,0.4c0.1,0,0.2,0,0.2-0.1l3.3-1.9c0,0,0,0,0,0l3.3,1.9c0.1,0,0.2,0.1,0.2,0.1c0.2,0,0.4-0.2,0.5-0.4l0,0
		c0.1-0.3,0-0.6-0.3-0.7l-2.2-1.2c0,0,0,0,0,0h4c0.5,0,1-0.2,1.4-0.7C23.5,7.2,23.7,6.3,23.6,5.5z M10.2,4.4c0.6,0,1.9,0.4,4.8,3.1
		c0,0,0,0,0,0h-4.4c-0.4,0-0.7-0.2-1-0.6C9.4,6.6,9.3,6.1,9.3,5.6C9.5,4.4,10,4.4,10.2,4.4z M22.5,7c-0.2,0.4-0.6,0.6-1,0.6h-4.4
		c0,0,0,0,0,0c2.8-2.7,4.2-3.1,4.8-3.1c0.3,0,0.8,0,0.9,1.3C22.9,6.1,22.7,6.6,22.5,7z"/>
	<path fill="#FFFFFF" d="M19.6,10.8c-0.1,0-0.2,0-0.3-0.1l-3.2-1.9c0,0,0,0,0,0l-3.2,1.9c-0.1,0-0.2,0.1-0.3,0.1
		c-0.2,0-0.5-0.2-0.6-0.4c-0.1-0.3,0-0.7,0.3-0.8l1.9-1c0,0,0,0,0,0h-3.6c-0.6,0-1.1-0.3-1.5-0.7C8.6,7.2,8.3,6.4,8.4,5.5
		c0.2-1.8,1.1-2.1,1.8-2.1c1.3,0,3.2,1.3,5.8,3.8c0,0,0,0,0,0c2.6-2.6,4.5-3.8,5.8-3.8c0.7,0,1.6,0.4,1.8,2.1
		c0.1,0.9-0.1,1.7-0.7,2.3c-0.4,0.5-0.9,0.7-1.5,0.7h-3.6c0,0,0,0,0,0l1.9,1c0.3,0.1,0.4,0.5,0.3,0.8C20,10.6,19.8,10.8,19.6,10.8z
		 M16.1,8.7C16.1,8.7,16.1,8.7,16.1,8.7l3.3,1.9c0.1,0,0.1,0.1,0.2,0.1c0.2,0,0.3-0.1,0.4-0.3c0.1-0.2,0-0.5-0.2-0.6l-2.5-1.3
		c0,0,0,0,0,0h4.3c0.5,0,1-0.2,1.4-0.7c0.5-0.6,0.7-1.4,0.6-2.2c-0.2-1.3-0.7-2-1.7-2c-1.3,0-3.2,1.3-5.8,3.8l-0.1,0.1L16,7.4
		c-2.6-2.6-4.5-3.8-5.8-3.8c-0.9,0-1.5,0.7-1.7,2C8.5,6.3,8.7,7.1,9.2,7.7c0.4,0.4,0.9,0.7,1.4,0.7h4.3c0,0,0,0,0,0l-2.5,1.3
		c-0.2,0.1-0.3,0.4-0.2,0.6c0.1,0.2,0.2,0.3,0.4,0.3c0.1,0,0.1,0,0.2-0.1L16.1,8.7z M21.5,7.6h-4.6L17,7.5c2.9-2.8,4.3-3.2,4.8-3.2
		c0.3,0,0.9,0,1,1.3c0.1,0.5-0.1,1-0.3,1.4C22.3,7.4,21.9,7.6,21.5,7.6z M17.3,7.4C17.3,7.4,17.3,7.4,17.3,7.4l4.2,0
		c0.3,0,0.7-0.2,0.9-0.5c0.2-0.4,0.3-0.8,0.3-1.3c-0.1-1.2-0.6-1.2-0.8-1.2C21.3,4.4,20,4.8,17.3,7.4z M15.2,7.6h-4.6
		c-0.4,0-0.8-0.2-1-0.6C9.3,6.6,9.2,6.1,9.2,5.6c0.2-1.3,0.8-1.3,1-1.3c0.6,0,2,0.4,4.8,3.2L15.2,7.6z M10.2,4.4
		c-0.2,0-0.7,0-0.8,1.2C9.3,6.1,9.4,6.6,9.7,6.9c0.2,0.3,0.6,0.5,0.9,0.5h4.2c0,0,0,0,0,0C12.1,4.8,10.8,4.4,10.2,4.4z"/>
</g>
<path fill="#414042" d="M29.9,34.3H16.7c0-1,0-3.5,0-3.5c0,0,0,0,0,0h13.2c0,0,0,0,0,0C29.9,30.9,29.9,33.3,29.9,34.3z"/>
</svg>
