<?xml version="1.0" encoding="utf-8"?>
<!-- Generator: Adobe Illustrator 19.2.1, SVG Export Plug-In . SVG Version: 6.00 Build 0)  -->
<svg version="1.1" id="Layer_1" xmlns="http://www.w3.org/2000/svg" xmlns:xlink="http://www.w3.org/1999/xlink" x="0px" y="0px"
	 viewBox="0 0 200 200" style="enable-background:new 0 0 200 200;" xml:space="preserve">
<style type="text/css">
	.st0{fill:#85C443;}
	.st1{fill:#FFFFFF;}
	.st2{fill-rule:evenodd;clip-rule:evenodd;fill:#FFFFFF;}
	.st3{fill:none;stroke:#FFFFFF;stroke-linejoin:bevel;stroke-miterlimit:10;}
</style>
<g>
	<circle class="st0" cx="100" cy="100" r="100"/>
	<g>
		<path class="st1" d="M175.1,136.4v-49l8.1-4.2l-8.1-2.5v-11l-14,6.7L100,57.6L16.7,83.2l38.8,20.1v-1.6l1-0.3
			c11.6-3.8,27-5.9,43.5-5.9c16.5,0,31.9,2.1,43.5,5.9l1,0.3v1.6l27.9-14.4v47.5h-0.6h-2v6l4-4l4,4v-6h-2H175.1z M165.1,77.7
			l7.2-3.4v5.6L165.1,77.7z"/>
		<path class="st1" d="M100,101.7c-15.6,0-30.4,1.9-41.6,5.4v14v8c10.6-3.6,25.3-5.9,41.6-5.9c16.3,0,31,2.2,41.6,5.9v-8v-14
			C130.4,103.6,115.6,101.7,100,101.7z"/>
	</g>
</g>
</svg>
