<?xml version="1.0" encoding="utf-8"?>
<!-- Generator: Adobe Illustrator 19.0.1, SVG Export Plug-In . SVG Version: 6.00 Build 0)  -->
<svg version="1.1" id="Layer_1" xmlns="http://www.w3.org/2000/svg" xmlns:xlink="http://www.w3.org/1999/xlink" x="0px" y="0px"
	 viewBox="-288 387 34 20" style="enable-background:new -288 387 34 20;" xml:space="preserve">
<style type="text/css">
	.st0{fill:#FFFFFF;}
</style>
<g>
	<path class="st0" d="M-258,396.2v-2.5l3.3,3.3l-3.3,3.3v-2.5h-5.9v-1.6H-258z"/>
</g>
<g>
	<g>
		<path class="st0" d="M-282,400.8v-2.5l3.3,3.3l-3.3,3.3v-2.5h-5.9v-1.6C-287.9,400.8-282,400.8-282,400.8z"/>
	</g>
	<g>
		<path class="st0" d="M-282,391.6v-2.5l3.3,3.3l-3.3,3.3v-2.5h-5.9v-1.6H-282z"/>
	</g>
</g>
<path class="st0" d="M-263.3,404.3c0,1.2-1,2.2-2.2,2.2h-10c-1.2,0-2.2-1-2.2-2.2v-14.6c0-1.2,1-2.2,2.2-2.2h10c1.2,0,2.2,1,2.2,2.2
	V404.3z M-268.9,399.6c-0.1,0.1-0.1,0.2-0.3,0.3c-0.1,0.1-0.3,0.2-0.4,0.2c-0.2,0.1-0.4,0.1-0.6,0.1c-0.3,0-0.5,0-0.7-0.1
	c-0.2-0.1-0.4-0.1-0.6-0.3c-0.2-0.1-0.3-0.3-0.4-0.5c-0.1-0.2-0.1-0.4-0.1-0.7h-2c0,0.3,0,0.7,0.1,0.9c0.1,0.3,0.2,0.5,0.4,0.8
	c0.2,0.2,0.4,0.4,0.6,0.6c0.2,0.2,0.5,0.3,0.8,0.4c0.3,0.1,0.6,0.2,0.9,0.2c0.3,0.1,0.6,0.1,0.9,0.1c0.5,0,1-0.1,1.4-0.2
	s0.8-0.3,1-0.5c0.3-0.2,0.5-0.5,0.7-0.8c0.2-0.3,0.2-0.7,0.2-1.1s-0.1-0.7-0.2-1c-0.1-0.3-0.3-0.6-0.6-0.8c-0.3-0.2-0.6-0.5-0.9-0.6
	c-0.4-0.2-0.8-0.4-1.3-0.5c-0.6-0.2-1-0.4-1.4-0.6s-0.5-0.5-0.5-0.8c0-0.1,0-0.3,0.1-0.4c0.1-0.1,0.2-0.2,0.3-0.3
	c0.2,0,0.3-0.1,0.5-0.1c0.2-0.1,0.4-0.1,0.6-0.1c0.3,0,0.5,0,0.7,0.1c0.2,0.1,0.3,0.2,0.5,0.3c0.1,0.1,0.2,0.3,0.3,0.4
	c0.1,0.2,0.1,0.3,0.1,0.5h1.8c0-0.4-0.1-0.8-0.2-1.1c-0.2-0.3-0.4-0.6-0.7-0.9c-0.3-0.3-0.6-0.4-1.1-0.6c-0.4-0.1-0.9-0.2-1.4-0.2
	s-0.9,0.1-1.4,0.2c-0.4,0.1-0.8,0.3-1.1,0.5c-0.3,0.2-0.5,0.5-0.7,0.8c-0.2,0.3-0.2,0.7-0.2,1c0,0.4,0.1,0.7,0.2,1
	c0.2,0.3,0.4,0.6,0.7,0.8c0.3,0.2,0.6,0.4,1,0.6c0.4,0.2,0.8,0.3,1.2,0.5c0.4,0.1,0.7,0.2,0.9,0.3c0.2,0.1,0.4,0.2,0.5,0.3
	c0.1,0.1,0.2,0.2,0.3,0.4c0.1,0.2,0.1,0.3,0.1,0.4C-268.9,399.3-268.9,399.5-268.9,399.6z"/>
</svg>
