<?xml version="1.0" encoding="utf-8"?>
<!-- Generator: Adobe Illustrator 17.1.0, SVG Export Plug-In . SVG Version: 6.00 Build 0)  -->
<!DOCTYPE svg PUBLIC "-//W3C//DTD SVG 1.1//EN" "http://www.w3.org/Graphics/SVG/1.1/DTD/svg11.dtd">
<svg version="1.1" id="Layer_1" xmlns="http://www.w3.org/2000/svg" xmlns:xlink="http://www.w3.org/1999/xlink" x="0px" y="0px"
	 viewBox="0 0 34 20" enable-background="new 0 0 34 20" xml:space="preserve">
<g>
	<path fill="#363636" d="M30,9.2V6.7l3.3,3.3L30,13.3v-2.5h-5.9V9.2H30z"/>
</g>
<g>
	<g>
		<path fill="#363636" d="M6,13.8v-2.5l3.3,3.3L6,17.9v-2.5H0.1v-1.6H6z"/>
	</g>
	<g>
		<path fill="#363636" d="M6,4.6V2.1l3.3,3.3L6,8.7V6.2H0.1V4.6H6z"/>
	</g>
</g>
<path fill="#363636" d="M24.7,17.3c0,1.2-1,2.2-2.2,2.2h-10c-1.2,0-2.2-1-2.2-2.2V2.7c0-1.2,1-2.2,2.2-2.2h10c1.2,0,2.2,1,2.2,2.2
	V17.3z M19.1,12.6c-0.1,0.1-0.1,0.2-0.3,0.3c-0.1,0.1-0.3,0.2-0.4,0.2c-0.2,0.1-0.4,0.1-0.6,0.1c-0.3,0-0.5,0-0.7-0.1
	c-0.2-0.1-0.4-0.1-0.6-0.3c-0.2-0.1-0.3-0.3-0.4-0.5c-0.1-0.2-0.1-0.4-0.1-0.7H14c0,0.3,0,0.7,0.1,0.9c0.1,0.3,0.2,0.5,0.4,0.8
	c0.2,0.2,0.4,0.4,0.6,0.6c0.2,0.2,0.5,0.3,0.8,0.4c0.3,0.1,0.6,0.2,0.9,0.2c0.3,0.1,0.6,0.1,0.9,0.1c0.5,0,1-0.1,1.4-0.2
	c0.4-0.1,0.8-0.3,1-0.5c0.3-0.2,0.5-0.5,0.7-0.8c0.2-0.3,0.2-0.7,0.2-1.1c0-0.4-0.1-0.7-0.2-1c-0.1-0.3-0.3-0.6-0.6-0.8
	c-0.3-0.2-0.6-0.5-0.9-0.6c-0.4-0.2-0.8-0.4-1.3-0.5c-0.6-0.2-1-0.4-1.4-0.6s-0.5-0.5-0.5-0.8c0-0.1,0-0.3,0.1-0.4
	c0.1-0.1,0.2-0.2,0.3-0.3C16.7,7,16.8,6.9,17,6.9c0.2-0.1,0.4-0.1,0.6-0.1c0.3,0,0.5,0,0.7,0.1c0.2,0.1,0.3,0.2,0.5,0.3
	c0.1,0.1,0.2,0.3,0.3,0.4c0.1,0.2,0.1,0.3,0.1,0.5H21c0-0.4-0.1-0.8-0.2-1.1c-0.2-0.3-0.4-0.6-0.7-0.9c-0.3-0.3-0.6-0.4-1.1-0.6
	c-0.4-0.1-0.9-0.2-1.4-0.2c-0.5,0-0.9,0.1-1.4,0.2c-0.4,0.1-0.8,0.3-1.1,0.5c-0.3,0.2-0.5,0.5-0.7,0.8c-0.2,0.3-0.2,0.7-0.2,1
	c0,0.4,0.1,0.7,0.2,1c0.2,0.3,0.4,0.6,0.7,0.8c0.3,0.2,0.6,0.4,1,0.6c0.4,0.2,0.8,0.3,1.2,0.5c0.4,0.1,0.7,0.2,0.9,0.3
	s0.4,0.2,0.5,0.3c0.1,0.1,0.2,0.2,0.3,0.4s0.1,0.3,0.1,0.4C19.1,12.3,19.1,12.5,19.1,12.6z"/>
</svg>
