<?xml version="1.0" encoding="utf-8"?>
<!-- Generator: Adobe Illustrator 19.2.1, SVG Export Plug-In . SVG Version: 6.00 Build 0)  -->
<svg version="1.1" id="Layer_1" xmlns="http://www.w3.org/2000/svg" xmlns:xlink="http://www.w3.org/1999/xlink" x="0px" y="0px"
	 viewBox="0 0 200 200" style="enable-background:new 0 0 200 200;" xml:space="preserve">
<style type="text/css">
	.st0{fill:#85C443;}
	.st1{fill:#FFFFFF;}
	.st2{fill-rule:evenodd;clip-rule:evenodd;fill:#FFFFFF;}
	.st3{fill:none;stroke:#FFFFFF;stroke-linejoin:bevel;stroke-miterlimit:10;}
</style>
<g>
	<circle class="st0" cx="100" cy="100" r="100"/>
	<g>
		<rect x="73.9" y="128.8" class="st1" width="25.6" height="24"/>
		<rect x="47.2" y="44.1" class="st1" width="24" height="25.6"/>
		<polygon class="st1" points="99.4,109.7 99.4,100.6 90.3,100.6 		"/>
		<polygon class="st1" points="130.3,72.3 130.3,81.5 139.5,72.3 		"/>
		<path class="st1" d="M82.1,100.6h-8.3v25.6h25.6v-8.4c-0.3-0.1-0.5-0.3-0.7-0.5L82.1,100.6z"/>
		<polygon class="st1" points="71.2,72.3 47.2,72.3 47.2,97.9 63.7,97.9 71.2,90.4 		"/>
		<polygon class="st1" points="75.7,94.1 73.9,95.9 73.9,97.9 79.5,97.9 		"/>
		<polygon class="st1" points="102.1,100.6 102.1,109.7 111.2,100.6 		"/>
		<path class="st1" d="M48.6,117.2c-1.1-1.1-1.1-3,0-4.1l12.5-12.5H47.2v25.6h24v-25.6h-2l-16.6,16.6c-0.5,0.5-1.3,0.8-2,0.8
			C49.8,118,49.1,117.7,48.6,117.2z"/>
		<rect x="47.2" y="128.8" class="st1" width="24" height="24"/>
		<path class="st1" d="M77.7,88l9.9,9.9h11.8V72.3H73.9v15.4c0.5-0.4,1.1-0.6,1.8-0.6C76.5,87.1,77.2,87.4,77.7,88z"/>
		<rect x="102.1" y="44.1" class="st1" width="25.6" height="25.6"/>
		<rect x="130.3" y="100.6" class="st1" width="25.6" height="25.6"/>
		<rect x="130.3" y="128.8" class="st1" width="25.6" height="24"/>
		<rect x="73.9" y="44.1" class="st1" width="25.6" height="25.6"/>
		<path class="st1" d="M148.9,62.9c0.5-0.5,1.3-0.8,2-0.8c0.8,0,1.5,0.3,2,0.8c1.1,1.1,1.1,3,0,4.1l-2.7,2.7h5.6V44.1h-25.6v25.6
			h11.8L148.9,62.9z"/>
		<polygon class="st1" points="155.9,72.3 147.6,72.3 130.3,89.6 130.3,97.9 155.9,97.9 		"/>
		<path class="st1" d="M102.1,126.1h25.6v-25.6h-8.3l-16.6,16.6c-0.2,0.2-0.4,0.4-0.7,0.5V126.1z"/>
		<rect x="102.1" y="128.8" class="st1" width="25.6" height="24"/>
		<polygon class="st1" points="127.7,97.9 127.7,92.3 122.1,97.9 		"/>
		<polygon class="st1" points="127.7,72.3 102.1,72.3 102.1,97.9 113.9,97.9 127.7,84.1 		"/>
	</g>
</g>
</svg>
