<?xml version="1.0" encoding="utf-8"?>
<!-- Generator: Adobe Illustrator 19.2.1, SVG Export Plug-In . SVG Version: 6.00 Build 0)  -->
<svg version="1.1" id="Layer_1" xmlns="http://www.w3.org/2000/svg" xmlns:xlink="http://www.w3.org/1999/xlink" x="0px" y="0px"
	 viewBox="0 0 200 200" style="enable-background:new 0 0 200 200;" xml:space="preserve">
<style type="text/css">
	.st0{fill:#85C443;}
	.st1{fill:#FFFFFF;}
	.st2{fill-rule:evenodd;clip-rule:evenodd;fill:#FFFFFF;}
	.st3{fill:none;stroke:#FFFFFF;stroke-linejoin:bevel;stroke-miterlimit:10;}
</style>
<g>
	<circle class="st0" cx="100" cy="100" r="100"/>
	<path class="st2" d="M101.1,39.7c-7.5,0-13.7,6.1-13.7,13.6c0,7.5,6.1,13.7,13.7,13.7c7.5,0,13.7-6.1,13.7-13.7
		C114.7,45.8,108.6,39.7,101.1,39.7L101.1,39.7z M133.2,52.7c-6.1,0-11,4.9-11,10.9c0,6,4.9,11,11,11c6,0,10.9-4.9,10.9-11
		C144.1,57.6,139.2,52.7,133.2,52.7L133.2,52.7z M80.7,108.3l-0.2,3.5l0,0.2l2.3,40H72.3l-1.7-34.1h-4.4L64,152h-9.8l1.5-40L55,95.8
		l-9,12.9l-4.4-3.6l12.8-28.3h7.5l7.1,8.5l6.9-8.5h5.8l2.7-6.3h14.3l-1.1,1.8l1.4,2.9l-3.1,22l4.8,4.9l0,0.4l0.2-0.2l0.2,0.2v-0.4
		l4.8-4.9l-3.1-22l1.4-2.9l-1.1-1.8h14.4l2,6.3h6.6l7.1,8.5l6.9-8.5h6.4l11.9,26.3l-4.7,4l-7.9-13.4l-0.9,18l0,0.2l2.3,40h-10.5
		l-1.7-34.1h-4.4l-2.1,34.1h-9.8l1.5-40l-0.1-2.8l-4,3.4l1.8,47.8h-11.7l-2.6-40.7h-5.3l-2.1,40.7H83.6l2.8-47.8L80.7,108.3
		L80.7,108.3z M68.8,52.7c-6,0-10.9,4.9-10.9,10.9c0,6,4.9,11,10.9,11c6,0,10.9-4.9,10.9-11C79.7,57.6,74.8,52.7,68.8,52.7z"/>
</g>
</svg>
