<?xml version="1.0" encoding="utf-8"?>
<!-- Generator: Adobe Illustrator 19.2.1, SVG Export Plug-In . SVG Version: 6.00 Build 0)  -->
<svg version="1.1" id="Layer_1" xmlns="http://www.w3.org/2000/svg" xmlns:xlink="http://www.w3.org/1999/xlink" x="0px" y="0px"
	 viewBox="0 0 200 200" style="enable-background:new 0 0 200 200;" xml:space="preserve">
<style type="text/css">
	.st0{fill:#85C443;}
	.st1{fill:#FFFFFF;}
	.st2{fill-rule:evenodd;clip-rule:evenodd;fill:#FFFFFF;}
	.st3{fill:none;stroke:#FFFFFF;stroke-linejoin:bevel;stroke-miterlimit:10;}
</style>
<g>
	<circle class="st0" cx="100" cy="100" r="100"/>
	<g>
		<g>
			<path class="st1" d="M152.5,142.9L83.4,73.8c-0.6-0.6-1.4-0.9-2.2-0.9s-1.6,0.3-2.2,0.9l-7.8,7.8c-0.6,0.6-0.9,1.4-0.9,2.2
				c0,0.8,0.3,1.6,0.9,2.2l69.1,69.1c0.6,0.6,1.4,0.9,2.2,0.9s1.6-0.3,2.2-0.9l7.8-7.8c0.6-0.6,0.9-1.4,0.9-2.2
				C153.5,144.3,153.1,143.5,152.5,142.9z"/>
			<path class="st1" d="M92.4,111.3c-0.5-0.5-1.4-0.5-1.9,0l-33.3,33.3c-0.7,0.7-0.7,1.9,0,2.6l7.8,7.8c0.7,0.7,1.9,0.7,2.6,0
				l33.3-33.3c0.5-0.5,0.5-1.4,0-1.9L92.4,111.3z"/>
			<path class="st1" d="M166.2,59.8c-0.1-0.4-0.5-0.7-0.9-0.8c-0.4-0.1-0.9,0-1.2,0.3l-12.4,12.5c-0.2,0.2-0.5,0.3-0.8,0.1
				c-1-0.5-2.8-1.7-5.8-4.7c-3-3-4.2-4.8-4.7-5.8c-0.1-0.3-0.1-0.6,0.1-0.8l12.4-12.5c0.3-0.3,0.4-0.7,0.3-1.2
				c-0.1-0.4-0.4-0.7-0.8-0.9c-1.8-0.5-3.7-0.8-5.7-0.8c-5.4,0-10.5,2.1-14.4,6c-11.2,11.2-4.2,22.4-4.2,22.4l0,0l-20,20
				c-0.3,0.3-0.3,0.7,0,1l9.4,9.4c0.3,0.3,0.7,0.3,1,0l20-20l0,0c0.1,0.1,0.1,0.1,0.2,0.2c2.5,1,5.1,1.6,7.9,1.6l0,0
				c5.4,0,10.5-2.1,14.4-6C166.3,74.6,168.3,66.9,166.2,59.8z"/>
		</g>
		<g>
			<path class="st1" d="M106.6,47.9c-3.6-2.4-8.1-3.5-12.3-3.9c-9.4-0.7-18.6,2.9-26.1,8.4c-1.3-0.6-2.8-0.3-3.9,0.7L51.6,65.8
				c-1.1,1.1-1.3,2.9-0.6,4.2c-1.2,1.4-2.5,2.7-3.9,3.9c-0.6-0.2-1.2-0.2-1.8-0.2c-1.9,0-3.7,0.7-5.1,2.1l-5.1,5.1
				C33.7,82.3,33,84.1,33,86c0,1.9,0.7,3.7,2.1,5.1l6.6,6.6c1.4,1.4,3.1,2.1,5.1,2.1c1.9,0,3.7-0.7,5.1-2.1l5.1-5.1
				c1.4-1.4,2.1-3.1,2.1-5.1c0-0.5,0-0.9-0.1-1.4c1.3-1.5,2.7-2.9,4.2-4.2c1.3,0.5,2.8,0.3,3.8-0.8l1.7-1.7l9.4-9.4
				c0-0.2-0.9-17.5,28.6-20C107.6,50.1,107.5,48.3,106.6,47.9z"/>
		</g>
	</g>
</g>
</svg>
