<?xml version="1.0" encoding="utf-8"?>
<!-- Generator: Adobe Illustrator 17.1.0, SVG Export Plug-In . SVG Version: 6.00 Build 0)  -->
<!DOCTYPE svg PUBLIC "-//W3C//DTD SVG 1.1//EN" "http://www.w3.org/Graphics/SVG/1.1/DTD/svg11.dtd">
<svg version="1.1" id="Layer_1" xmlns="http://www.w3.org/2000/svg" xmlns:xlink="http://www.w3.org/1999/xlink" x="0px" y="0px"
	 viewBox="0 0 20 20" enable-background="new 0 0 20 20" xml:space="preserve">
<g>
	<path fill="#363636" d="M19,16.3l-3.3,3.3c-0.2,0.2-0.5,0.2-0.7,0L0.4,5c-0.2-0.2-0.2-0.5,0-0.7L3.7,1l3.1,3.1L5.5,5.3l0.6,0.6
		l1.3-1.3L8,5.3L6.7,6.6l0.6,0.6l1.3-1.3l0.6,0.6L7.9,7.8l0.6,0.6l1.3-1.3l0.6,0.6L9.1,9l0.6,0.6l1.3-1.3l0.6,0.6l-1.3,1.3l0.6,0.6
		l1.3-1.3l0.6,0.6l-1.3,1.3l0.6,0.6l1.3-1.3l0.6,0.6l-1.3,1.3l0.6,0.6l1.3-1.3l0.6,0.6L14,13.8l0.6,0.6l1.3-1.3l0.6,0.6L15.2,15
		l0.6,0.6l1.3-1.3l0.6,0.6l-1.3,1.3l0.6,0.6l1.3-1.3L19,16.3z M4,3.7c-0.4-0.4-0.9-0.4-1.3,0S2.4,4.6,2.7,5C3.1,5.3,3.7,5.3,4,5
		C4.4,4.6,4.4,4,4,3.7z"/>
	<path fill="#363636" d="M5.3,18.2l-4.1,1.1c0,0-0.2,0.1-0.3,0l0,0c-0.1-0.1,0-0.3,0-0.3l1.1-4.1L5.3,18.2z"/>
	<g>
		
			<rect x="3.2" y="12.4" transform="matrix(-0.7071 -0.7071 0.7071 -0.7071 -0.5911 28.5137)" fill="#363636" width="4.8" height="3.9"/>
		
			<rect x="11.2" y="3.6" transform="matrix(0.7071 -0.7071 0.7071 0.7071 -0.1284 11.6561)" fill="#363636" width="5.6" height="4.8"/>
		<path fill="#363636" d="M19.6,3.8c0.2-0.2,0.2-0.5,0-0.7l-2.7-2.7c-0.2-0.2-0.5-0.2-0.7,0l-1,1l3.4,3.4L19.6,3.8z"/>
	</g>
</g>
</svg>
