<?xml version="1.0" encoding="utf-8"?>
<!-- Generator: Adobe Illustrator 19.2.1, SVG Export Plug-In . SVG Version: 6.00 Build 0)  -->
<svg version="1.1" id="Layer_1" xmlns="http://www.w3.org/2000/svg" xmlns:xlink="http://www.w3.org/1999/xlink" x="0px" y="0px"
	 viewBox="0 0 200 200" style="enable-background:new 0 0 200 200;" xml:space="preserve">
<style type="text/css">
	.st0{fill:#85C446;}
	.st1{fill:#FFFFFF;}
</style>
<g>
	<g>
		<path class="st0" d="M158.4,79.6c-21.7,0-39.6-15.8-43.1-36.5c-5-0.5-10.1-0.7-15.3-0.7c-53.8,0-97.4,26.1-97.4,58.2
			s43.6,58.2,97.4,58.2c4,0,7.8-0.2,11.7-0.4c0,0.1,0,0.3,0,0.4c0,6.6-3.1,12.8-8.5,18.1c27.6-1.3,49.9-13.6,54.4-29.4
			c24.2-10.6,39.9-27.7,39.9-47c0-10.7-4.9-20.8-13.3-29.4C176.9,76.5,168,79.6,158.4,79.6z"/>
		<circle class="st0" cx="158.4" cy="35.9" r="35.9"/>
		<circle class="st1" cx="65.2" cy="100.6" r="12.1"/>
		<circle class="st1" cx="100" cy="100.6" r="12.1"/>
		<circle class="st1" cx="134.8" cy="100.6" r="12.1"/>
		<g>
			<polygon class="st1" points="177.9,32.4 161.9,32.4 161.9,16.4 154.9,16.4 154.9,32.4 138.8,32.4 138.8,39.4 154.9,39.4
				154.9,55.5 161.9,55.5 161.9,39.4 177.9,39.4 			"/>
		</g>
	</g>
</g>
</svg>
