<?xml version="1.0" encoding="utf-8"?>
<!-- Generator: Adobe Illustrator 19.2.1, SVG Export Plug-In . SVG Version: 6.00 Build 0)  -->
<svg version="1.1" id="Layer_1" xmlns="http://www.w3.org/2000/svg" xmlns:xlink="http://www.w3.org/1999/xlink" x="0px" y="0px"
	 viewBox="0 0 200 200" style="enable-background:new 0 0 200 200;" xml:space="preserve">
<style type="text/css">
	.st0{fill:#85C443;}
	.st1{fill:#FFFFFF;}
	.st2{fill-rule:evenodd;clip-rule:evenodd;fill:#FFFFFF;}
	.st3{fill:none;stroke:#FFFFFF;stroke-linejoin:bevel;stroke-miterlimit:10;}
</style>
<g>
	<circle class="st0" cx="100" cy="100" r="100"/>
	<g>
		<g>
			<path class="st1" d="M38.9,112.8c-7.1,0-12.9-5.8-12.9-12.9C26,92.8,31.8,87,38.9,87s12.9,5.8,12.9,12.9
				C51.8,107,46,112.8,38.9,112.8z M38.9,89.9c-5.5,0-10,4.5-10,10s4.5,10,10,10s10-4.5,10-10S44.5,89.9,38.9,89.9z"/>
		</g>
		<g>
			<path class="st1" d="M69.5,142.2c-7.1,0-12.9-5.8-12.9-12.9c0-7.1,5.8-12.9,12.9-12.9s12.9,5.8,12.9,12.9
				C82.4,136.5,76.6,142.2,69.5,142.2z M69.5,119.3c-5.5,0-10,4.5-10,10c0,5.5,4.5,10,10,10s10-4.5,10-10
				C79.5,123.8,75,119.3,69.5,119.3z"/>
		</g>
		<g>
			<circle class="st1" cx="130.5" cy="129.3" r="11.5"/>
		</g>
		<g>
			<circle class="st1" cx="69.4" cy="70.5" r="11.5"/>
		</g>
		<g>
			<path class="st1" d="M130.5,83.6c-7.1,0-12.9-5.8-12.9-12.9c0-7.1,5.8-12.9,12.9-12.9c7.1,0,12.9,5.8,12.9,12.9
				C143.5,77.8,137.7,83.6,130.5,83.6z M130.5,60.6c-5.5,0-10,4.5-10,10s4.5,10,10,10c5.5,0,10-4.5,10-10S136.1,60.6,130.5,60.6z"/>
		</g>
		<g>
			<path class="st1" d="M100,112.8c-7.1,0-12.9-5.8-12.9-12.9c0-7.1,5.8-12.9,12.9-12.9s12.9,5.8,12.9,12.9
				C112.9,107,107.1,112.8,100,112.8z M100,89.9c-5.5,0-10,4.5-10,10s4.5,10,10,10s10-4.5,10-10S105.5,89.9,100,89.9z"/>
		</g>
		<g>
			<path class="st1" d="M161.1,112.8c-7.1,0-12.9-5.8-12.9-12.9c0-7.1,5.8-12.9,12.9-12.9S174,92.8,174,99.9
				C174,107,168.2,112.8,161.1,112.8z M161.1,89.9c-5.5,0-10,4.5-10,10s4.5,10,10,10c5.5,0,10-4.5,10-10S166.6,89.9,161.1,89.9z"/>
		</g>
		<g>
			<rect x="50.4" y="98.5" class="st1" width="38.1" height="2.9"/>
		</g>
		<g>
			<rect x="68" y="99.9" class="st1" width="2.9" height="17.9"/>
		</g>
		<g>
			<rect x="111.5" y="98.5" class="st1" width="38.1" height="2.9"/>
		</g>
		<g>
			<rect x="129.1" y="82.1" class="st1" width="2.9" height="17.8"/>
		</g>
	</g>
</g>
</svg>
