<?xml version="1.0" encoding="utf-8"?>
<!-- Generator: Adobe Illustrator 19.2.1, SVG Export Plug-In . SVG Version: 6.00 Build 0)  -->
<svg version="1.1" id="Layer_1" xmlns="http://www.w3.org/2000/svg" xmlns:xlink="http://www.w3.org/1999/xlink" x="0px" y="0px"
	 viewBox="0 0 265 165" style="enable-background:new 0 0 265 165;" xml:space="preserve">
<style type="text/css">
	.st0{fill:#0060A8;}
	.st1{fill:#C61A27;}
	.st2{fill:#ED1C24;}
	.st3{fill:#FFFFFF;}
</style>
<g>
	<g>
		<path class="st0" d="M165.7,79.1h-3.6l-5.7-9.8l-0.1,0v9.8h-3.6V63.4h3.6l5.7,9.8l0.1,0v-9.8h3.6V79.1z"/>
		<path class="st0" d="M177.4,74.9c0-0.6-0.2-1-0.5-1.3c-0.4-0.3-1-0.6-2-1c-1.9-0.6-3.4-1.3-4.3-2c-0.9-0.7-1.4-1.7-1.4-3.1
			c0-1.3,0.5-2.4,1.6-3.2c1.1-0.8,2.5-1.2,4.2-1.2c1.8,0,3.2,0.4,4.3,1.3c1.1,0.8,1.6,2,1.6,3.5l0,0.1h-3.5c0-0.7-0.2-1.3-0.6-1.6
			s-1-0.5-1.8-0.5c-0.7,0-1.2,0.2-1.6,0.5s-0.6,0.7-0.6,1.2c0,0.5,0.2,0.8,0.6,1.1c0.4,0.3,1.1,0.6,2.2,1c1.8,0.5,3.2,1.2,4.1,2
			s1.4,1.8,1.4,3.2c0,1.4-0.5,2.5-1.6,3.2c-1.1,0.8-2.5,1.2-4.3,1.2c-1.8,0-3.3-0.4-4.5-1.3c-1.2-0.8-1.8-2.1-1.8-3.9l0-0.1h3.5
			c0,0.9,0.2,1.6,0.7,1.9c0.4,0.4,1.1,0.6,2.1,0.6c0.8,0,1.3-0.2,1.7-0.5S177.4,75.4,177.4,74.9z"/>
		<path class="st0" d="M195.5,66.2h-4.1v12.8h-3.6V66.2h-4.1v-2.8h11.8V66.2z"/>
		<path class="st0" d="M202.5,79.1h-3.6V63.4h3.6V79.1z"/>
		<path class="st0" d="M217.4,66.2h-4.1v12.8h-3.6V66.2h-4.1v-2.8h11.8V66.2z"/>
		<path class="st0" d="M233.4,63.4v10.1c0,1.8-0.6,3.2-1.8,4.2c-1.2,1-2.7,1.5-4.7,1.5c-1.9,0-3.5-0.5-4.7-1.5
			c-1.2-1-1.8-2.4-1.8-4.2V63.4h3.6v10.1c0,1,0.3,1.7,0.8,2.2s1.2,0.7,2.1,0.7c0.9,0,1.6-0.2,2.1-0.7c0.5-0.5,0.7-1.2,0.7-2.2V63.4
			H233.4z"/>
		<path class="st0" d="M248.3,66.2h-4.1v12.8h-3.6V66.2h-4.1v-2.8h11.8V66.2z"/>
		<path class="st0" d="M260.6,72.4h-5.5v3.9h6.6v2.8h-10.2V63.4h10.2v2.8h-6.6v3.4h5.5V72.4z"/>
		<path class="st2" d="M153.8,100.8L153.8,100.8l3.6-10.9h4.8v15.6h-3.6V95.4l-0.1,0l-3.4,10.1h-2.4l-3.4-9.9l-0.1,0v9.9h-3.6V89.8
			h4.8L153.8,100.8z"/>
		<path class="st2" d="M174.9,98.8h-5.5v3.9h6.6v2.8h-10.2V89.8H176v2.8h-6.6V96h5.5V98.8z"/>
		<path class="st2" d="M187.9,100.8L187.9,100.8l3.6-10.9h4.8v15.6h-3.6V95.4l-0.1,0l-3.4,10.1h-2.4l-3.4-9.9l-0.1,0v9.9h-3.6V89.8
			h4.8L187.9,100.8z"/>
		<path class="st2" d="M199.9,105.5V89.8h5.1c1.9,0,3.5,0.4,4.5,1.1c1.1,0.7,1.6,1.8,1.6,3.2c0,0.7-0.2,1.4-0.5,2s-0.9,1-1.6,1.3
			c0.9,0.2,1.6,0.6,2.1,1.2c0.4,0.6,0.7,1.4,0.7,2.2c0,1.5-0.5,2.7-1.5,3.5c-1,0.8-2.5,1.2-4.4,1.2H199.9z M203.5,96.3h1.4
			c0.9,0,1.5-0.2,2-0.5s0.6-0.8,0.6-1.4c0-0.7-0.2-1.2-0.6-1.5s-1.1-0.5-1.9-0.5h-1.5V96.3z M203.5,98.8v3.9h2.3
			c0.8,0,1.4-0.2,1.7-0.5s0.6-0.8,0.6-1.4c0-0.7-0.2-1.2-0.5-1.5c-0.3-0.3-0.9-0.5-1.7-0.5h-0.1H203.5z"/>
		<path class="st2" d="M224.4,98.8h-5.5v3.9h6.6v2.8h-10.2V89.8h10.2v2.8h-6.6V96h5.5V98.8z"/>
		<path class="st2" d="M232.6,99.5v6H229V89.8h5.4c1.8,0,3.2,0.4,4.3,1.3s1.6,2,1.6,3.4c0,0.8-0.2,1.5-0.6,2.1
			c-0.4,0.6-1.1,1.1-1.9,1.4c1,0.3,1.6,0.7,2.1,1.4c0.4,0.6,0.6,1.4,0.6,2.4v1c0,0.4,0.1,0.9,0.2,1.4c0.1,0.5,0.3,0.9,0.6,1.1v0.2
			h-3.7c-0.3-0.2-0.5-0.6-0.6-1.2s-0.1-1.1-0.1-1.6v-0.9c0-0.7-0.2-1.3-0.6-1.7c-0.4-0.4-1-0.6-1.7-0.6H232.6z M232.6,96.7h1.8
			c0.7,0,1.3-0.2,1.7-0.5s0.6-0.8,0.6-1.4c0-0.6-0.2-1.2-0.6-1.5c-0.4-0.4-1-0.6-1.7-0.6h-1.8V96.7z"/>
	</g>
	<path class="st0" d="M146.1,63.4c-0.1,0-0.3,0.1-0.3,0.3V64v0V66c0,0.1,0,0.2,0.1,0.2l1.6,0.9c0.1,0,0.2,0,0.3,0l1.6-0.9
		c0.1,0,0.1-0.1,0.1-0.2v-1.9v0v-0.4c0-0.1-0.1-0.3-0.3-0.3H146.1z"/>
	<path class="st0" d="M147.7,69.2c-0.1,0-0.2,0-0.3,0l-1.5-0.9h-0.2v10.7h3.6V68.4h-0.2L147.7,69.2z"/>
	<g>
		<path class="st1" d="M61,105.5H42.7c-1.4,0-2.3-1.4-1.9-2.7l17.1-48.7l11.3,32.1l-6.3,17.9C62.6,105,61.8,105.5,61,105.5z"/>
		<polygon class="st1" points="100.2,103.7 88.9,71.6 95,54.1 106.3,86.2 		"/>
		<path class="st2" d="M78.5,105.5h18.3c1.4,0,2.3-1.4,1.9-2.7L81.5,53.7c-0.3-0.8-1-1.3-1.9-1.3H61.3c-1.4,0-2.3,1.4-1.9,2.7
			l17.2,49.1C76.9,105,77.7,105.5,78.5,105.5z"/>
		<path class="st2" d="M115.7,105.5h18.3c1.4,0,2.3-1.4,1.9-2.7l-17.2-49.1c-0.3-0.8-1-1.3-1.9-1.3H98.5c-1.4,0-2.3,1.4-1.9,2.7
			l17.2,49.1C114.1,105,114.8,105.5,115.7,105.5z"/>
	</g>
	<path class="st0" d="M70.6,141.2c0.6-1.1,0.1-2.5-1.1-2.9c-22.7-7.7-39.3-28.9-40.1-53.8C28.6,57.9,45.4,35.1,69,26.9
		c0.8-0.3,1.4-1,1.4-1.9V8.3c0-1.3-1.3-2.3-2.5-1.9c-1.5,0.4-3.1,0.9-4.6,1.4c-0.9,0.3-1.9-0.1-2.4-0.9l-1.9-3.2
		c-0.6-1-1.8-1.3-2.7-0.7l-20.8,12c-1,0.6-1.3,1.8-0.7,2.7l1.9,3.2c0.5,0.8,0.3,1.9-0.4,2.5c-2.5,2.2-4.8,4.5-7,7
		c-0.6,0.7-1.7,0.9-2.5,0.4l-3.2-1.9c-1-0.6-2.2-0.2-2.7,0.7l-12,20.8c-0.6,1-0.2,2.2,0.7,2.7l3.2,1.9c0.8,0.5,1.2,1.5,0.9,2.4
		c-1,3.1-1.9,6.3-2.6,9.5c-0.2,0.9-1,1.6-2,1.6H5.3c-1.1,0-2,0.9-2,2v24c0,1.1,0.9,2,2,2H9c1,0,1.8,0.7,2,1.6
		c0.7,3.2,1.5,6.4,2.6,9.5c0.3,0.9-0.1,1.9-0.9,2.4l-3.2,1.9c-1,0.6-1.3,1.8-0.7,2.7l12,20.8c0.6,1,1.8,1.3,2.7,0.7l3.3-1.9
		c0.8-0.5,1.9-0.3,2.5,0.4c2.2,2.5,4.5,4.8,6.9,6.9c0.7,0.6,0.9,1.7,0.4,2.5l-1.9,3.3c-0.6,1-0.2,2.2,0.7,2.7l20.8,12
		c1,0.6,2.2,0.2,2.7-0.7l5-8.6L70.6,141.2z"/>
	<g>
		<path class="st2" d="M77.4,10.4h-3.1v0.3v14.6c0,0.7,0.4,1.4,1,1.7l2.1,1.2V10.4z"/>
		<polygon class="st3" points="80.5,30 80.5,10.4 77.4,10.4 77.4,28.2 		"/>
		<polygon class="st2" points="83.7,31.7 83.7,10.4 80.5,10.4 80.5,30 		"/>
		<polygon class="st3" points="86.8,33.5 86.8,10.4 83.7,10.4 83.7,31.7 		"/>
		<path class="st2" d="M89.3,33.8l0.6-0.3V10.4h-3.1v23.1l0.6,0.3C87.9,34.2,88.7,34.2,89.3,33.8z"/>
		<polygon class="st3" points="93,31.7 93,10.4 89.9,10.4 89.9,33.5 		"/>
		<polygon class="st2" points="96.1,30 96.1,10.4 93,10.4 93,31.7 		"/>
		<polygon class="st3" points="99.2,28.2 99.2,10.4 96.1,10.4 96.1,30 		"/>
		<path class="st2" d="M99.2,28.2l2.1-1.2c0.6-0.4,1-1,1-1.7V10.7v-0.3h-3.1V28.2z"/>
	</g>
	<path class="st0" d="M102.3,10.4h-28V7.7c0-1.1,0.9-2,2-2h24c1.1,0,2,0.9,2,2V10.4z"/>
</g>
</svg>
