<?xml version="1.0" encoding="utf-8"?>
<!-- Generator: Adobe Illustrator 19.2.1, SVG Export Plug-In . SVG Version: 6.00 Build 0)  -->
<svg version="1.1" id="Layer_1" xmlns="http://www.w3.org/2000/svg" xmlns:xlink="http://www.w3.org/1999/xlink" x="0px" y="0px"
	 viewBox="0 0 350 200" style="enable-background:new 0 0 350 200;" xml:space="preserve">
<style type="text/css">
	.st0{fill:url(#SVGID_1_);}
	.st1{fill:url(#SVGID_2_);}
	.st2{fill:#006FCF;}
	.st3{fill:#FFFFFF;}
	.st4{clip-path:url(#SVGID_4_);fill:#FFFFFF;}
	.st5{fill:url(#SVGID_5_);}
	.st6{opacity:0.8;fill:url(#SVGID_6_);}
	.st7{fill:url(#SVGID_7_);}
	.st8{fill:url(#SVGID_8_);}
	.st9{clip-path:url(#SVGID_10_);fill:#FFFFFF;}
	.st10{fill:url(#SVGID_11_);}
	.st11{opacity:0.8;fill:url(#SVGID_12_);}
	.st12{fill:#BCBEC0;}
</style>
<g>
	<g>
		<g>
			
				<linearGradient id="SVGID_1_" gradientUnits="userSpaceOnUse" x1="751.4074" y1="-840.6592" x2="634.0441" y2="-789.6282" gradientTransform="matrix(1 0 0 1 -620.4697 915.1437)">
				<stop  offset="0" style="stop-color:#D9D9D9"/>
				<stop  offset="0.3444" style="stop-color:#949494"/>
				<stop  offset="0.6376" style="stop-color:#EDEDED"/>
				<stop  offset="1" style="stop-color:#949494"/>
			</linearGradient>
			<path class="st0" d="M129.2,107.6c-4.1-1-7.6-3.4-7.6-7.6c0-4.2,3.5-6.6,7.6-7.6c2.5-0.6,4.6-1.2,6.4-1.6
				c-0.7-5.1-2.1-9.9-3.9-14.5c-1.7,0.5-3.8,1.1-6.3,1.8c-4,1.2-8.3,0.9-10.4-2.8c-2.1-3.6-0.2-7.5,2.8-10.4
				c1.9-1.8,3.4-3.3,4.7-4.6c-3.1-3.9-6.7-7.5-10.6-10.6c-1.3,1.3-2.8,2.9-4.6,4.7c-2.9,3-6.7,4.9-10.4,2.8
				c-3.6-2.1-3.9-6.3-2.8-10.4c0.7-2.5,1.3-4.6,1.8-6.3c-4.6-1.8-9.5-3.2-14.5-3.9c-0.4,1.8-1,3.9-1.6,6.4c-1,4.1-3.4,7.6-7.6,7.6
				c-4.2,0-6.6-3.5-7.6-7.6c-0.6-2.5-1.2-4.6-1.6-6.4c-5.1,0.7-9.9,2.1-14.5,3.9c0.5,1.7,1.1,3.8,1.8,6.3c1.2,4,0.9,8.3-2.8,10.4
				c-3.6,2.1-7.5,0.2-10.4-2.8c-1.8-1.9-3.3-3.4-4.6-4.7c-3.9,3.1-7.5,6.7-10.6,10.6c1.3,1.3,2.9,2.8,4.7,4.6
				c3,2.9,4.9,6.7,2.8,10.4c-2.1,3.6-6.3,3.9-10.4,2.8c-2.5-0.7-4.6-1.3-6.3-1.8c-1.8,4.6-3.2,9.5-3.9,14.5c1.8,0.4,3.9,1,6.4,1.6
				c4.1,1,7.6,3.4,7.6,7.6c0,4.2-3.5,6.6-7.6,7.6c-2.5,0.6-4.6,1.2-6.4,1.6c0.7,5.1,2.1,9.9,3.9,14.5c1.7-0.5,3.8-1.1,6.3-1.8
				c4-1.2,8.3-0.9,10.4,2.8c2.1,3.6,0.2,7.5-2.8,10.4c-1.9,1.8-3.4,3.3-4.7,4.6c3.1,3.9,6.7,7.5,10.6,10.6c1.3-1.3,2.8-2.9,4.6-4.7
				c2.9-3,6.7-4.9,10.4-2.8c3.6,2.1,3.9,6.3,2.8,10.4c-0.7,2.5-1.3,4.6-1.8,6.3c4.6,1.8,9.5,3.2,14.5,3.9c0.4-1.8,1-3.9,1.6-6.4
				c1-4.1,3.4-7.6,7.6-7.6c4.2,0,6.6,3.5,7.6,7.6c0.6,2.5,1.2,4.6,1.6,6.4c5.1-0.7,9.9-2.1,14.5-3.9c-0.5-1.7-1.1-3.8-1.8-6.3
				c-1.2-4-0.9-8.3,2.8-10.4s7.5-0.2,10.4,2.8c1.8,1.9,3.3,3.4,4.6,4.7c3.9-3.1,7.5-6.7,10.6-10.6c-1.3-1.3-2.9-2.8-4.7-4.6
				c-3-2.9-4.9-6.7-2.8-10.4c2.1-3.6,6.3-3.9,10.4-2.8c2.5,0.7,4.6,1.3,6.3,1.8c1.8-4.6,3.2-9.5,3.9-14.5
				C133.8,108.8,131.7,108.2,129.2,107.6z"/>
			
				<linearGradient id="SVGID_2_" gradientUnits="userSpaceOnUse" x1="-147.3535" y1="282.4224" x2="-72.6538" y2="282.4224" gradientTransform="matrix(4.489700e-011 -1 1 4.489700e-011 -210 -10)">
				<stop  offset="0" style="stop-color:#006FCF"/>
				<stop  offset="1" style="stop-color:#0065C5"/>
			</linearGradient>
			<path class="st1" d="M108.7,91c5,20-7.2,40.3-27.2,45.3c-20,5-40.3-7.2-45.3-27.2s7.2-40.3,27.2-45.3S103.7,71,108.7,91z"/>
			<path class="st2" d="M38.9,108.4c4.6,18.5,23.4,29.8,41.9,25.2c18.5-4.6,29.8-23.4,25.2-41.9S82.6,61.8,64.1,66.5
				C45.6,71.1,34.3,89.9,38.9,108.4z"/>
			<g>
				<path class="st3" d="M68.9,87.7h-3c-2.6,0-4.8,2.1-4.8,4.8v5.6c0,1.5-1.2,2.7-2.7,2.7s-2.7-1.2-2.7-2.7v-5.6
					c0-2.6-2.1-4.8-4.8-4.8h-3c-2.6,0-4.8,2.1-4.8,4.8v25.3c0.6,1,1.3,2,2.1,3V92.5c0-1.5,1.2-2.7,2.7-2.7h3c1.5,0,2.7,1.2,2.7,2.7
					v5.6c0,2.6,2.1,4.8,4.8,4.8s4.8-2.1,4.8-4.8v-5.6c0-1.5,1.2-2.7,2.7-2.7h3c1.5,0,2.7,1.2,2.7,2.7v41.7c0.3,0,0.6,0,0.8,0
					c0.4,0,0.8,0,1.2,0V92.5C73.6,89.9,71.5,87.7,68.9,87.7z"/>
				<path class="st3" d="M81.9,89.8h14.9c1.5,0,2.7,1.2,2.7,2.7v10.1c0,1.5-1.2,2.7-2.7,2.7h-7.9c-0.5-1.8-2.1-3.1-4-3.1
					c-2.3,0-4.2,1.9-4.2,4.2c0,2.3,1.9,4.2,4.2,4.2c1.9,0,3.6-1.3,4-3.1h7.9c2.6,0,4.8-2.1,4.8-4.8V92.5c0-2.6-2.1-4.8-4.8-4.8H81.9
					c-2.6,0-4.8,2.1-4.8,4.8V134c0.7-0.1,1.4-0.2,2.1-0.3V92.5C79.1,91,80.4,89.8,81.9,89.8z"/>
			</g>
			<g>
				<defs>
					<path id="SVGID_9_" d="M38.9,108.4c4.6,18.5,23.4,29.8,41.9,25.2c18.5-4.6,29.8-23.4,25.2-41.9S82.6,61.8,64.1,66.5
						C45.6,71.1,34.3,89.9,38.9,108.4z"/>
				</defs>
				<clipPath id="SVGID_4_">
					<use xlink:href="#SVGID_9_"  style="overflow:visible;"/>
				</clipPath>
				<circle class="st4" cx="146.3" cy="155.7" r="4.1"/>
			</g>
			
				<linearGradient id="SVGID_5_" gradientUnits="userSpaceOnUse" x1="340.6189" y1="-1469.752" x2="275.1201" y2="-1413.3369" gradientTransform="matrix(0.7071 0.7071 -0.7071 0.7071 -1167.7626 901.3931)">
				<stop  offset="0" style="stop-color:#F2F2F2"/>
				<stop  offset="0.1592" style="stop-color:#DEDEDE"/>
				<stop  offset="0.3958" style="stop-color:#A6A6A6"/>
				<stop  offset="0.9135" style="stop-color:#949494"/>
			</linearGradient>
			<path class="st5" d="M108.9,121.9c12.1-20.1,5.6-46.3-14.6-58.4C74.2,51.4,48,57.9,35.9,78.1s-5.6,46.3,14.6,58.4
				C70.6,148.6,96.8,142.1,108.9,121.9z M51.8,134.3c-18.9-11.4-25-36-13.7-54.9c11.4-18.9,36-25,54.9-13.7
				c18.9,11.4,25,36,13.7,54.9C95.3,139.5,70.7,145.6,51.8,134.3z"/>
			
				<linearGradient id="SVGID_6_" gradientUnits="userSpaceOnUse" x1="-88.1187" y1="295.8515" x2="-145.2959" y2="260.1638" gradientTransform="matrix(4.489700e-011 -1 1 4.489700e-011 -210 -10)">
				<stop  offset="0" style="stop-color:#FFFFFF"/>
				<stop  offset="1" style="stop-color:#FFFFFF;stop-opacity:0"/>
			</linearGradient>
			<path class="st6" d="M43,81.6c-4.7,7.6-6.5,17.1-4.1,26.5c4.6,18.5,23.4,29.7,41.8,25.1c8.1-2,14.9-6.8,19.5-13.1
				C75.7,119.2,53.3,104.4,43,81.6z"/>
		</g>
		<g>
			<path class="st12" d="M147.6,149.7c-0.2,0-0.4-0.2-0.4-0.4V50.7c0-0.2,0.2-0.4,0.4-0.4s0.4,0.2,0.4,0.4v98.6
				C148,149.5,147.8,149.7,147.6,149.7z"/>
		</g>
	</g>
	<g>
		<g>
			<path class="st2" d="M160.4,65.5h10.7l5.5,15.2l5.5-15.2h10.5v28.6h-8.2V76.3l-7,17.8h-2.7l-6.9-17.8v17.8h-7.3V65.5z"/>
		</g>
		<g>
			<path class="st2" d="M196.6,65.5h19.8v6.3h-11.6v4.9h9.2v5.8h-9.2v5.2H217v6.3h-20.4V65.5z"/>
		</g>
		<g>
			<path class="st2" d="M221.1,65.5h10.7l5.5,15.2l5.5-15.2h10.5v28.6H245V76.3l-7,17.8h-2.7l-6.9-17.8v17.8h-7.3V65.5z"/>
		</g>
		<g>
			<path class="st2" d="M257.3,65.5H270c6.8,0,9.6,3,9.6,7.5v0.2c0,3.2-1.6,5.3-4.8,6.2c3.5,0.6,5.7,2.7,5.7,6.7v0.2
				c0,5.1-3.3,8-10.4,8h-12.9V65.5z M268.4,76.8c2.6,0,3.5-0.9,3.5-2.9v-0.2c0-2-1-2.8-3.5-2.8h-3.1v5.9H268.4z M268.7,88.6
				c2.6,0,3.8-1.2,3.8-3.3v-0.2c0-2.2-1.2-3.3-4-3.3h-3.2v6.8H268.7z"/>
		</g>
		<g>
			<path class="st2" d="M284.2,65.5h19.8v6.3h-11.6v4.9h9.2v5.8h-9.2v5.2h12.2v6.3h-20.4V65.5z"/>
		</g>
		<g>
			<path class="st2" d="M308.7,65.5h11.2c7.5,0,11.6,3,11.6,9.1v0.2c0,4.1-2.2,6.4-5.2,7.5l6.8,11.8h-8.6l-5.8-10.2h-1.9v10.2h-8.2
				V65.5z M319.5,78.5c2.8,0,4.1-1.2,4.1-3.5v-0.2c0-2.3-1.4-3.2-4.1-3.2h-2.7v6.9H319.5z"/>
		</g>
		<g>
			<path class="st2" d="M160.4,105.5h10.9c7.8,0,11.5,3.5,11.5,9.6v0.2c0,6-4,9.2-11.1,9.2h-3.1v9.6h-8.2V105.5z M170.9,118.8
				c2.6,0,4-1.2,4-3.6v-0.2c0-2.4-1.4-3.4-4-3.4h-2.4v7.2H170.9z"/>
		</g>
		<g>
			<path class="st2" d="M185,119.9v-0.3c0-8.7,6.6-14.6,15.1-14.6c8.7,0,15.2,5.5,15.2,14.4v0.3c0,8.8-6,14.8-15.3,14.8
				S185,128.5,185,119.9z M206.8,119.9v-0.3c0-5.1-2.6-8.1-6.6-8.1s-6.6,2.9-6.6,8.1v0.3c0,5.2,2.6,8.2,6.6,8.2
				C204.2,128.1,206.8,125,206.8,119.9z"/>
		</g>
		<g>
			<path class="st2" d="M218.5,105.5h11.2c7.5,0,11.6,3,11.6,9.1v0.2c0,4.1-2.2,6.4-5.2,7.5l6.8,11.8h-8.6l-5.8-10.2h-1.9v10.2h-8.2
				V105.5z M229.3,118.5c2.8,0,4.1-1.2,4.1-3.5v-0.2c0-2.3-1.4-3.2-4.1-3.2h-2.7v6.9H229.3z"/>
		</g>
		<g>
			<path class="st2" d="M251.6,111.8h-7.4v-6.3h23v6.3h-7.4v22.3h-8.2V111.8z"/>
		</g>
		<g>
			<path class="st2" d="M275.1,105.5h10.6l9.1,28.6h-8.7l-1.5-5.3h-9.5l-1.5,5.3H266L275.1,105.5z M276.7,123.1h6.3l-3.1-11
				L276.7,123.1z"/>
		</g>
		<g>
			<path class="st2" d="M297.3,105.5h8.2v22.2h10.8v6.4h-19V105.5z"/>
		</g>
	</g>
</g>
</svg>
