<?xml version="1.0" standalone="no"?>
<!DOCTYPE svg PUBLIC "-//W3C//DTD SVG 20010904//EN"
 "http://www.w3.org/TR/2001/REC-SVG-20010904/DTD/svg10.dtd">
<svg version="1.0" xmlns="http://www.w3.org/2000/svg"
 width="478.000000pt" height="400.000000pt" viewBox="0 0 478.000000 400.000000"
 preserveAspectRatio="xMidYMid meet">
<metadata>
Created by potrace 1.14, written by Peter Selinger 2001-2017
</metadata>
<g transform="translate(0.000000,400.000000) scale(0.100000,-0.100000)"
 stroke="none">
<path d="M2645 3894 c-11 -2 -51 -11 -88 -20 -266 -61 -506 -258 -627 -516
-65 -140 -85 -230 -85 -398 0 -120 4 -160 23 -230 77 -282 271 -515 529 -632
240 -109 536 -109 776 0 257 117 452 350 529 632 33 122 33 338 0 460 -92 338
-340 588 -677 683 -51 14 -109 20 -215 23 -80 1 -154 1 -165 -2z"/>
<path d="M771 3051 c-11 -7 -48 -199 -51 -262 0 -4 -37 -28 -82 -54 l-82 -47
-113 46 c-62 25 -122 46 -132 46 -24 0 -36 -16 -145 -207 -56 -98 -86 -159
-82 -170 3 -10 51 -53 106 -96 l100 -78 -1 -97 0 -97 -100 -78 c-55 -43 -103
-85 -106 -93 -7 -18 184 -352 212 -370 17 -11 37 -6 143 37 l123 49 27 -19
c15 -10 50 -30 78 -44 l52 -26 12 -88 c19 -136 27 -174 39 -186 17 -17 415
-17 432 0 12 12 20 50 39 186 11 79 15 89 36 98 14 5 49 24 79 44 l55 35 123
-49 c105 -43 125 -48 142 -37 11 7 53 69 93 137 102 174 124 218 117 237 -3 9
-50 51 -105 92 l-99 75 0 97 -1 97 100 77 c55 42 102 85 106 96 4 14 -22 68
-87 181 -101 178 -115 197 -138 197 -9 0 -68 -21 -132 -46 l-116 -46 -69 41
c-38 22 -74 44 -81 48 -7 5 -20 64 -29 132 -10 71 -23 129 -31 137 -12 11 -57
14 -216 14 -111 0 -208 -4 -216 -9z m344 -620 c62 -28 130 -94 162 -160 39
-79 40 -191 2 -271 -32 -68 -84 -122 -152 -158 -45 -23 -63 -27 -142 -27 -78
0 -97 4 -140 27 -65 34 -128 100 -157 163 -31 69 -31 190 -1 256 40 89 122
160 213 186 58 17 158 9 215 -16z"/>
<path d="M2503 1524 c-396 -43 -855 -174 -1123 -322 -121 -66 -238 -153 -312
-230 -83 -87 -116 -139 -149 -232 -22 -61 -23 -80 -23 -340 l-1 -275 1890 0
1890 0 -1 275 c0 259 -2 279 -23 340 -33 93 -66 145 -149 232 -152 159 -391
292 -715 397 -440 143 -894 198 -1284 155z"/>
</g>
</svg>
