<svg id="Layer_1" xmlns="http://www.w3.org/2000/svg" viewBox="0 0 914.7 71.7"><path fill="#A6A8AB" d="M112.5 51.8c0-8.7 9.2-11.6 18.8-11.6h5.4v-2.7c0-6-2.3-8.5-8-8.5-5.2 0-8 2.2-8.6 6.7h-6c.8-8.5 7.6-11.7 14.8-11.7 7.2 0 13.7 2.9 13.7 13.4v24.7h-6v-4.7c-2.8 3.5-6.2 5.4-11.7 5.4-6.8 0-12.4-3.4-12.4-11zm24.2-2.8v-4.7h-5.2c-7.5 0-13.1 1.9-13.1 7.4 0 3.9 1.9 6.3 7.1 6.3 6.4.1 11.2-3.2 11.2-9z"/><g fill="#A6A8AB"><path d="M171.9 41.4V10.9h14.7v29.8c0 7.2 1.8 10.8 8 10.8 6.1 0 8-3.3 8-11V10.9h14.8v30.3c0 14.9-8.7 21.9-22.9 21.9-14.3-.1-22.6-7.4-22.6-21.7zM227.2 10.9H242v51.3h-14.8V10.9zM266.3 10.9h14.8v39.9h19.4v11.4h-34.1V10.9zM320.4 10.9h19l16.3 51.3h-15.6l-2.7-9.5h-17l-2.7 9.5H304l16.4-51.3zm2.8 31.6h11.3l-5.6-19.7-5.7 19.7zM360.7 10.9h22.9c12.1 0 17.3 5.5 17.3 13.4v.3c0 5.7-2.9 9.5-8.7 11 6.3 1.1 10.3 4.9 10.3 12v.3c0 9.2-6 14.3-18.6 14.3h-23.1V10.9zm19.9 20.3c4.6 0 6.3-1.6 6.3-5.2v-.3c0-3.5-1.9-5.1-6.3-5.1H375v10.6h5.6zm.5 21.1c4.7 0 6.8-2.2 6.8-6V46c0-3.9-2.1-5.9-7.2-5.9H375v12.1h6.1zM406.6 45.9h14c.4 3.7 2 6.7 8.1 6.7 4.2 0 6.6-2.1 6.6-5.1 0-3.2-1.9-4-8.1-4.9-14.5-1.7-19.4-6-19.4-16.4 0-9.3 7.6-16 19.9-16 12.3 0 19.3 5.2 20.2 16h-13.6c-.5-3.7-2.6-5.5-6.6-5.5-3.9 0-6 1.8-6 4.4 0 2.9 1.6 4.2 8 5 13 1.4 19.7 4.8 19.7 15.9 0 9.4-7.5 17.1-20.7 17.1-14.3-.1-21.6-6.1-22.1-17.2z"/></g><g fill="#A6A8AB"><path d="M474.5 36.8v-.6c0-15.2 10.2-26.2 24.1-26.2 10.7 0 19.7 5.7 20.8 16.8h-6.2C511.9 19 507.4 15 498.6 15c-10.6 0-17.7 8.2-17.7 21.2v.6c0 13.1 6.6 20.9 17.6 20.9 8.4 0 14.2-4.2 15.5-12.6h5.8c-1.8 11.8-10 17.6-21.4 17.6-14.8.1-23.9-10.1-23.9-25.9zM526.4 43.7v-.6c0-11.3 7.8-19.1 18.4-19.1s18.4 7.8 18.4 19.1v.6c0 11.3-7.8 19.1-18.5 19.1-10.6 0-18.3-8.1-18.3-19.1zm30.7 0v-.5c0-8.7-4.8-14.3-12.3-14.3-7.5 0-12.3 5.6-12.3 14.2v.6c0 8.5 4.7 14.1 12.3 14.1 7.5 0 12.3-5.6 12.3-14.1zM572.1 6.7h6v55.4h-6V6.7zM589.2 6.7h6v55.4h-6V6.7zM603.8 51.8c0-8.7 9.2-11.6 18.8-11.6h5.4v-2.7c0-6-2.3-8.5-8-8.5-5.2 0-8 2.2-8.6 6.7h-6c.8-8.5 7.6-11.7 14.8-11.7 7.2 0 13.7 2.9 13.7 13.4v24.7h-6v-4.7c-2.8 3.5-6.2 5.4-11.7 5.4-6.9 0-12.4-3.4-12.4-11zm24.1-2.8v-4.7h-5.2c-7.5 0-13.1 1.9-13.1 7.4 0 3.9 1.9 6.3 7.1 6.3 6.4.1 11.2-3.2 11.2-9zM650.6 56v6.2h-6V6.7h6V31c2.2-3.7 7.2-7 12.7-7 9.8 0 17.1 7.2 17.1 18.9v.6c0 11.5-6.7 19.4-17.1 19.4-6.1-.1-10.6-3.2-12.7-6.9zm23.6-12.3v-.6c0-9.5-5.2-14.2-11.5-14.2-7 0-12.3 4.6-12.3 14.2v.6c0 9.6 5 14.1 12.3 14.1 7.5 0 11.5-5 11.5-14.1zM686.7 43.7v-.6c0-11.3 7.8-19.1 18.4-19.1s18.4 7.8 18.4 19.1v.6c0 11.3-7.8 19.1-18.5 19.1-10.6 0-18.3-8.1-18.3-19.1zm30.7 0v-.5c0-8.7-4.8-14.3-12.3-14.3-7.5 0-12.3 5.6-12.3 14.2v.6c0 8.5 4.7 14.1 12.3 14.1 7.6 0 12.3-5.6 12.3-14.1zM732.3 24.6h6v6.7c2.4-4.2 5.6-7.2 12.3-7.4v5.6c-7.5.4-12.3 2.7-12.3 12v20.6h-6V24.6zM755 51.8c0-8.7 9.2-11.6 18.8-11.6h5.4v-2.7c0-6-2.3-8.5-8-8.5-5.2 0-8 2.2-8.6 6.7h-6c.8-8.5 7.6-11.7 14.8-11.7 7.2 0 13.7 2.9 13.7 13.4v24.7h-6v-4.7c-2.8 3.5-6.2 5.4-11.7 5.4-6.9 0-12.4-3.4-12.4-11zm24.2-2.8v-4.7H774c-7.5 0-13.1 1.9-13.1 7.4 0 3.9 1.9 6.3 7.1 6.3 6.4.1 11.2-3.2 11.2-9zM796.8 52.8V29.7h-5.4v-5h5.4v-8.5h6v8.5h8.7v5h-8.7v22.5c0 3.7 1.6 5.5 4.7 5.5 1.9 0 3.3-.3 4.6-.8v5c-1.2.4-2.7.8-5.1.8-6.9 0-10.2-4.1-10.2-9.9zM818.5 12.9c0-2.2 1.8-3.9 3.9-3.9s3.9 1.8 3.9 3.9-1.8 3.9-3.9 3.9-3.9-1.8-3.9-3.9zm1.1 11.7h6v37.5h-6V24.6zM834 43.7v-.6c0-11.3 7.8-19.1 18.4-19.1s18.4 7.8 18.4 19.1v.6c0 11.3-7.8 19.1-18.5 19.1-10.6 0-18.3-8.1-18.3-19.1zm30.7 0v-.5c0-8.7-4.8-14.3-12.3-14.3-7.5 0-12.3 5.6-12.3 14.2v.6c0 8.5 4.7 14.1 12.3 14.1 7.6 0 12.3-5.6 12.3-14.1zM879.6 24.6h6v6c1.7-3.5 5.9-6.6 12-6.6 7.7 0 13.2 4.2 13.2 15.1v23h-6V38.7c0-6.6-2.8-9.5-8.8-9.5-5.5 0-10.5 3.5-10.5 10.3v22.7h-6V24.6z"/></g><path fill="#A6A8AB" d="M0 0v71.7h71.7V0H0zm55.9 40H39.1v18.1h-6.5V40H15.8v-6.3h16.8V15.6h6.5v18.1h16.8V40z"/></svg>